<?xml version="1.0" encoding="utf-8"?>
<!-- Generator: Adobe Illustrator 18.1.1, SVG Export Plug-In . SVG Version: 6.00 Build 0)  -->
<svg version="1.1" id="Layer_1" xmlns="http://www.w3.org/2000/svg" xmlns:xlink="http://www.w3.org/1999/xlink" x="0px" y="0px"
	 viewBox="0 0 600 600" enable-background="new 0 0 600 600" xml:space="preserve">
<g>
	<path fill="none" d="M415.9,127.9c0.8-0.1,1.5-0.8,1.9-1.9c-0.4,0.8-1.1,1.4-1.7,1.6l-19.7,3.9c0.2,0,0.3,0.1,0.4,0.2L415.9,127.9z
		"/>
	<path fill="none" d="M370.7,109.4c1.9,1.4,4.2,2.3,6.8,2.3c0,0,0.1,0,0.1,0c-2.6,0-5-0.9-6.8-2.4
		C370.8,109.4,370.7,109.4,370.7,109.4z"/>
	<path fill="none" d="M364.8,114.5c-0.1,0-0.2,0-0.2,0c0.3,0.1,0.6,0.1,0.8,0.1c1.7,0,3.1-1,4-2.1c-0.1-0.1-0.1-0.1-0.2-0.2
		C368.3,113.7,366.8,114.6,364.8,114.5z"/>
	<path fill="none" d="M380.4,114c0.4-0.1,0.7-0.3,1.1-0.4c0,0,0,0,0,0C381.1,113.7,380.7,113.8,380.4,114z"/>
	<path fill="none" d="M438.6,91.1c0,0.3-0.1,0.5-0.1,0.5c0,0,0,0,0.1-0.1C438.6,91.4,438.6,91.2,438.6,91.1z"/>
	<path fill="none" d="M361.2,106.5C361.2,106.6,361.2,106.6,361.2,106.5c0,3,2.3,5.2,5.1,5.2c0.1,0,0.1,0,0.2,0
		C363.8,111.6,361.8,109.6,361.2,106.5z"/>
	<path fill="none" d="M392,129.5c-3.6,0.8-7.3,1.1-11,1.1C384.7,130.6,388.4,130.2,392,129.5l23.8-4.6c0.4-0.1,0.7-0.3,1-0.6
		c-0.2,0.2-0.5,0.3-0.8,0.4L392,129.5z"/>
	<path fill="none" d="M395.2,138.5c-2,0-3.6-1.7-3.6-3.6c0-0.8,0.2-1.4,0.6-2c-0.5,0.6-0.8,1.5-0.8,2.3c0,2,1.6,3.6,3.6,3.6
		c1.3,0,2.4-0.7,3.1-1.8C397.4,137.9,396.3,138.5,395.2,138.5z"/>
	<path fill="none" d="M365.8,138.5c-2,0-3.6-1.7-3.6-3.6c0-0.5,0.1-1,0.4-1.5c-0.3,0.5-0.5,1.1-0.5,1.8c0,2,1.7,3.6,3.6,3.6
		c1.6,0,2.9-1.1,3.4-2.5C368.5,137.6,367.2,138.5,365.8,138.5z"/>
	<path fill="none" d="M445.2,159.6c-0.1,0-0.2,0-0.3-0.1C445,159.5,445.1,159.5,445.2,159.6z"/>
	<path fill="none" d="M446.5,159.7C446.5,159.7,446.5,159.7,446.5,159.7c-0.3,0-0.7,0-1.2-0.1C445.8,159.7,446.2,159.7,446.5,159.7z
		"/>
	<path fill="none" d="M370.1,166.2c0,0-0.1,0-0.1,0c-0.2,0-0.3,0.1-0.5,0.1C369.7,166.3,369.9,166.2,370.1,166.2L370.1,166.2z"/>
	<path fill="none" d="M452.3,142.6c0,0.4,0,0.7,0,1.1C452.3,143.3,452.3,143,452.3,142.6c0-7.4-6.1-13.5-13.5-13.5h0
		C446.2,129.1,452.3,135.2,452.3,142.6z"/>
	<path fill="none" d="M377.9,161.5c-1.9,0-3.9-0.4-5.5-1.3c-0.9,0.6-2,0.9-3,0.9c-0.9,0-1.8-0.2-2.5-0.6c0.8,0.4,1.8,0.7,2.7,0.7
		c1.1,0,2.1-0.3,3-0.9c1.6,0.9,3.6,1.3,5.5,1.3c1.7,0,3.3-0.4,4.8-1c-0.1,0-0.1-0.1-0.2-0.1C381.2,161.2,379.5,161.5,377.9,161.5z"
		/>
	<path fill="none" d="M389.7,149.7c0,1-0.1,2.1-0.4,3.1c0.9,0.9,1.5,2.3,1.5,3.6c0,2.9-2.3,5.1-5.1,5.1c-0.9,0-1.7-0.3-2.5-0.7
		c0.7,0.5,1.6,0.8,2.7,0.8c2.9,0,5.1-2.3,5.1-5.1c0-1.4-0.6-2.7-1.5-3.6c0.3-1,0.4-2.1,0.4-3.1c0-4.6-2.6-8.6-6.4-10.6
		C387.2,141.2,389.7,145.2,389.7,149.7z"/>
	<path fill="none" d="M401,112.3c0.1,0,0.1,0,0.2,0c-3.5-0.1-6.6-2.1-8.1-5.1H393c0,0.1,0,0.2-0.1,0.2
		C394.5,110.3,397.5,112.3,401,112.3z"/>
	<path fill="none" d="M422.6,126.8C422.6,126.9,422.7,126.9,422.6,126.8C422.7,126.9,422.7,126.9,422.6,126.8
		C422.7,126.9,422.6,126.8,422.6,126.8z"/>
	<path fill="none" d="M429.1,133.1c2.6-2.5,6-4,9.7-4C434.9,129.1,431.5,130.6,429.1,133.1z"/>
	<path fill="none" d="M423.6,130.8c0.4,0.4,0.9,0.8,1.5,0.9c0,0,0-0.1,0-0.1C424.6,131.5,424,131.2,423.6,130.8z"/>
	<path fill="none" d="M418.1,117.9c0,0.1,0.1,0.1,0.1,0.2c0.3,0.1,0.6,0.1,0.9,0.1c0-0.1,0-0.1,0-0.2
		C418.8,118,418.5,117.9,418.1,117.9z"/>
	<path fill="none" d="M402.7,114.8c1.4-0.4,2.7-1.2,3.8-2.2c0,0-0.1-0.1-0.2-0.1C405.3,113.6,404.1,114.3,402.7,114.8z"/>
	<path fill="none" d="M415.8,112.8c-3,0-5.8-1.4-7.9-3.3c0,0-0.1,0.1-0.1,0.1c2.1,2,4.7,3.2,7.7,3.2
		C415.6,112.8,415.7,112.8,415.8,112.8z"/>
	<path fill="none" d="M369.2,166.4c-1.7,0.4-3.2,1.2-4.5,2.4v0.1C365.9,167.7,367.5,166.8,369.2,166.4z"/>
	<path fill="none" d="M443.9,155.2c1.2,1,2.6,1.6,4.2,1.6c0.3,0,0.6-0.1,0.9-0.1c-0.3,0.7-0.4,1.5-0.4,2.2c0,3.7,3.1,6.8,6.8,6.8
		c1.9,0,3.4-0.6,4.5-1.8c-1.2,1.1-2.7,1.7-4.4,1.7c-3.7,0-6.8-3.1-6.8-6.8c0-0.7,0.1-1.5,0.4-2.2c-0.3,0.1-0.6,0.1-0.9,0.1
		c-1.7,0-3-0.7-4.2-1.6c1.1-0.5,2.1-1.1,3.1-1.8c-1,0.7-2,1.3-3.2,1.7c-0.7,0.3-1.8,0.6-2.8,0.9c-1.2,0.2-2.3,0.4-2.4,0.1
		c0,0,0-0.1,0-0.1c-0.1,0.1-0.1,0.2-0.1,0.3c0.2,0.3,1.2,0.2,2.4-0.1c0.2,0.6,0.5,1,0.9,1.5c-0.3-0.4-0.6-0.9-0.8-1.5
		C442.1,155.9,443.2,155.5,443.9,155.2z"/>
	<path fill="none" d="M429.1,133.1L429.1,133.1c-1.2-1.1-2-2.7-2.1-4.5c-1.5-0.4-2.7-1.8-2.7-3.4c0-0.4,0.2-0.9,0.3-1.3
		c-2.3-1.7-3.6-4.6-3.6-7.7c0-0.5,0-0.9,0-1.2c-2,0-3.6-0.9-4.8-2.2c-0.1,0-0.2,0-0.3,0c1.2,1.3,2.9,2.2,4.8,2.2c0,0.5,0,0.8,0,1.2
		c0,3.1,1.4,5.8,3.6,7.7c-0.2,0.3-0.3,0.9-0.3,1.3c0,1.6,1.2,3,2.7,3.4c0,1.8,0.9,3.3,2.1,4.5c-0.6,0.6-1.3,1.5-1.9,2.5
		c0.1,0.1,0.1,0.2,0.2,0.2c0-0.1,0.1-0.1,0.1-0.2C427.8,134.6,428.5,133.7,429.1,133.1z"/>
	<path fill="none" d="M391.3,110.4c-0.4,2-1.7,3.6-3.6,4.3c1.9-0.6,3.5-2.2,3.9-4.2c-0.1-0.1-0.1-0.2-0.2-0.3
		C391.5,110.3,391.4,110.4,391.3,110.4z"/>
	<path fill="none" d="M382.8,110.6c1.2,0.9,2.5,1.5,4.1,1.5c0,0,0.1,0,0.1,0c-1.6,0-3.1-0.6-4-1.6
		C382.9,110.5,382.9,110.6,382.8,110.6z"/>
	<path fill="none" d="M438.9,91.2c-0.2-0.1-0.2-0.1-0.3-0.1C438.7,91.2,438.8,91.3,438.9,91.2C438.8,91.3,438.9,91.2,438.9,91.2z"/>
	<path fill="none" d="M437.2,131.7c-3.3,0.3-5.7,2-7.5,3.9c1.7-1.9,4.1-3.5,7.4-3.7c6.7-0.4,12.1,5.4,12.1,12.1
		c0,1.3-0.2,2.4-0.7,3.4c0.5-1.1,0.8-2.2,0.8-3.6C449.3,137.1,443.9,131.3,437.2,131.7z"/>
	<path fill="none" d="M425.1,142.6c-1.1,0,0.1-3.6,1.8-6.5c-1.9,3-3.1,6.7-1.9,6.7c0.2,0,0.5-0.4,0.9-1.1
		C425.6,142.3,425.3,142.6,425.1,142.6z"/>
	<path fill="none" d="M382.6,138.8c0.2,0.1,0.3,0.2,0.5,0.2C383,139,382.8,138.9,382.6,138.8z"/>
	<path fill="none" d="M449.2,176c-0.3,0.3-0.5,0.6-0.6,0.9C448.8,176.6,449.1,176.3,449.2,176z"/>
	<path fill="none" d="M419.2,188.5c1.6,0,3.1,0.6,4.3,1.3c0,0,0-0.1,0-0.1C422.3,188.9,420.8,188.5,419.2,188.5
		C419.3,188.5,419.3,188.5,419.2,188.5z"/>
	<path fill="none" d="M379.7,450.4v14.2h0.1v0.7h0v-0.7v-14.1c0-5.5,2.4-10.4,6.4-14.3c1.4-1.3,3-2.5,4.7-3.6
		c-1.7,1-3.3,2.2-4.7,3.5C382.2,440,379.8,444.9,379.7,450.4L379.7,450.4z"/>
	<path fill="none" d="M430.6,178.4c1.7,0,3.2,0.4,4.5,1.3c0,0,0,0,0,0C433.7,178.8,432.3,178.4,430.6,178.4
		C430.7,178.4,430.7,178.4,430.6,178.4z"/>
	<path fill="none" d="M398.3,195.9c0.8,0.1,1.7,0.2,2.5,0.3C400,196.1,399.1,196,398.3,195.9z"/>
	<path fill="none" d="M449.8,181.7c-6.5,0-12.6,2.1-17.7,5.5l-20.4,11.7c0,0.1,0,0.1,0.1,0.2l-17.7,10.1c1.9-4.3,4.3-8.6,6.8-12.8
		c0.3-0.4,0.6-0.9,0.9-1.3c7.1-12.4,20.4-20.7,35.7-20.7c1.2,0,2.5,0,3.7,0.1c0.6,0,1-0.1,1.5-0.1c1.5,0,2.8,0.3,4,1
		c0.7,0.3,1.3,0.9,1.9,1.5c-0.5-0.6-1.2-1.2-1.8-1.5c0.8,0.2,1.7,0.3,2.4,0.6c0.2-0.3,0.3-0.5,0.3-0.8c-0.1,0.2-0.2,0.4-0.4,0.6
		c-0.8-0.2-1.5-0.5-2.4-0.6c-1.2-0.6-2.5-1-4-1c-0.6,0-1,0-1.6,0.1c-1.2-0.1-2.4-0.1-3.7-0.1c-15.2,0-28.6,8.3-35.7,20.7
		c-0.3,0.4-0.6,0.9-0.9,1.3c-2.7,4-4.9,8.4-6.9,12.8l-27.8,15.9v0l-9.7,5.5l0.1,0.4l10-5.7l27.8-15.9l17.7-10.1l20.3-11.7
		c5-3.6,11.1-5.5,17.7-5.5c8.7,0,16.5,3.5,22.2,9.2C466.5,185.3,458.6,181.7,449.8,181.7z"/>
	<polygon fill="none" points="381.9,190.4 381.9,190.4 381.9,190.4 	"/>
	<path fill="none" d="M381.9,190.4c5,2.7,10.4,4.5,16,5.4C392.2,194.9,386.9,193,381.9,190.4z"/>
	<path fill="none" d="M366.1,224.9c4.3-12.6,9.5-24.6,15.8-34.4C375.6,200.2,370.4,212.2,366.1,224.9z"/>
	<path fill="none" d="M447.5,254c-1.5,0-2.8-0.4-4-1.2c1.2,0.8,2.7,1.3,4.2,1.3c2.1,0,4-0.9,5.5-2.2c-0.1,0-0.1-0.1-0.2-0.1
		C451.5,253.1,449.6,254,447.5,254z"/>
	<path fill="none" d="M391,432.5c0.5-0.3,0.9-0.5,1.4-0.8C392,432,391.5,432.3,391,432.5z"/>
	<path fill="none" d="M393.9,431.1c0.1,0,0.2-0.1,0.3-0.1C394.1,431,394,431,393.9,431.1z"/>
	<path fill="none" d="M378.9,181.9c-1.7,2-4.3,3.3-7.3,3.3c-5.4,0-9.7-4.3-9.7-9.7c0-1.9,0.6-3.7,1.6-5.3c-1.1,1.5-1.7,3.4-1.7,5.5
		c0,5.3,4.1,9.8,9.5,9.8C374.4,185.5,377.1,184.1,378.9,181.9z"/>
	<path fill="none" d="M396.4,430.1C396.4,430.1,396.5,430.1,396.4,430.1C396.5,430.1,396.4,430.1,396.4,430.1z"/>
	<path fill="none" d="M398.5,429.5c0.5-0.1,1-0.2,1.5-0.3C399.5,429.2,399,429.3,398.5,429.5z"/>
	<path fill="#3A3A3A" d="M339.2,285.2c-3.2,16.7-4.5,28.4-4.5,28.4c-0.6,2.1-0.4,4.2,0.3,6.1c1.8,4,6.4,6.6,11,5.2l3.4-0.4
		c-0.6-3.7-1-7.6-1-11.5c0.1-0.9,0.1-2,0.1-3c-0.1-0.7-0.1-1.5,0.1-2.4c0,0,1.2-11.3,3.9-27.3l-12.7,4.7L339.2,285.2z"/>
	<path fill="#3A3A3A" d="M356.4,230.4l9.7-5.5v0l0,0c0,0,0,0,0,0c4.3-12.7,9.5-24.6,15.8-34.4c0,0,0,0,0-0.1c0,0,0,0,0,0
		c-1.2-0.6-2.4-1.3-3.8-1.9c-1.9,1.2-4.2,1.8-6.6,1.8c-0.9,1.4-1.7,2.9-2.6,4.3c-5.5,9.3-10,20.3-14,31.7l0.1,0.3L356.4,230.4z"/>
	<path fill="#80ADBF" d="M394.7,376.5c-2-0.7-4-1.4-6-2.3c-2.9-1.3-5.7-2.8-8.4-4.5V431c0.7,0.5,1.3,1,1.9,1.5
		c1.5,1.1,2.9,2.3,4,3.6c1.4-1.3,3-2.4,4.7-3.5c0.1,0,0.1-0.1,0.2-0.1c0.5-0.3,0.9-0.5,1.4-0.8c0.5-0.2,1-0.5,1.5-0.7
		c0.1,0,0.2-0.1,0.3-0.1c0.7-0.3,1.4-0.6,2.1-0.8c0,0,0.1,0,0.1,0c0.7-0.2,1.3-0.4,2-0.6c0.5-0.1,1-0.2,1.5-0.3c0.1,0,0.2,0,0.3-0.1
		c1.3-0.3,2.5-0.5,3.8-0.6v-49.6h0C400.9,378.3,397.7,377.5,394.7,376.5z"/>
	<path fill="#A3CFE5" d="M351.3,314.5c-1.4-1-2.3-2.5-2.6-4.1c0,0.8-0.1,1.6-0.1,2.5c0,3.9,0.3,7.7,1,11.5
		c3.3,19.2,14.7,35.6,30.7,45.4l0,0c2.7,1.7,5.5,3.2,8.4,4.5c1.9,0.9,3.9,1.6,6,2.3c3.1,1,6.2,1.8,9.4,2.4h0c3.7,0.6,7.6,1,11.5,1
		c4.6,0,8.9-0.4,13.3-1.3v58.8c0.3,0,0.4-0.1,0.7-0.1h22.3c0.3,0,0.4,0,0.7,0.1v-68.6c16.8-11.2,28.1-29.6,29.6-50.9l-27.5,1.5
		l-11,4.1l-4.9,1.9C409.7,336.5,376.9,332.5,351.3,314.5z"/>
	<path fill="#F2F2F2" d="M400.8,196.2c-0.8-0.1-1.7-0.2-2.5-0.3c-0.1,0-0.2,0-0.4-0.1c-5.7-0.9-11.1-2.8-16-5.4v0c0,0,0,0,0,0.1
		c-6.3,9.8-11.5,21.9-15.8,34.4c0,0,0,0,0,0l0,0l27.8-15.9C395.9,204.6,398.1,200.2,400.8,196.2z"/>
	<path fill="#F2F2F2" d="M361.6,276.5l-8.5,3.6l-0.5,0.2c-2.7,16.1-3.9,27.3-3.9,27.3c-0.1,0.7-0.1,1.6-0.1,2.4
		c0,0.1,0.1,0.2,0.1,0.4c0.4,1.7,1.2,3.1,2.6,4.1c25.6,18,58.4,22,87.5,10.9l4.9-1.9l10.9-4.2l-54.8,2.8c-4.2,0.6-8-2.4-8.6-6.6
		l-4-47.6l0,0L361.6,276.5z"/>
	<path fill="#FFD385" d="M392.2,120.2l22.1-4.4c0,0-0.1,0-0.1,0c-2.9,0-5.7-1.3-7.7-3.2c-1,0.9-2.3,1.7-3.8,2.2c-1,0.3-2,0.5-3,0.5
		c-3.5,0-6.4-2-8-4.8c-0.5,2-2,3.5-3.9,4.2c-0.7,0.3-1.4,0.4-2.2,0.4c-1.7,0-3.2-0.6-4.2-1.6c-0.4,0.1-0.7,0.3-1.1,0.4
		c-1.3,0.5-2.7,0.7-4.2,0.7c-2.6,0-4.9-0.8-6.8-2.2c-0.9,1.2-2.3,2.1-4,2.1c-0.3,0-0.6-0.1-0.8-0.1c-0.8-0.1-1.9-0.5-2.7-1.2
		c-0.9,1.5-1.9,3.1-2.8,4.8l11.1,2.2C377.5,121.7,384.9,121.7,392.2,120.2z"/>
	<path fill="#FFD385" d="M381.9,190.4C381.9,190.4,381.9,190.4,381.9,190.4c5,2.6,10.3,4.5,16,5.4c0.1,0,0.2,0,0.4,0.1
		c0.8,0.1,1.7,0.2,2.5,0.3c0.3-0.4,0.6-0.9,0.9-1.3c7.1-12.4,20.5-20.7,35.7-20.7c1.3,0,2.5,0,3.7,0.1c0.6-0.1,1-0.1,1.6-0.1
		c1.5,0,2.8,0.4,4,1c0.9,0.1,1.6,0.4,2.4,0.6c0.2-0.2,0.3-0.4,0.4-0.6c0-0.2,0.1-0.3,0.1-0.5c0.3-0.4,0.7-0.7,1.1-1
		c1.1-1.6,2.1-3.3,3.1-5.1c-3.7,0-6.8-3.1-6.8-6.8c0-0.7,0.1-1.5,0.4-2.2c-0.3,0.1-0.5,0.1-0.8,0.1c0,0,0,0-0.1,0c0,0,0,0,0,0
		c-0.3,0-0.7,0-1.2-0.1c0,0-0.1,0-0.1,0c-0.1,0-0.2,0-0.3-0.1c-1.1-0.3-2.2-0.8-3.1-1.9c-0.3-0.4-0.6-0.9-0.9-1.5
		c-1.2,0.3-2.2,0.4-2.4,0.1c-0.1-0.1,0-0.2,0.1-0.3c-0.1-1.1,7.4-3.2,9.9-8.5c0.4-1,0.7-2.1,0.7-3.4c0-6.7-5.4-12.5-12.1-12.1
		c-3.3,0.2-5.6,1.8-7.4,3.7c-2,2.2-3.1,4.8-3.9,6.1c-0.4,0.7-0.6,1.1-0.9,1.1c-1.2,0,0-3.8,1.9-6.7c0.1-0.1,0.1-0.2,0.2-0.3
		c-0.1-0.1-0.1-0.1-0.2-0.2c0,0,0,0,0,0c-1.1-1-1.7-2.3-1.8-3.9c-0.6-0.2-1.1-0.5-1.5-0.9c-0.7-0.6-1.2-1.6-1.2-2.6
		c0-0.4,0.2-0.9,0.3-1.3c0,0-0.1-0.1-0.1-0.1c-2.2-1.7-3.5-4.6-3.5-7.6c0-0.4,0-0.7,0-1c-0.3,0-0.6,0-0.9-0.1c0.2,0.6,0.3,1.3,0.3,2
		c0,0.3-0.1,0.7-0.1,1c0,0.2-0.1,0.4-0.1,0.6c0.1,0.5,0.2,1,0.2,1.4c0,1.1-0.3,2.1-0.7,2.9c-0.4,1.1-1.1,1.8-1.9,1.9l-19.1,3.8
		c1.2,0.5,2,1.8,2,3.2c0,0.8-0.3,1.5-0.7,2.1c-0.6,1-1.8,1.8-3.1,1.8c-2,0-3.6-1.6-3.6-3.6c0-0.8,0.3-1.7,0.8-2.3
		c0.1-0.1,0.2-0.2,0.3-0.4l-0.6,0.1c-7.3,1.5-14.7,1.5-22,0l-1.6-0.3c0.7,0.7,1.1,1.6,1.1,2.6c0,0.5-0.1,1-0.3,1.4
		c-0.5,1.4-1.8,2.5-3.4,2.5c-1.9,0-3.6-1.6-3.6-3.6c0-0.7,0.2-1.3,0.5-1.8c0.4-0.8,1.1-1.5,1.9-1.9l-10.2-2c-1,4.2-1.6,8.6-1.6,13.3
		c0,9.2,2.4,17.9,6.4,25.5c-1.3,2.2-2.2,4.8-2.2,7.6c0,8,6.4,14.4,14.4,14.4c0,0,0,0,0.1,0c0,0,0.1,0,0.1,0c2.4,0,4.7-0.6,6.6-1.8
		C379.5,189.1,380.7,189.8,381.9,190.4z M365.9,150.7c0-0.3,0-0.7,0-1c0-6.5,5.3-11.9,11.9-11.9c1.7,0,3.3,0.4,4.8,1
		c0.2,0.1,0.3,0.2,0.5,0.2c0.1,0.1,0.2,0.1,0.3,0.2c3.8,2,6.4,6,6.4,10.6c0,1-0.1,2.1-0.4,3.1c0.9,0.9,1.5,2.2,1.5,3.6
		c0,2.8-2.2,5.1-5.1,5.1c-1,0-1.9-0.3-2.7-0.8c-0.1-0.1-0.2-0.1-0.4-0.2c-1.5,0.6-3.1,1-4.8,1c-1.9,0-3.9-0.4-5.5-1.3
		c-0.9,0.6-1.9,0.9-3,0.9c-1,0-1.9-0.3-2.7-0.7c-1.9-0.9-3.2-2.9-3.4-5.2C363.5,153.4,364.4,151.7,365.9,150.7z M371.3,185.5
		c-5.4,0-9.5-4.5-9.5-9.8c0-2.1,0.6-3.9,1.7-5.5c0.4-0.5,0.8-1,1.2-1.5v0.1c1.3-1.3,2.8-2.1,4.5-2.4c0.1,0,0.2,0,0.3-0.1
		c0.2,0,0.3-0.1,0.5-0.1c0,0,0.1,0,0.1,0v-0.1c0.4-0.1,0.9-0.1,1.3-0.1c5.4,0,9.7,4.3,9.7,9.7c0,2.4-0.8,4.5-2.2,6.2
		C377.1,184.1,374.4,185.5,371.3,185.5z"/>
	<path fill="#3A3A3A" d="M481.2,236.1c-1.5,2.1-3.9,3.4-6.6,3.4c0,0,0,0-0.1,0c0,0.3,0.1,0.6,0.1,0.9c0,4.5-3.6,8-8,8
		c-0.1,0-0.3,0-0.3,0c-1,3.3-4,5.7-7.6,5.7c-1.3,0-2.6-0.4-3.7-1c-0.7-0.3-1.3-0.7-1.8-1.2c-1.5,1.3-3.4,2.2-5.5,2.2
		c-1.6,0-3-0.5-4.2-1.3c-1.2-0.7-2.2-1.7-2.8-2.9l-1.8,0.6l-0.5,0.2c-0.4,0.2-0.7,0.3-1,0.3l-0.7,0.2l-49.4,16.7l4,47.5
		c0.6,4.2,4.5,7.1,8.6,6.6l54.8-2.8l27.5-1.5l6.7-0.3c3.7-0.4,6.6-3.4,6.8-7.1L481.2,236.1z"/>
	<path fill="#3A3A3A" d="M401.8,195.1c-0.3,0.4-0.6,0.9-0.9,1.3c-2.5,4.2-4.9,8.5-6.8,12.8l17.7-10.1c0-0.1,0-0.1-0.1-0.2l-0.1,0.1
		c-0.3-0.9-0.4-1.6-0.4-2.5c0-4.4,3.5-8,8-8c0,0,0,0,0,0c0,0,0,0,0.1,0c1.5,0,3,0.4,4.2,1.2c-0.6-1-0.9-2.1-0.9-3.3c0-4.4,3.5-8,8-8
		c0,0,0,0,0,0c0,0,0,0,0.1,0c1.6,0,3,0.4,4.4,1.3c0.9-2.7,3.2-4.6,6-5.2c0,0,0,0,0.1,0c-1.2-0.1-2.5-0.1-3.7-0.1
		C422.2,174.4,408.9,182.7,401.8,195.1z"/>
	<path fill="#3A3A3A" d="M448.6,176.9c0.1-0.3,0.3-0.6,0.6-0.9c-0.7-0.3-1.6-0.4-2.4-0.6C447.4,175.7,448.1,176.3,448.6,176.9z"/>
	<path fill="#4C3C20" d="M379.7,464.6v-14.2h0.1c0-5.5,2.4-10.4,6.4-14.3c-1.1-1.3-2.5-2.5-4-3.6c-0.6-0.5-1.3-0.9-2-1.3
		c-4.3-2.5-9.7-4-15.3-4c-14.7,0-26.7,9.8-26.7,22v15.5h0.1v-0.1H379.7z"/>
	<path fill="#BCA888" d="M394.4,471.7c0.7,0.1,1.5,0.1,2.2-0.3l1.2-0.6l-0.9-0.4L394.4,471.7z"/>
	<path fill="#BCA888" d="M405.9,471.7c0.7,0.1,1.5,0.1,2.2-0.3l1.2-0.6l-0.9-0.4L405.9,471.7z"/>
	<path fill="#BCA888" d="M383.7,471.4c-0.3,0.1-0.6,0.3-0.9,0.3c0.7,0.3,1.6,0.3,2.4-0.1l1.2-0.6l-0.9-0.4L383.7,471.4z"/>
	<path fill="#BCA888" d="M379.6,465.9v-0.6h0.2v-0.7h-0.1h-41.4v0.1v3.6c0,1.6,2.2,2.7,3.9,1.6l1.8-1l4.3,2.5c0.9,0.4,1.9,0.4,2.8,0
		l4.3-2.5l4.3,2.5c0.9,0.4,1.9,0.4,2.8,0l4.3-2.5l4.3,2.5c0.9,0.4,1.9,0.4,2.8,0l4.3-2.5l1.6,1c0-0.1,0-0.1,0-0.3v-3.7h0v0H379.6z"
		/>
	<polygon fill="#D7EDF4" points="429.5,437.4 429.5,437.4 429.5,437.4 	"/>
	<path fill="#D7EDF4" d="M433.2,450.4h21.2c0.1-0.3,0.1-0.5,0.1-0.8v-9.2c0-1.3-0.9-2.4-2.1-2.7c-0.3,0-0.4-0.1-0.7-0.1h-22.2v-0.2
		c-0.3,0-0.4,0-0.7,0.1c-0.3,0-0.4,0.1-0.7,0.3c0,0,0.1,0.1,0.1,0.1C431.2,441.4,433,445.8,433.2,450.4z"/>
	<path fill="#68542B" d="M398.5,429.5c-0.7,0.2-1.3,0.4-2,0.6c0,0-0.1,0-0.1,0c-0.7,0.2-1.4,0.5-2.1,0.8c-0.1,0-0.2,0.1-0.3,0.1
		c-0.5,0.2-1,0.5-1.5,0.7c-0.5,0.3-1,0.5-1.4,0.8c-0.1,0-0.1,0.1-0.2,0.1c-1.7,1-3.3,2.2-4.7,3.6c-4,3.9-6.4,8.8-6.4,14.3v14.1v0.7
		h79.6v0.6h0.2v-12.4c0-1.6-1.3-3.1-3.1-3.1h-1.9h-0.2h-21.2c-0.2-4.6-2-9-5-12.5c0,0-0.1-0.1-0.1-0.1c-4.8-5.6-12.8-9.3-21.6-9.3
		c-0.7,0-1.5,0-2.4,0.1c-1.3,0.1-2.6,0.2-3.8,0.5c-0.1,0-0.2,0-0.3,0.1C399.5,429.2,399,429.3,398.5,429.5z"/>
	<path fill="#E5CDA1" d="M379.8,465.3L379.8,465.3h-0.2v0.6h0.2v0v3.7c0,0.1,0,0.1,0,0.3c0.1,1.2,1.6,1.9,3,1.6
		c0.3,0,0.6-0.1,0.9-0.3l1.8-1l0.9,0.4l3.4,1.9c0.9,0.4,1.9,0.4,2.8,0l1.8-1l2.4-1.5l0.9,0.4l3.4,1.9c0.9,0.4,1.9,0.4,2.8,0l1.8-1
		l2.4-1.5l0.9,0.4l3.4,1.9c0.9,0.4,1.9,0.4,2.8,0l4.3-2.5l4.3,2.5c0.9,0.4,1.9,0.4,2.8,0l4.3-2.5l4.3,2.5c0.9,0.4,1.9,0.4,2.8,0
		l4.3-2.5l4.3,2.5c0.9,0.4,1.9,0.4,2.8,0l4.3-2.5l1.8,1c1.6,0.9,3.9,0,3.9-1.6v-3.1v-0.6H379.8z"/>
	<path fill="#444444" d="M362.6,133.4c-0.2,0.5-0.4,1-0.4,1.5c0,1.9,1.6,3.6,3.6,3.6c1.4,0,2.7-0.9,3.3-2.2c0.2-0.4,0.3-0.9,0.3-1.4
		c0-1-0.4-1.9-1.1-2.6c-0.2-0.1-0.3-0.3-0.5-0.4l-2.8-0.6c-0.2,0.1-0.4,0.1-0.5,0.2C363.6,131.9,363,132.6,362.6,133.4z"/>
	<path fill="#444444" d="M391.6,134.9c0,1.9,1.6,3.6,3.6,3.6c1.1,0,2.2-0.6,2.9-1.5c0.5-0.6,0.7-1.3,0.7-2.1c0-1.4-0.8-2.7-2-3.2
		c-0.1-0.1-0.3-0.1-0.4-0.2l-3.6,0.7c-0.1,0.1-0.2,0.2-0.3,0.3c-0.1,0.1-0.2,0.2-0.3,0.4C391.8,133.5,391.6,134.1,391.6,134.9z"/>
	<path fill="#E2BB7D" d="M366.9,160.5c0.8,0.4,1.6,0.6,2.5,0.6c1,0,2.1-0.3,3-0.9c1.6,0.9,3.6,1.3,5.5,1.3c1.6,0,3.3-0.3,4.8-1
		c0.1,0,0.1,0.1,0.2,0.1c0.1,0.1,0.2,0.1,0.4,0.2c0.8,0.4,1.6,0.7,2.5,0.7c2.8,0,5.1-2.2,5.1-5.1c0-1.3-0.6-2.7-1.5-3.6
		c0.3-1,0.4-2.1,0.4-3.1c0-4.5-2.5-8.5-6.2-10.5c-0.1-0.1-0.2-0.1-0.3-0.2c-0.2-0.1-0.3-0.2-0.5-0.2c-1.5-0.7-3.1-1-4.8-1
		c-6.6,0-11.9,5.4-11.9,11.9c0,0.3,0,0.7,0,1c-1.5,1-2.4,2.7-2.4,4.6C363.6,157.6,365,159.6,366.9,160.5z"/>
	<path fill="#444444" d="M371.6,185.2c3,0,5.6-1.3,7.3-3.3c1.4-1.7,2.2-3.8,2.2-6.2c0-5.4-4.3-9.7-9.7-9.7c-0.4,0-0.9,0-1.3,0.1v0.1
		v0v7.9v0.1v0.1h-5.4v-0.2v-5.2v-0.1v-0.1c-0.5,0.5-0.9,1-1.2,1.5c-1,1.5-1.6,3.4-1.6,5.3C361.9,180.9,366.2,185.2,371.6,185.2z"/>
	<path fill="#FFFFFF" d="M364.7,174.1v0.2h5.4v-0.1v-0.1v-7.9c-0.2,0-0.4,0.1-0.6,0.1c-0.1,0-0.2,0-0.3,0.1
		c-1.7,0.4-3.3,1.3-4.5,2.5V174.1z"/>
	<path fill="#D38A54" d="M438.8,91.3c0,0-0.1-0.1-0.2-0.2c0,0.1,0,0.3,0,0.4C438.6,91.5,438.7,91.4,438.8,91.3z"/>
	<path fill="#D38A54" d="M459.9,163.9c-1.1,1.2-2.6,1.8-4.5,1.8c-3.7,0-6.8-3.1-6.8-6.8c0-0.7,0.1-1.5,0.4-2.2
		c-0.3,0-0.6,0.1-0.9,0.1c-1.6,0-3-0.6-4.2-1.6c-0.7,0.3-1.8,0.7-2.8,0.9c0.2,0.6,0.5,1,0.8,1.5c0.8,1.1,2,1.7,3.1,1.9
		c0.1,0,0.2,0,0.3,0.1c0,0,0.1,0,0.1,0c0.4,0.1,0.8,0.1,1.2,0.1c0,0,0,0,0.1,0c0.3,0,0.5,0,0.8-0.1c0,0,0.1,0,0.1,0
		c-0.3,0.7-0.4,1.5-0.4,2.2c0,3.7,3.1,6.8,6.8,6.8c3.2,0,6-2.3,6.6-5.3C460.4,163.5,460.1,163.7,459.9,163.9z"/>
	<path fill="#D38A54" d="M364.8,114.5c2,0.1,3.5-0.8,4.4-2.2c0.1,0.1,0.1,0.1,0.2,0.2c1.9,1.4,4.2,2.2,6.8,2.2
		c1.5,0,2.9-0.3,4.2-0.7c0.4-0.1,0.7-0.3,1-0.5c0,0,0,0,0,0c1,1,2.5,1.6,4.2,1.6c0.8,0,1.5-0.1,2.2-0.4c1.9-0.7,3.2-2.3,3.6-4.3
		c-1.1,1-2.5,1.7-4.1,1.7c-0.1,0-0.1,0-0.2,0c0,0-0.1,0-0.1,0c-1.6,0-2.9-0.6-4.1-1.5c-1.5,0.7-3.2,1.1-5,1.1c-0.1,0-0.1,0-0.2,0
		c0,0-0.1,0-0.1,0c-2.6,0-4.9-0.8-6.8-2.3c-0.9,1.4-2.4,2.3-4.1,2.3c0,0-0.1,0-0.1,0c-0.1,0-0.1,0-0.2,0c-2.8,0-5.1-2.2-5.1-5.1
		c0,0,0,0,0-0.1c0-0.2-0.1-0.4-0.1-0.5c0-0.4,0.1-0.9,0.2-1.3c-2.7,3.3-1.7,6.3,0.1,8.2c0.1,0.1,0.3,0.2,0.4,0.4
		c0.9,0.7,1.9,1.1,2.7,1.2C364.6,114.5,364.7,114.5,364.8,114.5z"/>
	<path fill="#D38A54" d="M426.7,128.6c-1.5-0.4-2.7-1.8-2.7-3.4c0-0.4,0.1-1,0.3-1.3c-2.2-1.9-3.6-4.6-3.6-7.7c0-0.4,0-0.7,0-1.2
		c-1.9,0-3.6-0.9-4.8-2.2c0,0-0.1,0-0.1,0c-0.1,0-0.2,0-0.3,0c-3,0-5.7-1.2-7.7-3.2c-1.7,1.7-4,2.7-6.5,2.7c0,0-0.1,0-0.1,0
		c-0.1,0-0.1,0-0.2,0c-3.5,0-6.5-2-8.1-4.9c-0.2,1.1-0.7,2-1.4,2.8c0.1,0.1,0.1,0.2,0.2,0.3c1.6,2.8,4.5,4.8,8,4.8c1,0,2-0.2,3-0.5
		c1.4-0.5,2.6-1.2,3.6-2.3c0,0,0.1,0.1,0.2,0.1c2.1,1.8,4.8,3.2,7.7,3.2c0,0,0.1,0,0.1,0l1-0.2h0.1c1-0.3,1.9,0.6,2.5,1.8
		c0.1,0.2,0.2,0.3,0.2,0.5c0.3,0.1,0.6,0.1,1,0.1c0,0.1,0,0.1,0,0.2c0,0.3,0,0.6,0,1c0,3.1,1.3,5.9,3.5,7.6c0,0,0.1,0.1,0.1,0.1
		c0,0,0,0,0,0c-0.1,0.4-0.3,0.9-0.3,1.3c0,1,0.5,1.9,1.2,2.6c0.4,0.4,0.9,0.7,1.5,0.8c0,0,0,0.1,0,0.1c0.1,1.5,0.7,2.9,1.8,3.9
		c0,0,0,0,0,0c0.6-1,1.3-1.9,1.9-2.5C427.6,131.9,426.7,130.4,426.7,128.6z"/>
	<path fill="#F7A561" d="M361.2,106.5c0.6,3,2.6,5.1,5.3,5.1c0,0,0.1,0,0.1,0c1.7,0,3.2-0.8,4.1-2.3c0,0,0.1-0.1,0.1-0.1
		c1.9,1.5,4.2,2.4,6.8,2.4c0.1,0,0.1,0,0.2,0c1.8,0,3.5-0.4,5-1.1c0.1,0,0.1,0,0.2-0.1c1,1,2.4,1.6,4,1.6c0.1,0,0.1,0,0.2,0
		c1.6,0,3.1-0.6,4.1-1.7c0.1-0.1,0.1-0.1,0.2-0.2c0.7-0.8,1.2-1.7,1.4-2.8c0-0.1,0-0.2,0.1-0.2h0.1c1.5,3,4.5,5,8.1,5.1
		c0,0,0.1,0,0.1,0c2.4,0,4.8-1,6.5-2.7c0,0,0.1-0.1,0.1-0.1c2.1,1.9,4.9,3.3,7.9,3.3c0,0,0.1,0,0.1,0c0.1,0,0.2,0,0.3,0
		c1.2,1.3,2.8,2.2,4.8,2.2c0,0.3,0,0.7,0,1.2c0,3.1,1.3,6,3.6,7.7c-0.1,0.4-0.3,0.9-0.3,1.3c0,1.6,1.2,3,2.7,3.4
		c0.1,1.8,0.9,3.4,2.1,4.5c0,0,0,0,0,0c2.4-2.5,5.8-4,9.7-4c0,0,0,0,0,0h0h0c7.4,0,13.5,6.1,13.5,13.5c0,0.4,0,0.7,0,1.1
		c-0.3,4-2.2,7.4-5.2,9.6c-0.9,0.7-2,1.3-3.1,1.8c1.2,0.9,2.5,1.6,4.2,1.6c0.3,0,0.6,0,0.9-0.1c-0.3,0.7-0.4,1.5-0.4,2.2
		c0,3.7,3.1,6.8,6.8,6.8c1.7,0,3.3-0.6,4.4-1.7c0.2-0.2,0.4-0.4,0.6-0.7c0-0.1,0.1-0.1,0.2-0.2c1-1.2,1.6-2.7,1.6-4.5
		c0-1.6-0.6-3.1-1.6-4.3c2.2-1.3,3.7-3.9,3.7-6.7c0-2.1-0.7-3.9-2.1-5.2c4-0.7,7-4.2,7-8.5c0-2.5-1-4.8-2.8-6.3
		c2.1-1.6,3.4-4.2,3.4-7.1c0-2.9-1.5-5.7-3.6-7.3c0.1-0.4,0.1-0.9,0.1-1.3c0-2.1-1.5-3.7-3.4-4.2c0.9-1.5,1.3-3.1,1.3-4.9
		c0-5.1-3.9-9.2-8.8-10c-1.2-2.7-3.9-4.5-7-4.6c0.1-0.4,0.3-0.9,0.3-1.3c0-2.2-1.8-4-4-4c0,0,0,0-0.1,0c-0.1-3.3-2.8-6-6.1-6
		c-1.5,0-2.8,0.6-3.9,1.3c-2.7-2.8-6.4-4.6-10.6-4.6c-3.4,0-6.6,1.2-8.9,3.1c-0.7-1-1.9-1.6-3.3-1.6c-1.2,0-2.2,0.4-3,1.3
		c-2.7-2.7-6.3-4.3-10.3-4.3c-5.7,0-10.6,3.3-13,8c-0.3,0-0.6,0-0.9,0c-1.6,0-3.3,0.4-4.6,1.3c-0.7-0.4-1.8-0.6-2.7-0.6
		c-3.3,0-6,2.7-6,6c0,0.7,0.1,1.6,0.4,2.2c-0.7,0.4-1.5,0.9-2.2,1.5c-0.7-0.3-1.5-0.4-2.2-0.4c-3.3,0-6,2.7-6,6
		c0,2.2,1.3,4.3,3.3,5.2c-1,0.3-1.9,1-2.7,1.9c-0.3,0.4-0.6,1-0.7,1.5c-0.1,0.4-0.2,0.8-0.2,1.3
		C361.1,106.2,361.2,106.4,361.2,106.5z M438.6,91.1c0.1,0,0.1,0,0.3,0.1c0,0-0.1,0.1-0.1,0.1c-0.1,0.1-0.2,0.2-0.3,0.3
		c0,0,0,0-0.1,0.1C438.5,91.6,438.6,91.4,438.6,91.1z"/>
	<path fill="#E8BF7E" d="M438.7,156c0.1,0.3,1.2,0.1,2.4-0.1c1-0.3,2.1-0.6,2.8-0.9c1.1-0.4,2.2-1,3.2-1.7c3-2.2,4.9-5.7,5.2-9.6
		c0-0.3,0-0.7,0-1.1c0-7.4-6.1-13.5-13.5-13.5h0c0,0,0,0,0,0c-3.7,0-7.1,1.5-9.7,4c0,0,0,0,0,0l0,0c-0.6,0.6-1.3,1.5-1.9,2.5
		c0,0.1-0.1,0.1-0.1,0.2c-0.1,0.1-0.1,0.2-0.2,0.3c-1.7,2.9-3,6.5-1.8,6.5c0.2,0,0.5-0.3,0.8-0.9c0.8-1.3,1.9-3.9,3.9-6.1
		c1.7-1.9,4.1-3.6,7.5-3.9c6.7-0.4,12.1,5.4,12.1,12.1c0,1.3-0.3,2.5-0.8,3.6c-2.5,5.3-10,7.4-9.9,8.5
		C438.7,155.9,438.7,156,438.7,156z"/>
	<path fill="#D19262" d="M417.8,126c0.4-0.8,0.7-1.8,0.7-2.9c0-0.5-0.1-1-0.2-1.4c-0.3,1.3-0.8,2.2-1.5,2.7c-0.3,0.3-0.6,0.5-1,0.6
		l-23.8,4.6c-3.7,0.8-7.3,1.1-11,1.1s-7.4-0.4-11-1.1l-24-4.6c-1-0.3-1.9-1.3-2.2-3c0,0.3,0,0.7,0,1c0,2.4,1,4.3,2.4,4.5l8.3,1.6
		l10.6,2.1l2.8,0.8l2.2,0.4c7.3,1.5,14.7,1.5,22,0l0.7-0.1l3.6-0.7l19.7-3.9C416.8,127.4,417.4,126.9,417.8,126z"/>
	<path fill="#F7A561" d="M346,124.9l24,4.6c3.7,0.8,7.3,1.1,11,1.1c3.7,0,7.3-0.4,11-1.1l24-4.8c0.3-0.1,0.5-0.2,0.8-0.4
		c0.7-0.5,1.2-1.4,1.5-2.7c0-0.2,0.1-0.4,0.1-0.6c0-0.3,0.1-0.7,0.1-1c0-0.7-0.1-1.4-0.3-2c0-0.1-0.1-0.1-0.1-0.2
		c-0.1-0.2-0.1-0.3-0.2-0.5c-0.6-1.2-1.5-2.1-2.5-1.8h-0.1l-1,0.2l-22.1,4.4c-7.3,1.5-14.7,1.5-22,0l-11.1-2.2l-0.2,0l-12.1-2.4
		c-1.6-0.3-3.1,1.8-3.1,4.5c0,0.6,0.1,1.2,0.1,1.8c0,0,0,0,0,0C344.1,123.6,345,124.6,346,124.9z"/>
	<path fill="#757575" d="M449.6,174.7c0,0.2,0,0.4-0.1,0.5c-0.1,0.2-0.2,0.5-0.3,0.8c-0.1,0.3-0.4,0.6-0.6,0.9
		c-0.6-0.6-1.2-1.2-1.9-1.5c-1.2-0.7-2.5-1-4-1c-0.6,0-1,0.1-1.5,0.1c0,0,0,0-0.1,0c-2.8,0.6-5.1,2.5-6,5.2c0,0,0,0,0,0
		c-1.3-0.9-2.8-1.3-4.5-1.3c0,0,0,0,0,0c-4.5,0-8,3.6-8,8c0,1.2,0.3,2.3,0.9,3.3c0,0,0,0.1,0,0.1c-1.2-0.7-2.7-1.3-4.3-1.3
		c0,0,0,0,0,0c-4.5,0-8,3.6-8,8c0,0.9,0.1,1.6,0.4,2.5l0.1-0.1l20.4-11.7c5.1-3.4,11.2-5.5,17.7-5.5c8.8,0,16.7,3.6,22.4,9.4
		c5.8,5.7,9.4,13.7,9.4,22.4c0,12.9-7.9,24.2-19.2,29v0.1l-21.7,7.3l-0.1,0c0.7,1.2,1.6,2.2,2.8,2.9c1.2,0.7,2.6,1.2,4,1.2
		c2.1,0,4-0.9,5.5-2.2c0.1,0,0.1,0.1,0.2,0.1c0.6,0.5,1.2,0.9,1.8,1.2c1.1,0.5,2.3,0.9,3.5,0.9c3.6,0,6.6-2.4,7.6-5.7
		c0.1,0,0.3,0,0.3,0c4.5,0,8-3.6,8-8c0-0.3,0-0.6-0.1-0.9c0,0,0,0,0.1,0c2.7,0,5.1-1.3,6.6-3.4c0.9-1.3,1.5-2.8,1.5-4.6
		c0-1.5-0.4-3-1.2-4.2c4-0.4,7.1-3.7,7.1-7.9c0-1.5-0.4-2.8-1-4c0.7-1.2,1-2.5,1-4c0-2.8-1.3-5.2-3.6-6.6c0.7-1.2,1.2-2.5,1.2-4
		c0-3.6-2.4-6.6-5.7-7.6c0-0.1,0-0.3,0-0.4c0-4.5-3.6-8-8-8h-0.1c-0.7-3.7-3.9-6.6-7.9-6.6c-0.4,0-0.9,0-1.3,0.1c-0.9-3.4-4-6-7.7-6
		c-1.7,0-3.3,0.5-4.6,1.5C450.3,174,449.9,174.3,449.6,174.7z"/>
	<path fill="#757575" d="M438.3,250.7l-1,0.3C437.6,250.9,438,250.8,438.3,250.7z"/>
	<path fill="#F2C681" d="M354.8,226c4-11.3,8.7-22.1,13.9-31.4c-1.6,0.1-3.1,0.3-4.6,0.6l-19.8,2.8l0.1,0.2L354.8,226z"/>
	<path fill="#F2C681" d="M299.7,204.4l-13.9,2.1h-68.5c0.1-0.4,0.1-1,0.1-1.5c0-4.8-3.9-8.6-8.6-8.6c-3,0-5.5,1.5-7,3.7
		c-2.5-0.7-5.1-1.2-7.9-1.2c-15.2,0-27.5,12.4-27.5,27.5c0,15.2,12.4,27.5,27.5,27.5c5.8,0,11.3-1.8,15.8-4.9h115.2l-14.8-39.8
		c-3.7-0.9-7-2.4-10-4.5C300,204.6,299.9,204.5,299.7,204.4z"/>
	<path fill="#FFD385" d="M437.4,205.2c0.2,0.1,0.3,0,0.6,0c0.7-0.2,1.2-0.4,1.7-0.5c-0.1,0.1-0.1,0.2-0.1,0.2
		c-0.1,0.1-0.1,0.3-0.1,0.4c0,0.1,0,0.3,0.1,0.4c0.1,0.1,0.2,0.2,0.3,0.3c-0.1,0.1-0.2,0.2-0.2,0.2c-0.2,0.1-0.2,0.3-0.3,0.4
		c-0.1,0.1-0.1,0.3-0.1,0.4c0,0.1,0,0.3,0.1,0.4c0.3,0.3,0.5,0.3,0.6,0.4c0.3,0,0.4,0,0.7,0l1.9-0.7c-0.1,0.1-0.1,0.2-0.2,0.3
		c-0.1,0.3-0.1,0.4-0.1,0.6c0,0.1,0,0.4,0.1,0.6c0,0,0.1,0.1,0.1,0.1c-0.1,0.1-0.2,0.2-0.3,0.4c0,0.2-0.1,0.3-0.1,0.6s0,0.5,0.1,0.6
		c0.3,0.3,0.6,0.6,0.9,0.7s0.6,0.3,0.9,0.4c0.4,0,0.7,0.1,1,0.1h0.4c0,0,0,0,0,0c0,0.1,0,0.1,0,0.1c0,0.3,0,0.7,0,1.2
		s0.3,0.8,0.6,1.2c0.1,0.3,0.4,0.5,0.7,0.6c0.3,0.2,0.6,0.3,0.9,0.3s0.7,0,1,0s0.7,0,1-0.1c0.4-0.1,0.7-0.3,1-0.4
		c0.3-0.2,0.6-0.5,0.9-0.6c0.3-0.1,0.4-0.4,0.7-0.7c0.3-0.3,0.5-0.7,0.6-1h0.1c0.1,0.3,0,0.6,0.1,0.9h-0.1c-0.3,0.1-0.6,0.4-0.9,0.6
		c-0.3,0.1-0.6,0.4-0.9,0.6c-0.3,0.1-0.4,0.3-0.6,0.6c-0.1,0.1-0.3,0.3-0.4,0.4c-0.1,0.1-0.3,0.3-0.3,0.4c-0.1,0.1-0.1,0.3-0.1,0.6
		c0,0.1,0.1,0.3,0.3,0.6c0,0,0.1,0.1,0.1,0.1c-0.1,0.1-0.2,0.3-0.2,0.4c-0.1,0.3-0.1,0.5-0.1,0.6c0,0.3,0.2,0.5,0.3,0.6
		c0.1,0.2,0.3,0.3,0.4,0.3c0.2,0.1,0.3,0,0.6,0c0.5-0.2,0.9-0.3,1.3-0.4c0,0,0,0.1,0,0.1c-0.1,0.1-0.1,0.3-0.1,0.4
		c0,0.1,0,0.3,0.1,0.4c0.1,0.1,0.3,0.3,0.5,0.4c0,0-0.1,0.1-0.1,0.1c-0.2,0.1-0.2,0.3-0.3,0.4c-0.1,0.1-0.1,0.3-0.1,0.4
		c0,0.1,0,0.3,0.1,0.4c0.3,0.3,0.5,0.3,0.6,0.4c0.3,0,0.4,0,0.7,0l1.5-0.5c0,0-0.1,0.1-0.1,0.1c-0.1,0.3-0.1,0.4-0.1,0.6
		s0,0.4,0.1,0.6c0.1,0.1,0.2,0.2,0.2,0.2c-0.1,0.1-0.1,0.2-0.1,0.3c0,0.2-0.1,0.3-0.1,0.6s0,0.5,0.1,0.6c0.3,0.3,0.6,0.6,0.9,0.7
		c0.3,0.1,0.5,0.4,0.9,0.4c0.2,0,0.4,0,0.6,0.1c0,0,0,0-0.1-0.1c-0.1-0.1-0.1-0.3,0-0.4c0-0.2,0.1-0.5,0.4-0.6
		c0.1-0.1,0.2-0.2,0.4-0.3c0.1,0,0.1,0,0.1,0c0.1,0.1,0.3,0.1,0.4,0.1c0.1,0,0.3,0,0.4,0c0.5,0,0.7,0,1.1-1.6
		c0.1-0.1,0.2-0.1,0.3-0.1c0.3-0.3,0.6-0.4,0.9-0.7c0.3-0.2,0.3-0.5,0.3-0.6c0-0.2-0.2-0.5-0.3-0.6c-0.1-0.1-0.1-0.1-0.2-0.2
		c0.1-0.1,0.2-0.2,0.4-0.3c0.1-0.1,0.3-0.4,0.3-0.6c0-0.1-0.1-0.4-0.3-0.6c-0.1-0.1-0.3-0.3-0.6-0.3s-0.4,0-0.7,0s-0.6,0-1,0.1
		c-0.1,0-0.2,0-0.3,0.1c0-0.1,0-0.1,0-0.3c0-0.2-0.1-0.4-0.3-0.6c-0.1-0.1-0.1-0.1-0.2-0.1c0.1-0.1,0.3-0.3,0.4-0.4
		c0.1-0.1,0.3-0.3,0.3-0.6s-0.1-0.4-0.3-0.6c-0.1-0.1-0.4-0.3-0.6-0.3s-0.4,0-0.7,0c-0.3,0-0.5,0-0.9,0.1c0.1-0.2,0.1-0.2,0.1-0.3
		c0-0.2-0.1-0.2-0.1-0.3s-0.2-0.3-0.3-0.4c-0.1-0.1-0.1-0.1-0.1-0.2c0,0,0-0.1,0-0.1c0.1-0.1,0.1-0.1,0.3-0.1
		c0.1-0.1,0.3-0.1,0.3-0.3c0-0.1,0.1-0.1,0.1-0.3c0-0.2,0-0.1-0.1-0.3c0-0.1-0.1-0.3-0.3-0.4c-0.2-0.1-0.1-0.1-0.3-0.3
		c-0.2-0.2-0.1-0.1-0.3-0.1c-0.1,0-0.1,0-0.3,0c-0.1,0-0.3,0.1-0.4,0.1c-0.1,0.1-0.4,0.1-0.6,0.3c-0.1,0.1-0.3,0.1-0.6,0.3
		c0-0.1,0-0.1,0-0.3c0-0.4,0-1,0-1.5s-0.1-1-0.4-1.5c-0.1-0.4-0.4-0.9-0.9-1.3c-0.5-0.4-0.9-0.9-1.5-1c-0.4-0.3-1-0.3-1.6-0.3
		c-0.6,0-1,0.1-1.6,0.3c-0.6,0.1-1,0.6-1.5,1c-0.3,0.1-0.4,0.4-0.6,0.7c-0.1,0-0.1,0-0.3,0c-0.1,0-0.3,0-0.4-0.1c0,0-0.1,0-0.1,0
		c0.2-0.1,0.3-0.3,0.5-0.4c0.3-0.2,0.6-0.4,0.9-0.6s0.6-0.5,0.9-0.6c0.3-0.3,0.6-0.4,0.9-0.7c0.3-0.2,0.3-0.3,0.3-0.6
		c0-0.2-0.2-0.5-0.3-0.6c-0.1-0.1-0.1-0.1-0.2-0.2c0.1-0.1,0.2-0.2,0.4-0.3c0.1-0.1,0.3-0.4,0.3-0.6c0-0.3-0.1-0.4-0.3-0.6
		c-0.1-0.1-0.3-0.3-0.6-0.3c-0.3,0-0.4,0-0.7,0c-0.3,0-0.6,0-1,0.1c-0.1,0-0.2,0-0.4,0c0-0.1,0.1-0.2,0.1-0.2c0-0.2-0.2-0.5-0.3-0.6
		c-0.1-0.1-0.1-0.1-0.2-0.1c0.1-0.1,0.3-0.3,0.4-0.4c0.1-0.1,0.3-0.3,0.3-0.6s-0.1-0.4-0.3-0.6c-0.1-0.1-0.4-0.3-0.6-0.3
		c-0.3,0-0.4,0-0.7,0c-0.3,0-0.5,0-0.9,0.1c0.1-0.2,0.1-0.1,0.1-0.3c0-0.2-0.1-0.2-0.1-0.3s-0.2-0.3-0.3-0.4
		c-0.1-0.1-0.1-0.1-0.1-0.2c0,0,0-0.1,0-0.1c0.1-0.1,0.1-0.1,0.3-0.1c0.1-0.1,0.3-0.1,0.3-0.3c0-0.2,0.1-0.1,0.1-0.3
		c0-0.1,0-0.1-0.1-0.3c0-0.1-0.1-0.3-0.3-0.4c-0.1-0.1-0.1-0.1-0.3-0.3c-0.1,0-0.1-0.1-0.3-0.1c-0.2,0-0.1,0-0.3,0
		c-0.1,0-0.3,0.1-0.4,0.1c-0.1,0.1-0.4,0.1-0.6,0.3c-0.3,0.1-0.6,0.3-0.9,0.4s-0.6,0.3-0.9,0.6c-0.3,0.1-0.6,0.4-0.9,0.6
		c-0.3,0.1-0.6,0.4-0.9,0.6c-0.3,0.1-0.4,0.3-0.6,0.6c-0.1,0.1-0.3,0.3-0.4,0.4c-0.1,0.1-0.3,0.3-0.3,0.4c-0.1,0.1-0.1,0.3-0.1,0.6
		c0,0.1,0.1,0.3,0.3,0.6c0,0,0,0,0,0c0,0-0.1,0.1-0.1,0.1c-0.2,0.1-0.2,0.3-0.3,0.4c-0.1,0.3-0.1,0.5-0.1,0.6c0,0.3,0.2,0.5,0.3,0.6
		C437.1,205.1,437.2,205.1,437.4,205.2z M445.6,204.6c-0.3,0.3-0.7,0.4-1,0.7c-0.2,0.2-0.3,0.3-0.5,0.4c-0.1,0-0.1,0-0.1,0v-0.1
		c0.2,0,0.2-0.1,0.3-0.1c0.1-0.2,0.3-0.2,0.4-0.3c0.1-0.2,0.3-0.2,0.4-0.3c0.1-0.2,0.3-0.2,0.4-0.3
		C445.5,204.6,445.5,204.6,445.6,204.6L445.6,204.6z M442.6,202.4c0.1,0,0.3,0,0.4-0.1l0.1,0.1c-0.3,0.2-0.6,0.4-0.8,0.5
		c-0.2,0-0.3,0.1-0.6,0.1c-0.3,0.1-0.4,0.1-0.4,0.1V203c0.3-0.2,0.6-0.5,0.9-0.6C442.3,202.4,442.5,202.4,442.6,202.4z M444.9,210.8
		c-0.2-0.2-0.2-0.2-0.3-0.3c-0.1-0.1-0.1-0.3,0-0.4c0-0.1,0-0.2,0.1-0.3c0.2,0,0.3,0,0.5,0h0.1c0,0,0,0,0,0.1c-0.1,0.3-0.1,0.7,0,1
		C445.1,210.9,445,210.8,444.9,210.8z M459,223.5c-0.1,0-0.3,0-0.4,0c0.1-0.1,0.2-0.1,0.3-0.2c0.3-0.2,0.6-0.5,0.9-0.6L459,223.5z
		 M451.6,209.5c0.1,0.1,0.1,0.3,0.1,0.4s0,0.3-0.1,0.4c-0.1,0.1-0.1,0.3-0.3,0.6c-0.1,0.1-0.3,0.3-0.4,0.6c-0.1,0.4-0.4,0.5-0.7,0.8
		c-0.3,0.1-0.6,0.3-1,0.4c-0.4,0.1-0.6,0.1-0.9,0.1c-0.1,0-0.2,0-0.2,0c0,0-0.1,0-0.1-0.1c-0.2-0.3-0.3-0.5-0.3-0.6
		c0-0.3,0-0.5,0-0.6c0-0.3,0.2-0.5,0.3-0.6c0.1-0.1,0.3-0.3,0.4-0.4c0.3-0.2,0.6-0.3,0.9-0.6s0.7-0.3,1-0.4c0.3-0.1,0.6-0.1,0.9-0.1
		C451.3,209.4,451.5,209.4,451.6,209.5c-0.1-0.1-0.2-0.1-0.3-0.2c-0.1,0-0.2-0.1-0.3-0.1C451.3,209.2,451.5,209.3,451.6,209.5z"/>
	<path fill="#FFD385" d="M458.7,225.5c0,0-0.1,0-0.2,0c0.1,0.3,0.2,0.7,0.3,1.5l1.5-1.5c-0.5,0-0.8,0-1.2,0
		C459,225.5,458.8,225.5,458.7,225.5z"/>
	<path fill="#FFD385" d="M437.3,251l1-0.3l0.5-0.2l1.8-0.6l0.1,0l21.7-7.3v-0.1c11.3-4.8,19.2-16.1,19.2-29c0-8.8-3.6-16.7-9.4-22.4
		c-5.7-5.7-13.6-9.2-22.2-9.2c-6.6,0-12.7,1.9-17.7,5.5L412,199.1l-17.7,10.1l-27.8,15.9l-10,5.7l-0.1-0.4l-1.4-3.8l-0.1-0.3
		l-0.1-0.3l-10.4-27.8l-0.1-0.2l-2.3-6.1c2.4-6.1,2.7-13.1,0.1-19.8c-0.4-1.3-1-2.5-1.8-3.7c2.1-1.6,3.4-4.3,3.4-7.1
		c0-5.1-4.2-9.2-9.2-9.2c-3.3,0-6.1,1.6-7.7,4.2c-6.3-2.7-13.5-3-20.4-0.4c-14.4,5.4-21.7,21.4-16.4,35.7c2,5.3,5.5,9.7,9.7,12.8
		c0.1,0.1,0.2,0.2,0.4,0.3c3,2.1,6.3,3.6,10,4.5c0,0,0.1,0,0.1,0l15,40.2l13.4,36l0.6-0.2l0.6-0.2l12.7-4.7l0.1,0l0.5-0.2l8.5-3.6
		l25.6-8.6l0,0l0,0l49.4-16.7L437.3,251z M438.3,194.9c4.7-4.2,12-3.8,16.2,1c2.5,3,3.2,6.7,2.5,10.1c3.6-0.3,7.2,1.1,9.7,3.9
		c4.2,4.6,3.8,11.9-1.1,16.1c-6.4,5.8-30.1-1-30.1-1S431.5,200.9,438.3,194.9z"/>
	<path fill="#EF8781" d="M465.6,226c4.9-4.2,5.3-11.5,1.1-16.1c-2.5-2.8-6.1-4.2-9.7-3.9c0.7-3.4,0-7.1-2.5-10.1
		c-4.2-4.8-11.5-5.2-16.2-1c-6.8,6-2.8,30.1-2.8,30.1S459.2,231.8,465.6,226z M458.8,227c0-0.8-0.1-1.3-0.3-1.5c0.1,0,0.1,0,0.2,0
		c0.1,0,0.3,0,0.4,0c0.4,0,0.7,0,1.2,0L458.8,227z M436.8,203.7c0.1-0.1,0.1-0.3,0.3-0.4c0,0,0.1-0.1,0.1-0.1c0,0,0,0,0,0
		c-0.2-0.3-0.3-0.5-0.3-0.6c0-0.3,0-0.5,0.1-0.6c0-0.1,0.2-0.3,0.3-0.4c0.1-0.1,0.3-0.3,0.4-0.4c0.2-0.3,0.3-0.5,0.6-0.6
		c0.3-0.2,0.6-0.5,0.9-0.6c0.3-0.2,0.6-0.5,0.9-0.6c0.3-0.3,0.6-0.5,0.9-0.6s0.6-0.3,0.9-0.4c0.2-0.2,0.5-0.2,0.6-0.3
		c0.1,0,0.3-0.1,0.4-0.1c0.2,0,0.1,0,0.3,0c0.2,0,0.2,0.1,0.3,0.1c0.2,0.2,0.2,0.2,0.3,0.3c0.2,0.1,0.3,0.3,0.3,0.4
		c0.1,0.2,0.1,0.2,0.1,0.3c0,0.2-0.1,0.1-0.1,0.3c0,0.2-0.2,0.2-0.3,0.3c-0.2,0-0.2,0-0.3,0.1c0,0.1,0,0.1,0,0.1
		c0,0,0.1,0.1,0.1,0.2c0.1,0.1,0.3,0.3,0.3,0.4s0.1,0.1,0.1,0.3c0,0.2,0,0.1-0.1,0.3c0.3-0.1,0.6-0.1,0.9-0.1c0.3,0,0.4,0,0.7,0
		c0.2,0,0.5,0.2,0.6,0.3c0.2,0.2,0.3,0.3,0.3,0.6s-0.2,0.5-0.3,0.6c-0.1,0.1-0.2,0.2-0.4,0.4c0,0,0.1,0.1,0.2,0.1
		c0.1,0.1,0.3,0.4,0.3,0.6c0,0.1,0,0.2-0.1,0.2c0.1,0,0.3,0,0.4,0c0.4-0.1,0.7-0.1,1-0.1c0.3,0,0.4,0,0.7,0c0.3,0,0.5,0.2,0.6,0.3
		c0.2,0.2,0.3,0.3,0.3,0.6c0,0.2-0.2,0.5-0.3,0.6c-0.1,0.1-0.2,0.2-0.4,0.3c0.1,0,0.1,0.1,0.2,0.2c0.1,0.1,0.3,0.4,0.3,0.6
		c0,0.3,0,0.4-0.3,0.6c-0.3,0.3-0.6,0.4-0.9,0.7c-0.3,0.1-0.6,0.4-0.9,0.6s-0.6,0.4-0.9,0.6c-0.2,0.1-0.3,0.2-0.5,0.4
		c0,0,0.1,0,0.1,0c0.1,0.1,0.3,0.1,0.4,0.1c0.2,0,0.2,0,0.3,0c0.2-0.3,0.3-0.6,0.6-0.7c0.5-0.4,0.9-0.9,1.5-1c0.6-0.2,1-0.3,1.6-0.3
		c0.6,0,1.2,0,1.6,0.3c0.6,0.1,1,0.6,1.5,1c0.5,0.4,0.8,0.9,0.9,1.3c0.3,0.5,0.4,1,0.4,1.5s0,1.1,0,1.5c0,0.2,0,0.2,0,0.3
		c0.3-0.2,0.5-0.2,0.6-0.3c0.2-0.2,0.5-0.2,0.6-0.3c0.1,0,0.3-0.1,0.4-0.1c0.2,0,0.2,0,0.3,0c0.2,0,0.1-0.1,0.3,0.1
		c0.2,0.2,0.1,0.2,0.3,0.3c0.2,0.1,0.3,0.3,0.3,0.4c0.1,0.2,0.1,0.1,0.1,0.3c0,0.2-0.1,0.2-0.1,0.3c0,0.2-0.2,0.2-0.3,0.3
		c-0.2,0-0.2,0-0.3,0.1c0,0.1,0,0.1,0,0.1c0,0,0.1,0.1,0.1,0.2c0.1,0.1,0.3,0.3,0.3,0.4s0.1,0.1,0.1,0.3c0,0.1,0,0.1-0.1,0.3
		c0.3-0.1,0.6-0.1,0.9-0.1c0.3,0,0.5,0,0.7,0s0.5,0.2,0.6,0.3c0.2,0.2,0.3,0.3,0.3,0.6s-0.2,0.5-0.3,0.6c-0.1,0.1-0.3,0.3-0.4,0.4
		c0.1,0,0.1,0.1,0.2,0.1c0.2,0.2,0.3,0.4,0.3,0.6c0,0.1,0,0.2,0,0.3c0.1,0,0.2,0,0.3-0.1c0.4-0.1,0.7-0.1,1-0.1s0.4,0,0.7,0
		s0.5,0.2,0.6,0.3c0.2,0.2,0.3,0.5,0.3,0.6c0,0.2-0.2,0.5-0.3,0.6c-0.1,0.1-0.2,0.2-0.4,0.3c0.1,0,0.1,0.1,0.2,0.2
		c0.1,0.1,0.3,0.4,0.3,0.6c0,0.1,0,0.4-0.3,0.6c-0.3,0.3-0.6,0.4-0.9,0.7c-0.1,0-0.2,0.1-0.3,0.1c-0.4,1.5-0.7,1.6-1.1,1.6
		c-0.1,0-0.3,0-0.4,0c-0.1,0-0.3,0-0.4-0.1c0,0-0.1,0-0.1,0c-0.1,0.1-0.2,0.2-0.4,0.3c-0.3,0.1-0.4,0.4-0.4,0.6
		c-0.1,0.1-0.1,0.3,0,0.4c0,0,0,0,0.1,0.1c-0.2,0-0.3-0.1-0.6-0.1c-0.4,0-0.6-0.3-0.9-0.4c-0.3-0.1-0.6-0.4-0.9-0.7
		c-0.1-0.1-0.1-0.3-0.1-0.6s0.1-0.4,0.1-0.6c0-0.1,0.1-0.2,0.1-0.3c-0.1-0.1-0.2-0.2-0.2-0.2c-0.1-0.2-0.1-0.4-0.1-0.6
		s0-0.3,0.1-0.6c0,0,0.1-0.1,0.1-0.1l-1.5,0.5c-0.3,0-0.4,0-0.7,0c-0.1-0.1-0.3-0.1-0.6-0.4c-0.1-0.1-0.1-0.3-0.1-0.4
		c0-0.1,0-0.3,0.1-0.4c0.1-0.1,0.1-0.3,0.3-0.4c0,0,0.1-0.1,0.1-0.1c-0.3-0.1-0.4-0.3-0.5-0.4c-0.1-0.1-0.1-0.3-0.1-0.4
		c0-0.1,0-0.3,0.1-0.4c0,0,0-0.1,0-0.1c-0.4,0.1-0.9,0.2-1.3,0.4c-0.3,0-0.4,0.1-0.6,0c-0.1,0-0.3-0.1-0.4-0.3
		c-0.1-0.1-0.3-0.3-0.3-0.6c0-0.1,0-0.3,0.1-0.6c0.1-0.1,0.1-0.3,0.2-0.4c-0.1-0.1-0.1-0.1-0.1-0.1c-0.2-0.3-0.3-0.5-0.3-0.6
		c0-0.3,0-0.5,0.1-0.6c0-0.1,0.2-0.3,0.3-0.4c0.1-0.1,0.3-0.3,0.4-0.4c0.2-0.3,0.3-0.5,0.6-0.6c0.3-0.2,0.6-0.5,0.9-0.6
		c0.3-0.2,0.6-0.5,0.9-0.6h0.1c-0.1-0.3,0-0.6-0.1-0.9h-0.1c-0.1,0.3-0.3,0.7-0.6,1c-0.3,0.3-0.4,0.6-0.7,0.7
		c-0.3,0.1-0.6,0.4-0.9,0.6c-0.3,0.1-0.6,0.3-1,0.4c-0.3,0.1-0.7,0.1-1,0.1s-0.7,0-1,0s-0.6-0.1-0.9-0.3c-0.3-0.1-0.6-0.3-0.7-0.6
		c-0.3-0.4-0.6-0.7-0.6-1.2s0-0.9,0-1.2c0,0,0,0,0-0.1c0,0,0,0,0,0H445c-0.3,0-0.6-0.1-1-0.1c-0.3-0.1-0.6-0.3-0.9-0.4
		s-0.6-0.4-0.9-0.7c-0.1-0.1-0.1-0.3-0.1-0.6s0.1-0.4,0.1-0.6c0.1-0.2,0.2-0.3,0.3-0.4c0,0-0.1-0.1-0.1-0.1
		c-0.1-0.2-0.1-0.5-0.1-0.6c0-0.2,0-0.3,0.1-0.6c0.1-0.1,0.1-0.2,0.2-0.3l-1.9,0.7c-0.3,0-0.4,0-0.7,0c-0.1-0.1-0.3-0.1-0.6-0.4
		c-0.1-0.1-0.1-0.3-0.1-0.4c0-0.1,0-0.3,0.1-0.4c0.1-0.1,0.1-0.3,0.3-0.4c0.1-0.1,0.2-0.2,0.2-0.2c-0.2-0.1-0.3-0.2-0.3-0.3
		c-0.1-0.1-0.1-0.3-0.1-0.4c0-0.1,0-0.3,0.1-0.4c0-0.1,0.1-0.1,0.1-0.2c-0.5,0.1-1,0.3-1.7,0.5c-0.3,0-0.4,0.1-0.6,0
		c-0.2-0.1-0.3-0.1-0.4-0.3c-0.1-0.1-0.3-0.3-0.3-0.6C436.7,204.2,436.7,204,436.8,203.7z"/>
	<path fill="#EF8781" d="M451.3,209.3c0.1,0.1,0.2,0.1,0.3,0.2C451.5,209.4,451.3,209.4,451.3,209.3c-0.4,0.1-0.7,0.1-1,0.2
		c-0.3,0.1-0.7,0.1-1,0.4s-0.6,0.4-0.9,0.6c-0.1,0.1-0.3,0.3-0.4,0.4c-0.1,0.1-0.3,0.3-0.3,0.6c0,0.1,0,0.3,0,0.6
		c0,0.1,0.1,0.3,0.3,0.6c0,0,0,0,0.1,0.1c0.1,0,0.1,0,0.2,0c0.3,0,0.5,0,0.9-0.1c0.4-0.1,0.7-0.3,1-0.4c0.3-0.3,0.6-0.4,0.7-0.8
		c0.1-0.3,0.3-0.5,0.4-0.6c0.2-0.3,0.2-0.5,0.3-0.6c0.1-0.1,0.1-0.3,0.1-0.4s0-0.3-0.1-0.4c-0.1-0.2-0.3-0.3-0.6-0.3
		C451.1,209.2,451.2,209.3,451.3,209.3z"/>
	<path fill="#EF8781" d="M445.1,204.9c-0.1,0.1-0.3,0.1-0.4,0.3c-0.1,0.1-0.3,0.1-0.4,0.3c-0.1,0-0.1,0.1-0.3,0.1v0.1c0,0,0,0,0.1,0
		c0.2-0.1,0.3-0.2,0.5-0.4c0.3-0.3,0.7-0.4,1-0.7l0,0c0,0,0,0-0.1,0.1C445.4,204.7,445.2,204.7,445.1,204.9z"/>
	<path fill="#EF8781" d="M445.3,209.9c0-0.1,0-0.1,0-0.1h-0.1c-0.2,0-0.4,0-0.5,0c-0.1,0.1-0.1,0.2-0.1,0.3c-0.1,0.1-0.1,0.3,0,0.4
		c0.1,0.1,0.1,0.1,0.3,0.3c0.1,0,0.2,0.1,0.4,0.1C445.2,210.6,445.2,210.2,445.3,209.9z"/>
	<path fill="#EF8781" d="M458.9,223.3c-0.1,0-0.2,0.1-0.3,0.2c0.1,0,0.2,0,0.4,0l0.8-0.8C459.5,222.8,459.2,223.1,458.9,223.3z"/>
	<path fill="#EF8781" d="M441.3,203.1c0,0,0.1,0,0.4-0.1c0.2,0,0.3,0,0.6-0.1c0.3-0.1,0.6-0.3,0.8-0.5l-0.1-0.1
		c-0.1,0.1-0.3,0.1-0.4,0.1c-0.1,0-0.3,0-0.4,0C441.9,202.5,441.6,202.8,441.3,203.1L441.3,203.1z"/>
</g>
</svg>
