<?xml version="1.0" encoding="utf-8"?>
<!-- Generator: Adobe Illustrator 18.1.1, SVG Export Plug-In . SVG Version: 6.00 Build 0)  -->
<svg version="1.1" id="Layer_1" xmlns="http://www.w3.org/2000/svg" xmlns:xlink="http://www.w3.org/1999/xlink" x="0px" y="0px"
	 viewBox="0 0 600 600" enable-background="new 0 0 600 600" xml:space="preserve">
<g display="none">
	<path display="inline" fill="none" d="M481.8,126.3c1.1-0.2,2-1.1,2.6-2.5c-0.6,1.1-1.4,1.9-2.3,2.1l-26.1,5.2
		c0.2,0.1,0.4,0.1,0.6,0.2L481.8,126.3z"/>
	<path display="inline" fill="none" d="M421.9,101.8c2.5,1.9,5.6,3,9,3c0.1,0,0.1,0,0.2,0c-3.5-0.1-6.6-1.2-9-3.2
		C422,101.7,421.9,101.8,421.9,101.8z"/>
	<path display="inline" fill="none" d="M414,108.5c-0.1,0-0.2,0-0.3,0c0.4,0.1,0.8,0.2,1.1,0.2c2.2,0,4.1-1.3,5.3-2.9
		c-0.1-0.1-0.2-0.1-0.3-0.2C418.7,107.5,416.7,108.7,414,108.5z"/>
	<path display="inline" fill="none" d="M434.7,107.8c0.5-0.2,1-0.3,1.5-0.5c0,0,0,0-0.1-0.1C435.6,107.4,435.1,107.6,434.7,107.8z"
		/>
	<path display="inline" fill="none" d="M512,77.5c0,0.4-0.1,0.7-0.1,0.7c0,0,0,0,0.1-0.1C512,77.8,512,77.6,512,77.5z"/>
	<path display="inline" fill="none" d="M409.3,98C409.3,98,409.3,98,409.3,98c0,3.9,3,6.8,6.8,6.8c0.1,0,0.2,0,0.2,0
		C412.7,104.7,410,102,409.3,98z"/>
	<path display="inline" fill="none" d="M450.1,128.4c-4.8,1-9.7,1.5-14.6,1.5C440.4,129.9,445.3,129.4,450.1,128.4l31.6-6.1
		c0.5-0.1,0.9-0.4,1.3-0.8c-0.3,0.2-0.7,0.4-1,0.5L450.1,128.4z"/>
	<path display="inline" fill="none" d="M454.4,140.4c-2.7,0-4.8-2.3-4.8-4.8c0-1.1,0.3-1.9,0.8-2.7c-0.7,0.8-1.1,2-1.1,3.1
		c0,2.7,2.1,4.8,4.8,4.8c1.7,0,3.2-1,4.1-2.3C457.3,139.6,455.9,140.4,454.4,140.4z"/>
	<path display="inline" fill="none" d="M415.4,140.4c-2.7,0-4.8-2.3-4.8-4.8c0-0.7,0.2-1.4,0.5-2c-0.4,0.7-0.6,1.5-0.6,2.4
		c0,2.7,2.3,4.8,4.8,4.8c2.1,0,3.9-1.4,4.5-3.3C419,139.2,417.2,140.4,415.4,140.4z"/>
	<path display="inline" fill="none" d="M520.7,168.3c-0.1,0-0.2-0.1-0.3-0.1C520.5,168.3,520.6,168.3,520.7,168.3z"/>
	<path display="inline" fill="none" d="M522.4,168.5C522.5,168.5,522.5,168.5,522.4,168.5c-0.4,0-1-0.1-1.6-0.2
		C521.5,168.5,522,168.5,522.4,168.5z"/>
	<path display="inline" fill="none" d="M421.1,177.1c0,0-0.1,0-0.1,0c-0.2,0-0.5,0.1-0.7,0.2C420.5,177.2,420.8,177.2,421.1,177.1
		L421.1,177.1z"/>
	<path display="inline" fill="none" d="M530.1,145.8c0,0.5,0,0.9-0.1,1.4C530.1,146.8,530.1,146.3,530.1,145.8
		c0-9.8-8.1-17.9-17.9-17.9h0C522,127.9,530.1,136,530.1,145.8z"/>
	<path display="inline" fill="none" d="M431.4,170.9c-2.5,0-5.2-0.5-7.3-1.7c-1.2,0.8-2.7,1.2-4,1.2c-1.2,0-2.3-0.3-3.4-0.8
		c1.1,0.6,2.3,0.9,3.6,0.9c1.5,0,2.8-0.4,4-1.2c2.1,1.2,4.8,1.7,7.3,1.7c2.2,0,4.4-0.5,6.3-1.3c-0.1,0-0.2-0.1-0.2-0.1
		C435.8,170.5,433.5,170.9,431.4,170.9z"/>
	<path display="inline" fill="none" d="M447.1,155.2c0,1.3-0.1,2.8-0.5,4.1c1.2,1.2,2,3.1,2,4.8c0,3.8-3.1,6.8-6.8,6.8
		c-1.2,0-2.3-0.4-3.3-0.9c1,0.6,2.1,1,3.5,1c3.8,0,6.8-3.1,6.8-6.8c0-1.9-0.8-3.6-2-4.8c0.4-1.3,0.5-2.8,0.5-4.1
		c0-6-3.5-11.4-8.6-14C443.7,144,447.1,149.2,447.1,155.2z"/>
	<path display="inline" fill="none" d="M462.1,105.6c0.1,0,0.1,0,0.2,0c-4.7-0.1-8.7-2.8-10.7-6.8h-0.1c0,0.1-0.1,0.2-0.1,0.3
		C453.4,103,457.4,105.6,462.1,105.6z"/>
	<path display="inline" fill="none" d="M490.7,124.9c0,0,0.1,0.1,0.1,0.1c0,0,0,0,0,0C490.8,125,490.8,124.9,490.7,124.9z"/>
	<path display="inline" fill="none" d="M499.4,133.2c3.4-3.3,8-5.3,12.9-5.3C507.1,127.9,502.5,129.9,499.4,133.2z"/>
	<path display="inline" fill="none" d="M492.1,130.2c0.6,0.6,1.2,1,2,1.2c0-0.1,0-0.1,0-0.2C493.3,131,492.7,130.7,492.1,130.2z"/>
	<path display="inline" fill="none" d="M484.8,113c0,0.1,0.1,0.2,0.1,0.3c0.4,0.1,0.8,0.1,1.2,0.1c0-0.1,0-0.2,0-0.2
		C485.7,113.2,485.2,113.1,484.8,113z"/>
	<path display="inline" fill="none" d="M464.3,108.9c1.9-0.6,3.6-1.6,5-2.9c-0.1-0.1-0.1-0.1-0.2-0.2
		C467.8,107.3,466.1,108.3,464.3,108.9z"/>
	<path display="inline" fill="none" d="M481.7,106.3c-4,0-7.7-1.9-10.5-4.4c-0.1,0.1-0.1,0.1-0.2,0.2c2.8,2.7,6.3,4.2,10.3,4.2
		C481.4,106.3,481.6,106.3,481.7,106.3z"/>
	<path display="inline" fill="none" d="M419.9,177.4c-2.3,0.5-4.3,1.6-6,3.2v0.1C415.5,179.1,417.6,177.9,419.9,177.4z"/>
	<path display="inline" fill="none" d="M519,162.5c1.6,1.3,3.4,2.1,5.6,2.1c0.4,0,0.8-0.1,1.2-0.1c-0.4,0.9-0.5,2-0.5,2.9
		c0,4.9,4.1,9,9,9c2.5,0,4.5-0.8,6-2.3c-1.6,1.4-3.6,2.2-5.9,2.2c-4.9,0-9-4.1-9-9c0-0.9,0.1-2,0.5-2.9c-0.4,0.1-0.8,0.1-1.2,0.1
		c-2.3,0-4-0.9-5.6-2.1c1.5-0.6,2.8-1.4,4.1-2.4c-1.3,0.9-2.7,1.7-4.2,2.3c-0.9,0.4-2.4,0.8-3.7,1.2c-1.6,0.3-3.1,0.5-3.2,0.1
		c0-0.1-0.1-0.1-0.1-0.2c-0.1,0.2-0.1,0.3-0.1,0.4c0.3,0.4,1.6,0.3,3.2-0.1c0.3,0.8,0.7,1.4,1.2,1.9c-0.4-0.5-0.8-1.2-1-1.9
		C516.6,163.5,518.1,162.9,519,162.5z"/>
	<path display="inline" fill="none" d="M499.4,133.2L499.4,133.2c-1.6-1.5-2.7-3.6-2.8-6c-2-0.5-3.6-2.4-3.6-4.5
		c0-0.5,0.3-1.2,0.4-1.7c-3.1-2.3-4.8-6.1-4.8-10.2c0-0.7,0-1.2,0-1.6c-2.7,0-4.8-1.2-6.4-2.9c-0.1,0-0.3,0-0.4,0
		c1.6,1.7,3.8,2.9,6.4,2.9c0,0.7,0,1.1,0,1.6c0,4.1,1.9,7.7,4.8,10.2c-0.3,0.4-0.4,1.2-0.4,1.7c0,2.1,1.6,4,3.6,4.5
		c0,2.4,1.2,4.4,2.8,6c-0.8,0.8-1.7,2-2.5,3.3c0.1,0.1,0.1,0.2,0.2,0.3c0-0.1,0.1-0.2,0.1-0.2C497.6,135.2,498.6,134,499.4,133.2z"
		/>
	<path display="inline" fill="none" d="M449.3,103.1c-0.5,2.6-2.3,4.7-4.7,5.7c2.5-0.8,4.6-2.9,5.2-5.5c-0.1-0.1-0.2-0.3-0.2-0.4
		C449.4,103,449.3,103.1,449.3,103.1z"/>
	<path display="inline" fill="none" d="M437.9,103.3c1.6,1.3,3.4,2,5.4,2c0.1,0,0.1,0,0.2,0c-2.2,0-4.1-0.8-5.4-2.1
		C438.1,103.3,438,103.3,437.9,103.3z"/>
	<path display="inline" fill="none" d="M512.4,77.6c-0.3-0.1-0.3-0.1-0.4-0.1c0.2,0.2,0.2,0.2,0.3,0.2
		C512.3,77.7,512.3,77.7,512.4,77.6z"/>
	<path display="inline" fill="none" d="M510.1,131.4c-4.4,0.4-7.6,2.6-9.9,5.2c2.3-2.5,5.4-4.6,9.8-4.9c8.9-0.5,16.1,7.2,16.1,16.1
		c0,1.7-0.3,3.1-0.9,4.5c0.6-1.4,1-3,1-4.7C526.2,138.5,519,130.8,510.1,131.4z"/>
	<path display="inline" fill="none" d="M494,145.8c-1.5,0,0.2-4.8,2.4-8.6c-2.5,3.9-4.1,8.9-2.5,8.9c0.3,0,0.7-0.6,1.2-1.5
		C494.7,145.4,494.3,145.8,494,145.8z"/>
	<path display="inline" fill="none" d="M437.7,140.8c0.2,0.1,0.5,0.2,0.7,0.3C438.1,141.1,437.9,140.9,437.7,140.8z"/>
	<path display="inline" fill="none" d="M526,190.1c-0.4,0.4-0.7,0.8-0.8,1.2C525.5,190.9,525.9,190.5,526,190.1z"/>
	<path display="inline" fill="none" d="M486.3,206.7c2.1,0,4.1,0.8,5.7,1.7c0,0,0-0.1-0.1-0.1C490.3,207.2,488.4,206.7,486.3,206.7
		C486.3,206.7,486.3,206.7,486.3,206.7z"/>
	<path display="inline" fill="none" d="M433.8,554.3v18.8h0.1v0.9h0v-0.9v-18.7c0-7.3,3.2-13.8,8.5-19c1.8-1.8,3.9-3.3,6.2-4.7
		c-2.3,1.3-4.3,2.9-6.2,4.6c-5.3,5.2-8.5,11.7-8.5,19H433.8z"/>
	<path display="inline" fill="none" d="M501.4,193.3c2.2,0,4.2,0.5,5.9,1.7c0,0,0,0,0-0.1C505.5,193.9,503.6,193.3,501.4,193.3
		C501.5,193.3,501.4,193.3,501.4,193.3z"/>
	<path display="inline" fill="none" d="M458.5,216.5c1.1,0.2,2.2,0.3,3.3,0.4C460.7,216.8,459.6,216.7,458.5,216.5z"/>
	<path display="inline" fill="none" d="M526.8,197.7c-8.6,0-16.7,2.8-23.5,7.3l-27,15.6c0,0.1,0,0.2,0.1,0.2l-23.5,13.4
		c2.5-5.7,5.7-11.4,9-17c0.4-0.5,0.8-1.2,1.2-1.7c9.4-16.5,27.1-27.5,47.4-27.5c1.6,0,3.3,0,4.9,0.1c0.8,0,1.3-0.1,2-0.1
		c2,0,3.7,0.4,5.3,1.3c0.9,0.4,1.7,1.2,2.5,2c-0.7-0.8-1.6-1.6-2.4-2c1.1,0.3,2.3,0.4,3.2,0.8c0.2-0.4,0.4-0.7,0.5-1
		c-0.2,0.3-0.3,0.5-0.6,0.8c-1.1-0.3-2-0.7-3.2-0.8c-1.6-0.8-3.3-1.3-5.3-1.3c-0.8,0-1.3,0-2.1,0.1c-1.6-0.1-3.2-0.1-4.9-0.1
		c-20.2,0-38,11-47.4,27.5c-0.4,0.5-0.8,1.2-1.2,1.7c-3.6,5.3-6.5,11.1-9.2,17L415.8,255v0l-12.9,7.4l0.2,0.5l13.3-7.6l36.9-21.1
		l23.5-13.4l26.9-15.5c6.6-4.8,14.7-7.3,23.5-7.3c11.5,0,21.9,4.6,29.5,12.2C549,202.5,538.4,197.7,526.8,197.7z"/>
	<polygon display="inline" fill="none" points="436.7,209.3 436.7,209.3 436.7,209.3 	"/>
	<path display="inline" fill="none" d="M436.7,209.3c6.6,3.5,13.8,6,21.3,7.2C450.4,215.2,443.3,212.7,436.7,209.3z"/>
	<path display="inline" fill="none" d="M415.8,255c5.7-16.7,12.6-32.7,20.9-45.7C428.3,222.3,421.5,238.2,415.8,255z"/>
	<path display="inline" fill="none" d="M523.8,293.6c-1.9,0-3.8-0.6-5.4-1.5c1.6,1,3.5,1.7,5.6,1.7c2.8,0,5.3-1.2,7.2-2.9
		c-0.1-0.1-0.1-0.1-0.2-0.2C529.1,292.5,526.6,293.6,523.8,293.6z"/>
	<path display="inline" fill="none" d="M448.8,530.6c0.6-0.4,1.3-0.7,1.9-1.1C450.1,529.8,449.5,530.2,448.8,530.6z"/>
	<path display="inline" fill="none" d="M452.7,528.6c0.1-0.1,0.3-0.1,0.4-0.2C453,528.5,452.8,528.5,452.7,528.6z"/>
	<path display="inline" fill="none" d="M432.7,197.9c-2.3,2.7-5.7,4.4-9.7,4.4c-7.2,0-12.9-5.7-12.9-12.9c0-2.6,0.7-5,2.1-7
		c-1.4,2-2.2,4.5-2.2,7.3c0,7,5.4,13,12.6,13C426.8,202.8,430.4,200.9,432.7,197.9z"/>
	<path display="inline" fill="none" d="M456,527.3c0,0,0.1,0,0.1,0C456,527.3,456,527.3,456,527.3z"/>
	<path display="inline" fill="none" d="M458.7,526.5c0.7-0.2,1.3-0.3,2-0.5C460.1,526.2,459.4,526.3,458.7,526.5z"/>
	<path display="inline" fill="#3A3A3A" d="M380.1,335c-4.3,22.2-6,37.7-6,37.7c-0.8,2.8-0.5,5.6,0.4,8.1c2.4,5.3,8.5,8.8,14.6,6.9
		l4.5-0.5c-0.8-4.9-1.3-10.1-1.3-15.3c0.1-1.2,0.1-2.7,0.1-4c-0.1-0.9-0.1-2,0.1-3.2c0,0,1.6-14.9,5.2-36.2l-16.9,6.2L380.1,335z"/>
	<path display="inline" fill="#3A3A3A" d="M402.9,262.4l12.9-7.4v0l0,0c0,0,0,0,0,0c5.7-16.8,12.6-32.7,20.9-45.7c0,0,0-0.1,0-0.1
		c0,0,0,0,0,0c-1.6-0.8-3.2-1.7-5-2.5c-2.5,1.6-5.6,2.4-8.8,2.4c-1.1,1.9-2.3,3.8-3.4,5.7c-7.3,12.4-13.3,26.9-18.6,42l0.2,0.4
		L402.9,262.4z"/>
	<path display="inline" fill="#80ADBF" d="M453.7,456.3c-2.7-0.9-5.4-1.9-7.9-3c-3.9-1.7-7.6-3.7-11.1-5.9v81.2
		c0.9,0.7,1.7,1.3,2.5,2c2,1.4,3.8,3,5.3,4.8c1.8-1.7,3.9-3.2,6.2-4.6c0.1,0,0.2-0.1,0.2-0.1c0.6-0.4,1.3-0.7,1.9-1.1
		c0.6-0.3,1.3-0.6,1.9-0.9c0.1-0.1,0.3-0.1,0.4-0.2c0.9-0.4,1.9-0.8,2.9-1.1c0,0,0.1,0,0.1,0c0.9-0.3,1.7-0.5,2.6-0.8
		c0.7-0.2,1.3-0.3,2-0.5c0.1,0,0.2,0,0.3-0.1c1.7-0.3,3.4-0.6,5.1-0.8v-65.8h0C461.9,458.6,457.7,457.6,453.7,456.3z"/>
	<path display="inline" fill="#A3CFE5" d="M396.1,373.9c-1.9-1.4-3-3.3-3.5-5.5c0,1.1-0.1,2.1-0.1,3.4c0,5.2,0.4,10.2,1.3,15.3
		c4.4,25.5,19.5,47.2,40.7,60.2l0,0c3.5,2.2,7.3,4.2,11.1,5.9c2.6,1.1,5.2,2.1,7.9,3c4.1,1.3,8.2,2.4,12.5,3.1h0
		c4.9,0.8,10.1,1.3,15.3,1.3c6.1,0,11.8-0.5,17.6-1.7v78c0.4,0,0.5-0.1,0.9-0.1h29.6c0.4,0,0.5,0,0.9,0.1v-91
		c22.3-14.9,37.3-39.3,39.3-67.5l-36.5,2l-14.5,5.4l-6.6,2.5C473.6,403.1,430.1,397.8,396.1,373.9z"/>
	<path display="inline" fill="#F2F2F2" d="M461.8,217c-1.1-0.1-2.2-0.3-3.3-0.4c-0.2,0-0.3-0.1-0.5-0.1c-7.5-1.2-14.7-3.7-21.3-7.2
		v0c0,0,0,0.1,0,0.1c-8.3,13-15.2,29-20.9,45.7c0,0,0,0,0,0l0,0l36.9-21.1C455.3,228.1,458.2,222.3,461.8,217z"/>
	<path display="inline" fill="#F2F2F2" d="M409.8,323.5l-11.3,4.8l-0.6,0.2c-3.6,21.4-5.2,36.3-5.2,36.3c-0.1,0.9-0.1,2.1-0.1,3.2
		c0,0.2,0.1,0.3,0.1,0.5c0.5,2.2,1.6,4.1,3.5,5.5c34,23.9,77.5,29.2,116.1,14.5l6.6-2.5l14.4-5.6l-72.7,3.7
		c-5.6,0.8-10.6-3.2-11.4-8.8l-5.3-63.2l0,0L409.8,323.5z"/>
	<path display="inline" fill="#FFD385" d="M450.4,116.1l29.3-5.8c0,0-0.1,0-0.1,0c-3.9,0-7.5-1.8-10.3-4.2c-1.3,1.3-3.1,2.3-5,2.9
		c-1.3,0.4-2.6,0.7-4,0.7c-4.6,0-8.6-2.6-10.6-6.3c-0.6,2.6-2.7,4.7-5.2,5.5c-0.9,0.3-1.9,0.5-2.9,0.5c-2.2,0-4.2-0.8-5.5-2.1
		c-0.5,0.2-1,0.4-1.5,0.5c-1.7,0.7-3.5,1-5.5,1c-3.5,0-6.5-1.1-9-3c-1.2,1.6-3.1,2.9-5.3,2.9c-0.4,0-0.7-0.1-1.1-0.2
		c-1.1-0.1-2.5-0.7-3.6-1.6c-1.2,2-2.5,4.1-3.7,6.3l14.7,2.9C430.9,118.1,440.7,118.1,450.4,116.1z"/>
	<path display="inline" fill="#FFD385" d="M436.7,209.3C436.7,209.3,436.7,209.3,436.7,209.3c6.6,3.4,13.7,5.9,21.3,7.2
		c0.2,0,0.3,0.1,0.5,0.1c1.1,0.2,2.2,0.3,3.3,0.4c0.4-0.5,0.8-1.2,1.2-1.7c9.4-16.5,27.2-27.5,47.4-27.5c1.7,0,3.3,0,4.9,0.1
		c0.8-0.1,1.3-0.1,2.1-0.1c2,0,3.7,0.5,5.3,1.3c1.2,0.1,2.1,0.5,3.2,0.8c0.3-0.3,0.4-0.5,0.6-0.8c0-0.2,0.1-0.4,0.1-0.7
		c0.4-0.5,0.9-0.9,1.5-1.3c1.5-2.1,2.9-4.3,4.1-6.8c-4.9,0-9-4.1-9-9c0-0.9,0.1-2,0.5-2.9c-0.4,0.1-0.7,0.1-1.1,0.1c0,0-0.1,0-0.1,0
		c0,0,0,0,0,0c-0.5,0-1-0.1-1.6-0.2c-0.1,0-0.1,0-0.2,0c-0.1,0-0.2-0.1-0.3-0.1c-1.4-0.3-3-1.1-4.1-2.6c-0.4-0.5-0.9-1.2-1.2-1.9
		c-1.6,0.4-2.9,0.5-3.2,0.1c-0.1-0.1,0-0.3,0.1-0.4c-0.1-1.5,9.9-4.2,13.1-11.3c0.6-1.3,0.9-2.8,0.9-4.5c0-8.9-7.2-16.6-16.1-16.1
		c-4.4,0.3-7.5,2.4-9.8,4.9c-2.6,2.9-4.1,6.3-5.1,8.1c-0.5,0.9-0.9,1.5-1.2,1.5c-1.5,0,0-5,2.5-8.9c0.1-0.1,0.2-0.3,0.2-0.4
		c-0.1-0.1-0.1-0.2-0.2-0.3c0,0,0,0,0,0c-1.4-1.3-2.2-3.1-2.4-5.1c-0.8-0.2-1.4-0.7-2-1.2c-1-0.9-1.6-2.1-1.6-3.4
		c0-0.5,0.3-1.2,0.4-1.7c0,0-0.1-0.1-0.1-0.1c-3-2.3-4.7-6.1-4.7-10.1c0-0.5,0-1,0-1.3c-0.4,0-0.8-0.1-1.2-0.1
		c0.3,0.8,0.4,1.7,0.4,2.7c0,0.4-0.1,0.9-0.1,1.3c0,0.3-0.1,0.5-0.1,0.7c0.2,0.6,0.3,1.3,0.3,1.9c0,1.5-0.3,2.8-0.9,3.9
		c-0.6,1.4-1.5,2.4-2.6,2.5l-25.3,5c1.5,0.7,2.6,2.4,2.6,4.3c0,1.1-0.4,2-1,2.8c-0.8,1.4-2.3,2.3-4.1,2.3c-2.7,0-4.8-2.1-4.8-4.8
		c0-1.1,0.4-2.3,1.1-3.1c0.1-0.2,0.3-0.3,0.4-0.5l-0.8,0.1c-9.7,2-19.5,2-29.2,0l-2.1-0.4c0.9,0.9,1.5,2.1,1.5,3.4
		c0,0.7-0.1,1.3-0.4,1.9c-0.6,1.9-2.4,3.3-4.5,3.3c-2.5,0-4.8-2.1-4.8-4.8c0-0.9,0.2-1.7,0.6-2.4c0.5-1.1,1.4-2,2.5-2.5l-13.5-2.7
		c-1.3,5.6-2.1,11.4-2.1,17.6c0,12.2,3.2,23.8,8.5,33.8c-1.7,2.9-2.9,6.4-2.9,10.1c0,10.6,8.5,19.1,19.1,19.1c0,0,0,0,0.1,0
		c0,0,0.1,0,0.1,0c3.1,0,6.3-0.8,8.8-2.4C433.5,207.5,435.1,208.5,436.7,209.3z M415.5,156.6c0-0.4,0-0.9,0-1.3
		c0-8.6,7-15.8,15.8-15.8c2.3,0,4.4,0.5,6.4,1.4c0.2,0.1,0.5,0.2,0.7,0.3c0.1,0.1,0.3,0.1,0.4,0.2c5.1,2.6,8.6,8,8.6,14
		c0,1.3-0.1,2.8-0.5,4.1c1.2,1.2,2,2.9,2,4.8c0,3.7-2.9,6.8-6.8,6.8c-1.4,0-2.5-0.4-3.5-1c-0.2-0.1-0.3-0.2-0.5-0.3
		c-2,0.8-4.1,1.3-6.3,1.3c-2.5,0-5.2-0.5-7.3-1.7c-1.2,0.8-2.5,1.2-4,1.2c-1.3,0-2.5-0.3-3.6-0.9c-2.5-1.2-4.3-3.8-4.5-6.9
		C412.3,160.2,413.5,157.9,415.5,156.6z M422.7,202.8c-7.2,0-12.6-6-12.6-13c0-2.7,0.8-5.2,2.2-7.3c0.5-0.7,1-1.4,1.6-2v0.2
		c1.7-1.7,3.7-2.7,6-3.2c0.1,0,0.2-0.1,0.4-0.1c0.2,0,0.4-0.1,0.7-0.2c0,0,0.1,0,0.1,0V177c0.5-0.1,1.2-0.1,1.7-0.1
		c7.2,0,12.9,5.7,12.9,12.9c0,3.1-1.1,6-2.9,8.2C430.4,200.9,426.8,202.8,422.7,202.8z"/>
	<path display="inline" fill="#3A3A3A" d="M568.5,269.9c-2,2.8-5.2,4.5-8.8,4.5c0,0,0,0-0.1,0c0,0.4,0.1,0.8,0.1,1.2
		c0,6-4.8,10.6-10.6,10.6c-0.1,0-0.4,0-0.4,0c-1.3,4.4-5.3,7.6-10.1,7.6c-1.8,0-3.4-0.5-4.9-1.3c-0.9-0.4-1.7-1-2.4-1.6
		c-2,1.7-4.5,2.9-7.2,2.9c-2.1,0-4-0.6-5.6-1.7c-1.6-1-2.9-2.3-3.8-3.9l-2.4,0.8l-0.6,0.2c-0.5,0.2-0.9,0.4-1.4,0.4l-0.9,0.3
		l-65.5,22.2l5.3,63c0.8,5.6,6,9.4,11.4,8.8l72.7-3.7l36.5-2l8.9-0.4c4.9-0.5,8.8-4.5,9-9.4L568.5,269.9z"/>
	<path display="inline" fill="#3A3A3A" d="M463.1,215.5c-0.4,0.5-0.8,1.2-1.2,1.7c-3.3,5.6-6.5,11.3-9,17l23.5-13.4
		c0-0.1-0.1-0.2-0.1-0.2l-0.2,0.1c-0.4-1.2-0.5-2.1-0.5-3.3c0-5.8,4.6-10.6,10.6-10.6c0,0,0,0,0,0c0,0,0.1,0,0.1,0
		c2,0,4,0.5,5.5,1.6c-0.8-1.3-1.1-2.8-1.1-4.4c0-5.8,4.6-10.6,10.6-10.6c0,0,0,0,0.1,0c0,0,0,0,0.1,0c2.1,0,4,0.5,5.9,1.7
		c1.2-3.6,4.2-6,7.9-6.8c0,0,0,0,0.1,0c-1.6-0.1-3.3-0.1-4.9-0.1C490.2,188,472.6,199,463.1,215.5z"/>
	<path display="inline" fill="#3A3A3A" d="M525.2,191.3c0.1-0.4,0.4-0.8,0.8-1.2c-0.9-0.4-2.1-0.5-3.2-0.8
		C523.6,189.7,524.6,190.5,525.2,191.3z"/>
	<path display="inline" fill="#4C3C20" d="M433.8,573.1v-18.8h0.1c0-7.3,3.2-13.8,8.5-19c-1.5-1.8-3.3-3.4-5.3-4.8
		c-0.9-0.6-1.7-1.2-2.7-1.7c-5.7-3.3-12.9-5.3-20.3-5.3c-19.5,0-35.4,13-35.4,29.2v20.6h0.1v-0.1H433.8z"/>
	<path display="inline" fill="#BCA888" d="M453.3,582.5c0.9,0.1,2,0.1,2.9-0.4l1.6-0.8l-1.2-0.5L453.3,582.5z"/>
	<path display="inline" fill="#BCA888" d="M468.6,582.5c0.9,0.1,2,0.1,2.9-0.4l1.6-0.8l-1.2-0.5L468.6,582.5z"/>
	<path display="inline" fill="#BCA888" d="M439.1,582.1c-0.4,0.1-0.8,0.4-1.2,0.4c0.9,0.4,2.1,0.4,3.2-0.1l1.6-0.8l-1.2-0.5
		L439.1,582.1z"/>
	<path display="inline" fill="#BCA888" d="M433.7,574.8V574h0.3v-0.9h-0.1h-54.9v0.1v4.8c0,2.1,2.9,3.6,5.2,2.1l2.4-1.3l5.7,3.3
		c1.2,0.5,2.5,0.5,3.7,0l5.7-3.3l5.7,3.3c1.2,0.5,2.5,0.5,3.7,0l5.7-3.3l5.7,3.3c1.2,0.5,2.5,0.5,3.7,0l5.7-3.3l2.1,1.3
		c0-0.1,0-0.1,0-0.4v-4.9h0v0H433.7z"/>
	<polygon display="inline" fill="#D7EDF4" points="499.9,537 499.9,537 499.9,537 	"/>
	<path display="inline" fill="#D7EDF4" d="M504.8,554.3H533c0.1-0.4,0.1-0.7,0.1-1.1V541c0-1.7-1.2-3.2-2.8-3.6
		c-0.4,0-0.5-0.1-0.9-0.1h-29.5V537c-0.4,0-0.5,0-0.9,0.1c-0.4,0-0.5,0.1-0.9,0.4c0,0,0.1,0.1,0.1,0.1
		C502.1,542.3,504.5,548.2,504.8,554.3z"/>
	<path display="inline" fill="#68542B" d="M458.7,526.5c-0.9,0.2-1.8,0.5-2.6,0.8c0,0-0.1,0-0.1,0c-1,0.3-1.9,0.7-2.9,1.1
		c-0.1,0.1-0.3,0.1-0.4,0.2c-0.7,0.3-1.3,0.6-1.9,0.9c-0.6,0.3-1.3,0.7-1.9,1.1c-0.1,0-0.2,0.1-0.2,0.1c-2.3,1.4-4.3,2.9-6.2,4.7
		c-5.3,5.2-8.5,11.7-8.5,19v18.7v0.9h105.6v0.8h0.3v-16.5c0-2.1-1.7-4.1-4.1-4.1h-2.5H533h-28.2c-0.3-6.1-2.7-11.9-6.6-16.6
		c0,0-0.1-0.1-0.1-0.1c-6.4-7.5-16.9-12.3-28.7-12.3c-0.9,0-2,0-3.2,0.1c-1.7,0.1-3.4,0.3-5.1,0.6c-0.1,0-0.2,0-0.3,0.1
		C460.1,526.2,459.4,526.3,458.7,526.5z"/>
	<path display="inline" fill="#E5CDA1" d="M433.9,574L433.9,574h-0.3v0.8h0.3v0v4.9c0,0.1,0,0.1,0,0.4c0.1,1.6,2.1,2.5,4,2.1
		c0.4,0,0.8-0.1,1.2-0.4l2.4-1.3l1.2,0.5l4.5,2.5c1.2,0.5,2.5,0.5,3.7,0l2.4-1.3l3.2-2l1.2,0.5l4.5,2.5c1.2,0.5,2.5,0.5,3.7,0
		l2.4-1.3l3.2-2l1.2,0.5l4.5,2.5c1.2,0.5,2.5,0.5,3.7,0l5.7-3.3l5.7,3.3c1.2,0.5,2.5,0.5,3.7,0l5.7-3.3l5.7,3.3
		c1.2,0.5,2.5,0.5,3.7,0l5.7-3.3l5.7,3.3c1.2,0.5,2.5,0.5,3.7,0l5.7-3.3l2.4,1.3c2.1,1.2,5.2,0,5.2-2.1v-4.1V574H433.9z"/>
	<path display="inline" fill="#444444" d="M411.1,133.6c-0.3,0.6-0.5,1.3-0.5,2c0,2.5,2.1,4.8,4.8,4.8c1.9,0,3.6-1.2,4.4-2.9
		c0.3-0.6,0.4-1.2,0.4-1.9c0-1.3-0.5-2.6-1.5-3.4c-0.2-0.2-0.4-0.4-0.7-0.5l-3.7-0.8c-0.2,0.1-0.5,0.2-0.7,0.3
		C412.5,131.6,411.6,132.5,411.1,133.6z"/>
	<path display="inline" fill="#444444" d="M449.6,135.6c0,2.5,2.1,4.8,4.8,4.8c1.5,0,2.9-0.8,3.8-1.9c0.6-0.8,1-1.8,1-2.8
		c0-1.9-1.1-3.6-2.6-4.3c-0.2-0.1-0.4-0.2-0.6-0.2l-4.8,0.9c-0.1,0.1-0.2,0.3-0.4,0.4c-0.1,0.2-0.3,0.3-0.4,0.5
		C449.9,133.7,449.6,134.6,449.6,135.6z"/>
	<path display="inline" fill="#E2BB7D" d="M416.8,169.6c1,0.5,2.2,0.8,3.4,0.8c1.3,0,2.8-0.4,4-1.2c2.1,1.2,4.8,1.7,7.3,1.7
		c2.1,0,4.4-0.4,6.4-1.3c0.1,0.1,0.2,0.1,0.2,0.1c0.2,0.1,0.3,0.2,0.5,0.3c1,0.5,2.1,0.9,3.3,0.9c3.7,0,6.8-2.9,6.8-6.8
		c0-1.7-0.8-3.6-2-4.8c0.4-1.3,0.5-2.8,0.5-4.1c0-6-3.4-11.2-8.3-13.9c-0.1-0.1-0.3-0.1-0.4-0.2c-0.2-0.1-0.4-0.2-0.7-0.3
		c-2-0.9-4.1-1.4-6.4-1.4c-8.8,0-15.8,7.2-15.8,15.8c0,0.4,0,0.9,0,1.3c-2,1.3-3.2,3.6-3.2,6.1C412.5,165.8,414.3,168.3,416.8,169.6
		z"/>
	<path display="inline" fill="#444444" d="M423.1,202.4c4,0,7.4-1.7,9.7-4.4c1.8-2.2,2.9-5,2.9-8.2c0-7.2-5.7-12.9-12.9-12.9
		c-0.5,0-1.2,0-1.7,0.1v0.1v0v10.5v0.1v0.1h-7.2v-0.3v-6.9v-0.1v-0.2c-0.6,0.6-1.2,1.3-1.6,2c-1.3,2-2.1,4.5-2.1,7
		C410.2,196.6,415.9,202.4,423.1,202.4z"/>
	<path display="inline" fill="#FFFFFF" d="M413.9,187.6v0.3h7.2v-0.1v-0.1v-10.5c-0.3,0-0.5,0.1-0.8,0.2c-0.1,0-0.2,0.1-0.4,0.1
		c-2.3,0.6-4.4,1.8-6,3.3V187.6z"/>
	<path display="inline" fill="#D38A54" d="M512.2,77.7c-0.1,0-0.1-0.1-0.3-0.2c0,0.1,0,0.4-0.1,0.6C512,78,512.1,77.9,512.2,77.7z"
		/>
	<path display="inline" fill="#D38A54" d="M540.3,174.1c-1.5,1.5-3.5,2.3-6,2.3c-4.9,0-9-4.1-9-9c0-0.9,0.1-2,0.5-2.9
		c-0.4,0-0.8,0.1-1.2,0.1c-2.1,0-4-0.8-5.6-2.1c-0.9,0.4-2.4,0.9-3.7,1.2c0.3,0.8,0.6,1.4,1,1.9c1.1,1.5,2.6,2.2,4.1,2.6
		c0.1,0,0.2,0.1,0.3,0.1c0.1,0,0.1,0,0.2,0c0.6,0.1,1.1,0.2,1.6,0.2c0,0,0.1,0,0.1,0c0.4,0,0.7,0,1.1-0.1c0,0,0.1,0,0.1,0
		c-0.4,0.9-0.5,2-0.5,2.9c0,4.9,4.1,9,9,9c4.3,0,7.9-3.1,8.8-7.1C540.8,173.6,540.6,173.9,540.3,174.1z"/>
	<path display="inline" fill="#D38A54" d="M414,108.5c2.7,0.1,4.6-1.1,5.8-2.9c0.1,0.1,0.2,0.1,0.3,0.2c2.5,1.9,5.6,3,9,3
		c2,0,3.8-0.3,5.5-1c0.5-0.2,0.9-0.4,1.4-0.6c0,0,0,0,0.1,0.1c1.3,1.3,3.3,2.1,5.5,2.1c1,0,2-0.2,2.9-0.5c2.5-0.9,4.3-3.1,4.7-5.7
		c-1.4,1.4-3.3,2.2-5.5,2.2c-0.1,0-0.1,0-0.2,0c-0.1,0-0.1,0-0.2,0c-2.1,0-3.9-0.8-5.4-2c-2.1,1-4.2,1.5-6.7,1.5c-0.1,0-0.2,0-0.2,0
		c-0.1,0-0.1,0-0.2,0c-3.5,0-6.5-1.1-9-3c-1.2,1.9-3.1,3-5.4,3c-0.1,0-0.1,0-0.2,0c-0.1,0-0.1,0-0.2,0c-3.7,0-6.8-2.9-6.8-6.8
		c0,0,0,0,0-0.1c0-0.2-0.1-0.5-0.1-0.7c0-0.6,0.1-1.1,0.2-1.7c-3.6,4.4-2.3,8.4,0.2,10.8c0.2,0.2,0.4,0.3,0.6,0.5
		c1.1,0.9,2.5,1.5,3.6,1.6C413.8,108.5,413.9,108.5,414,108.5z"/>
	<path display="inline" fill="#D38A54" d="M496.2,127.3c-2-0.5-3.6-2.4-3.6-4.5c0-0.5,0.1-1.3,0.4-1.7c-2.9-2.5-4.8-6.1-4.8-10.2
		c0-0.5,0-0.9,0-1.6c-2.5,0-4.8-1.2-6.4-2.9c0,0-0.1,0-0.1,0c-0.1,0-0.3,0-0.4,0c-4,0-7.5-1.5-10.3-4.2c-2.2,2.3-5.3,3.5-8.6,3.5
		c-0.1,0-0.1,0-0.2,0c-0.1,0-0.1,0-0.2,0c-4.6,0-8.6-2.6-10.7-6.4c-0.3,1.4-0.9,2.7-1.9,3.7c0.1,0.1,0.2,0.3,0.2,0.4
		c2.1,3.7,6,6.3,10.6,6.3c1.4,0,2.7-0.2,4-0.7c1.8-0.6,3.5-1.6,4.8-3c0.1,0.1,0.1,0.1,0.2,0.2c2.8,2.4,6.4,4.2,10.3,4.2
		c0,0,0.1,0,0.1,0l1.3-0.3h0.1c1.3-0.4,2.5,0.8,3.3,2.4c0.1,0.2,0.2,0.4,0.3,0.6c0.4,0.1,0.9,0.2,1.3,0.2c0,0.1,0,0.2,0,0.2
		c0,0.4,0,0.8,0,1.3c0,4.1,1.7,7.8,4.7,10.1c0,0,0.1,0.1,0.1,0.1c0,0,0,0,0,0c-0.1,0.5-0.4,1.2-0.4,1.7c0,1.3,0.6,2.6,1.6,3.4
		c0.6,0.5,1.2,0.9,2,1.1c0,0.1,0,0.1,0,0.2c0.2,2,0.9,3.8,2.4,5.1c0,0,0,0,0,0c0.8-1.3,1.7-2.5,2.5-3.3
		C497.4,131.6,496.2,129.6,496.2,127.3z"/>
	<path display="inline" fill="#F7A561" d="M409.3,98c0.7,4,3.4,6.7,7,6.8c0.1,0,0.1,0,0.2,0c2.3,0,4.2-1.1,5.4-3
		c0-0.1,0.1-0.1,0.1-0.2c2.5,1.9,5.6,3.1,9,3.2c0.1,0,0.2,0,0.2,0c2.4,0,4.6-0.5,6.7-1.5c0.1,0,0.2-0.1,0.2-0.1
		c1.3,1.3,3.2,2.1,5.4,2.1c0.1,0,0.1,0,0.2,0c2.2,0,4.1-0.9,5.5-2.2c0.1-0.1,0.2-0.2,0.2-0.2c1-1,1.6-2.3,1.9-3.7
		c0-0.1,0.1-0.2,0.1-0.3h0.1c2,3.9,6,6.7,10.7,6.8c0.1,0,0.1,0,0.2,0c3.2,0,6.3-1.3,8.6-3.5c0.1-0.1,0.1-0.1,0.2-0.2
		c2.8,2.5,6.5,4.4,10.5,4.4c0,0,0.1,0,0.1,0c0.1,0,0.3,0,0.4,0c1.6,1.7,3.7,2.9,6.4,2.9c0,0.4,0,0.9,0,1.6c0,4.1,1.7,8,4.8,10.2
		c-0.1,0.5-0.4,1.2-0.4,1.7c0,2.1,1.6,4,3.6,4.5c0.1,2.4,1.2,4.5,2.8,6c0,0,0,0,0,0c3.2-3.3,7.7-5.3,12.9-5.3c0,0,0,0,0,0h0h0
		c9.8,0,17.9,8.1,17.9,17.9c0,0.5,0,0.9-0.1,1.4c-0.4,5.3-3,9.9-6.9,12.8c-1.2,1-2.6,1.8-4.1,2.4c1.6,1.2,3.3,2.1,5.6,2.1
		c0.4,0,0.8,0,1.2-0.1c-0.4,0.9-0.5,2-0.5,2.9c0,4.9,4.1,9,9,9c2.2,0,4.3-0.8,5.9-2.2c0.3-0.3,0.6-0.6,0.8-0.9
		c0.1-0.1,0.1-0.2,0.2-0.2c1.3-1.6,2.1-3.6,2.1-6c0-2.1-0.8-4.1-2.1-5.7c2.9-1.7,4.9-5.2,4.9-8.9c0-2.8-0.9-5.2-2.8-6.9
		c5.3-0.9,9.3-5.6,9.3-11.3c0-3.3-1.3-6.4-3.7-8.4c2.8-2.1,4.5-5.6,4.5-9.4c0-3.8-2-7.6-4.8-9.7c0.1-0.5,0.1-1.2,0.1-1.7
		c0-2.8-2-4.9-4.5-5.6c1.2-2,1.7-4.1,1.7-6.5c0-6.8-5.2-12.2-11.7-13.3c-1.6-3.6-5.2-6-9.3-6.1c0.1-0.5,0.4-1.2,0.4-1.7
		c0-2.9-2.4-5.3-5.3-5.3c0,0,0,0-0.1,0c-0.1-4.4-3.7-8-8.1-8c-2,0-3.7,0.8-5.2,1.7c-3.6-3.7-8.5-6.1-14.1-6.1
		c-4.5,0-8.8,1.6-11.8,4.1c-0.9-1.3-2.5-2.1-4.4-2.1c-1.6,0-2.9,0.5-4,1.7c-3.6-3.6-8.4-5.7-13.7-5.7c-7.6,0-14.1,4.4-17.3,10.6
		c-0.4,0-0.8,0-1.2,0c-2.1,0-4.4,0.5-6.1,1.7c-0.9-0.5-2.4-0.8-3.6-0.8c-4.4,0-8,3.6-8,8c0,0.9,0.1,2.1,0.5,2.9
		c-0.9,0.5-2,1.2-2.9,2c-0.9-0.4-2-0.5-2.9-0.5c-4.4,0-8,3.6-8,8c0,2.9,1.7,5.7,4.4,6.9c-1.3,0.4-2.5,1.3-3.6,2.5
		c-0.5,0.5-0.8,1.3-1,2c-0.1,0.6-0.2,1.1-0.2,1.7C409.2,97.5,409.2,97.7,409.3,98z M512,77.5c0.1,0,0.1,0,0.4,0.1
		c0,0-0.1,0.1-0.1,0.1c-0.1,0.1-0.2,0.2-0.3,0.3c0,0-0.1,0.1-0.1,0.1C511.8,78.2,512,77.9,512,77.5z"/>
	<path display="inline" fill="#E8BF7E" d="M512.1,163.6c0.1,0.4,1.6,0.1,3.2-0.1c1.3-0.4,2.8-0.8,3.7-1.2c1.5-0.5,2.9-1.3,4.2-2.3
		c3.9-2.9,6.5-7.5,6.9-12.8c0-0.5,0.1-0.9,0.1-1.4c0-9.8-8.1-17.9-17.9-17.9h0c0,0,0,0,0,0c-4.9,0-9.4,2-12.9,5.3c0,0,0,0,0,0l0,0
		c-0.8,0.8-1.7,2-2.5,3.3c0,0.1-0.1,0.2-0.1,0.2c-0.1,0.1-0.2,0.3-0.2,0.4c-2.2,3.9-3.9,8.6-2.4,8.6c0.3,0,0.6-0.5,1-1.2
		c1-1.8,2.5-5.2,5.1-8.1c2.3-2.6,5.4-4.8,9.9-5.2c8.9-0.5,16.1,7.2,16.1,16.1c0,1.8-0.4,3.3-1,4.7c-3.3,7-13.3,9.8-13.1,11.3
		C512,163.5,512.1,163.6,512.1,163.6z"/>
	<path display="inline" fill="#D19262" d="M484.4,123.8c0.5-1,0.9-2.4,0.9-3.9c0-0.6-0.1-1.3-0.3-1.9c-0.4,1.7-1.1,2.9-2,3.5
		c-0.4,0.4-0.8,0.6-1.3,0.8l-31.6,6.1c-4.8,1-9.7,1.5-14.6,1.5s-9.8-0.5-14.6-1.5l-31.8-6.1c-1.3-0.4-2.5-1.7-2.9-4
		c0,0.4,0,0.9,0,1.3c0,3.2,1.3,5.7,3.2,6l11,2.1l14.1,2.8l3.7,1.1l2.9,0.5c9.7,2,19.5,2,29.2,0l0.9-0.1l4.8-0.9l26.1-5.2
		C483,125.7,483.8,124.9,484.4,123.8z"/>
	<path display="inline" fill="#F7A561" d="M389.1,122.3l31.8,6.1c4.8,1,9.7,1.5,14.6,1.5c4.9,0,9.8-0.5,14.6-1.5l31.8-6.4
		c0.4-0.1,0.7-0.3,1-0.5c0.9-0.7,1.6-1.9,2-3.5c0.1-0.2,0.1-0.5,0.1-0.7c0-0.4,0.1-0.9,0.1-1.3c0-1-0.1-1.9-0.4-2.7
		c0-0.1-0.1-0.2-0.1-0.3c-0.1-0.2-0.2-0.4-0.3-0.6c-0.8-1.6-2-2.8-3.3-2.4H481l-1.3,0.3l-29.3,5.8c-9.7,2-19.5,2-29.2,0l-14.7-2.9
		l-0.2,0l-16.1-3.2c-2.1-0.4-4.1,2.4-4.1,6c0,0.8,0.1,1.6,0.1,2.4c0,0,0,0,0,0C386.6,120.6,387.8,121.9,389.1,122.3z"/>
	<path display="inline" fill="#757575" d="M526.6,188.4c0,0.3,0,0.5-0.1,0.7c-0.1,0.3-0.2,0.6-0.5,1c-0.1,0.4-0.5,0.8-0.8,1.2
		c-0.8-0.8-1.6-1.6-2.5-2c-1.6-0.9-3.3-1.3-5.3-1.3c-0.8,0-1.3,0.1-2,0.1c0,0,0,0-0.1,0c-3.7,0.8-6.7,3.3-7.9,6.8c0,0,0,0,0,0.1
		c-1.7-1.2-3.7-1.7-5.9-1.7c0,0,0,0-0.1,0c-6,0-10.6,4.8-10.6,10.6c0,1.5,0.4,3.1,1.1,4.4c0,0,0,0.1,0.1,0.1
		c-1.6-0.9-3.6-1.7-5.7-1.7c0,0,0,0,0,0c-6,0-10.6,4.8-10.6,10.6c0,1.2,0.1,2.1,0.5,3.3l0.2-0.1l27-15.6c6.8-4.5,14.9-7.3,23.5-7.3
		c11.6,0,22.2,4.7,29.8,12.4c7.7,7.6,12.4,18.2,12.4,29.8c0,17.1-10.5,32.1-25.5,38.5v0.1l-28.8,9.7l-0.1,0c0.9,1.6,2.2,2.9,3.8,3.9
		c1.6,1,3.4,1.5,5.4,1.5c2.8,0,5.3-1.2,7.3-2.9c0.1,0.1,0.1,0.1,0.2,0.2c0.7,0.6,1.6,1.2,2.4,1.6c1.4,0.7,3,1.1,4.7,1.1
		c4.8,0,8.8-3.2,10.1-7.6c0.1,0,0.4,0,0.4,0c6,0,10.6-4.8,10.6-10.6c0-0.4,0-0.8-0.1-1.2c0,0,0,0,0.1,0c3.6,0,6.8-1.7,8.8-4.5
		c1.2-1.7,2-3.7,2-6.1c0-2-0.5-4-1.6-5.6c5.3-0.5,9.4-4.9,9.4-10.5c0-2-0.5-3.7-1.3-5.3c0.9-1.6,1.3-3.3,1.3-5.3
		c0-3.7-1.7-6.9-4.8-8.8c0.9-1.6,1.6-3.3,1.6-5.3c0-4.8-3.2-8.8-7.6-10.1c0-0.1,0-0.4,0-0.5c0-6-4.8-10.6-10.6-10.6h-0.1
		c-0.9-4.9-5.2-8.8-10.5-8.8c-0.5,0-1.2,0-1.7,0.1c-1.2-4.5-5.3-8-10.2-8c-2.2,0-4.4,0.7-6.1,2C527.5,187.5,527,187.9,526.6,188.4z"
		/>
	<path display="inline" fill="#757575" d="M511.6,289.2l-1.4,0.4C510.6,289.6,511.1,289.4,511.6,289.2z"/>
	<path display="inline" fill="#F2C681" d="M400.7,256.5c5.3-15,11.5-29.4,18.5-41.7c-2.1,0.1-4.1,0.4-6.1,0.8l-26.3,3.7l0.1,0.3
		L400.7,256.5z"/>
	<path display="inline" fill="#F2C681" d="M327.7,227.9l-18.5,2.8h-90.9c0.1-0.5,0.1-1.3,0.1-2c0-6.4-5.2-11.4-11.4-11.4
		c-4,0-7.3,2-9.3,4.9c-3.3-0.9-6.8-1.6-10.5-1.6c-20.2,0-36.5,16.5-36.5,36.5c0,20.2,16.5,36.5,36.5,36.5c7.7,0,15-2.4,21-6.5h152.9
		l-19.6-52.8c-4.9-1.2-9.3-3.2-13.3-5.9C328,228.1,327.9,228,327.7,227.9z"/>
	<path display="inline" fill="#FFD385" d="M510.4,228.9c0.3,0.1,0.4,0,0.8,0c0.9-0.3,1.6-0.5,2.3-0.7c-0.1,0.1-0.2,0.2-0.2,0.3
		c-0.1,0.1-0.1,0.4-0.1,0.5c0,0.1,0,0.4,0.1,0.5c0.1,0.1,0.3,0.2,0.5,0.3c-0.1,0.1-0.2,0.2-0.3,0.3c-0.3,0.1-0.3,0.4-0.4,0.5
		c-0.1,0.1-0.1,0.4-0.1,0.5c0,0.1,0,0.4,0.1,0.5c0.4,0.4,0.7,0.4,0.8,0.5c0.4,0,0.5,0,0.9,0l2.5-0.9c-0.1,0.1-0.2,0.2-0.2,0.3
		c-0.1,0.4-0.1,0.5-0.1,0.8c0,0.1,0,0.5,0.1,0.8c0,0,0.1,0.1,0.1,0.1c-0.2,0.2-0.3,0.3-0.4,0.5c0,0.3-0.1,0.4-0.1,0.8
		c0,0.4,0,0.7,0.1,0.8c0.4,0.4,0.8,0.8,1.2,0.9s0.8,0.4,1.2,0.5c0.5,0,0.9,0.1,1.3,0.1h0.5c0,0,0,0,0,0c0,0.1,0,0.1,0,0.1
		c0,0.4,0,0.9,0,1.6s0.4,1.1,0.8,1.6c0.1,0.4,0.5,0.7,0.9,0.8c0.4,0.3,0.8,0.4,1.2,0.4s0.9,0,1.3,0c0.4,0,0.9,0,1.3-0.1
		c0.5-0.1,0.9-0.4,1.3-0.5c0.4-0.3,0.8-0.7,1.2-0.8c0.4-0.1,0.5-0.5,0.9-0.9c0.4-0.4,0.7-0.9,0.8-1.3h0.1c0.1,0.4,0,0.8,0.1,1.2
		h-0.1c-0.4,0.1-0.8,0.5-1.2,0.8c-0.4,0.1-0.8,0.5-1.2,0.8c-0.4,0.1-0.5,0.4-0.8,0.8c-0.1,0.1-0.4,0.4-0.5,0.5
		c-0.1,0.1-0.4,0.4-0.4,0.5c-0.1,0.1-0.1,0.4-0.1,0.8c0,0.1,0.1,0.4,0.4,0.8c0.1,0.1,0.1,0.1,0.2,0.2c-0.2,0.1-0.2,0.4-0.3,0.5
		c-0.1,0.4-0.1,0.7-0.1,0.8c0,0.4,0.3,0.7,0.4,0.8c0.1,0.3,0.4,0.4,0.5,0.4c0.3,0.1,0.4,0,0.8,0c0.6-0.2,1.2-0.4,1.8-0.5
		c0,0,0,0.1,0,0.1c-0.1,0.1-0.1,0.4-0.1,0.5c0,0.1,0,0.4,0.1,0.5c0.1,0.1,0.4,0.3,0.7,0.5c-0.1,0.1-0.1,0.1-0.2,0.2
		c-0.3,0.1-0.3,0.4-0.4,0.5c-0.1,0.1-0.1,0.4-0.1,0.5c0,0.1,0,0.4,0.1,0.5c0.4,0.4,0.7,0.4,0.8,0.5c0.4,0,0.5,0,0.9,0l2-0.7
		c0,0-0.1,0.1-0.1,0.2c-0.1,0.4-0.1,0.5-0.1,0.8c0,0.3,0,0.5,0.1,0.8c0.1,0.1,0.2,0.2,0.3,0.3c-0.1,0.1-0.1,0.2-0.2,0.3
		c0,0.3-0.1,0.4-0.1,0.8c0,0.4,0,0.7,0.1,0.8c0.4,0.4,0.8,0.8,1.2,0.9c0.4,0.1,0.7,0.5,1.2,0.5c0.3,0,0.5,0,0.7,0.1c0,0,0,0-0.1-0.1
		c-0.1-0.1-0.1-0.4,0-0.5c0-0.3,0.1-0.7,0.5-0.8c0.2-0.2,0.3-0.3,0.5-0.4c0.1,0,0.1,0,0.2,0c0.1,0.1,0.4,0.1,0.5,0.1
		c0.1,0,0.4,0,0.5,0c0.6,0,0.9,0,1.5-2.1c0.1-0.1,0.2-0.1,0.4-0.2c0.4-0.4,0.8-0.5,1.2-0.9c0.4-0.3,0.4-0.7,0.4-0.8
		c0-0.3-0.3-0.7-0.4-0.8c-0.1-0.1-0.2-0.1-0.2-0.2c0.2-0.1,0.3-0.3,0.5-0.5c0.1-0.1,0.4-0.5,0.4-0.8c0-0.1-0.1-0.5-0.4-0.8
		c-0.1-0.1-0.4-0.4-0.8-0.4c-0.4,0-0.5,0-0.9,0s-0.8,0-1.3,0.1c-0.2,0-0.3,0.1-0.5,0.1c0-0.1,0.1-0.2,0.1-0.3c0-0.3-0.1-0.5-0.4-0.8
		c-0.1-0.1-0.1-0.1-0.2-0.2c0.1-0.1,0.4-0.4,0.5-0.5c0.1-0.1,0.4-0.4,0.4-0.8c0-0.4-0.1-0.5-0.4-0.8c-0.1-0.1-0.5-0.4-0.8-0.4
		c-0.3,0-0.5,0-0.9,0c-0.4,0-0.7,0-1.2,0.1c0.1-0.2,0.1-0.2,0.1-0.4c0-0.3-0.1-0.3-0.1-0.4s-0.3-0.4-0.4-0.5
		c-0.1-0.1-0.2-0.2-0.2-0.2c0,0,0.1-0.1,0.1-0.2c0.1-0.1,0.1-0.1,0.4-0.1c0.1-0.1,0.4-0.1,0.4-0.4c0-0.1,0.1-0.1,0.1-0.4
		c0-0.3,0-0.1-0.1-0.4c0-0.1-0.1-0.4-0.4-0.5c-0.3-0.1-0.1-0.1-0.4-0.4c-0.3-0.3-0.1-0.1-0.4-0.1c-0.1,0-0.1,0-0.4,0
		c-0.1,0-0.4,0.1-0.5,0.1c-0.1,0.1-0.5,0.1-0.8,0.4c-0.1,0.1-0.4,0.1-0.8,0.4c0-0.1,0-0.1,0-0.4c0-0.5,0-1.3,0-2s-0.1-1.3-0.5-2
		c-0.1-0.5-0.5-1.2-1.2-1.7c-0.7-0.5-1.2-1.2-2-1.3c-0.5-0.4-1.3-0.4-2.1-0.4c-0.8,0-1.3,0.1-2.1,0.4c-0.8,0.1-1.3,0.8-2,1.3
		c-0.4,0.1-0.5,0.5-0.8,0.9c-0.1,0-0.1,0-0.4,0c-0.1,0-0.4,0-0.5-0.1c0,0-0.1,0-0.2,0c0.2-0.2,0.5-0.3,0.7-0.5
		c0.4-0.3,0.8-0.5,1.2-0.8c0.4-0.3,0.8-0.7,1.2-0.8c0.4-0.4,0.8-0.5,1.2-0.9c0.4-0.3,0.4-0.4,0.4-0.8c0-0.3-0.3-0.7-0.4-0.8
		c-0.1-0.1-0.2-0.1-0.2-0.2c0.2-0.1,0.3-0.3,0.5-0.5c0.1-0.1,0.4-0.5,0.4-0.8c0-0.4-0.1-0.5-0.4-0.8c-0.1-0.1-0.4-0.4-0.8-0.4
		c-0.4,0-0.5,0-0.9,0c-0.4,0-0.8,0-1.3,0.1c-0.1,0-0.3,0-0.5,0c0-0.1,0.1-0.2,0.1-0.3c0-0.3-0.3-0.7-0.4-0.8
		c-0.1-0.1-0.1-0.1-0.2-0.2c0.1-0.1,0.4-0.4,0.5-0.5c0.1-0.1,0.4-0.4,0.4-0.8s-0.1-0.5-0.4-0.8c-0.1-0.1-0.5-0.4-0.8-0.4
		c-0.4,0-0.5,0-0.9,0c-0.4,0-0.7,0-1.2,0.1c0.1-0.2,0.1-0.1,0.1-0.4c0-0.3-0.1-0.3-0.1-0.4s-0.3-0.4-0.4-0.5
		c-0.1-0.1-0.1-0.2-0.2-0.2c0,0,0.1-0.1,0.1-0.2c0.1-0.1,0.1-0.1,0.4-0.1c0.1-0.1,0.4-0.1,0.4-0.4c0-0.3,0.1-0.1,0.1-0.4
		c0-0.1,0-0.1-0.1-0.4c0-0.1-0.1-0.4-0.4-0.5c-0.1-0.1-0.1-0.1-0.4-0.4c-0.1,0-0.1-0.1-0.4-0.1c-0.3,0-0.1,0-0.4,0
		c-0.1,0-0.4,0.1-0.5,0.1c-0.1,0.1-0.5,0.1-0.8,0.4c-0.4,0.1-0.8,0.4-1.2,0.5s-0.8,0.4-1.2,0.8c-0.4,0.1-0.8,0.5-1.2,0.8
		c-0.4,0.1-0.8,0.5-1.2,0.8c-0.4,0.1-0.5,0.4-0.8,0.8c-0.1,0.1-0.4,0.4-0.5,0.5c-0.1,0.1-0.4,0.4-0.4,0.5c-0.1,0.1-0.1,0.4-0.1,0.8
		c0,0.1,0.1,0.4,0.4,0.8c0,0,0,0,0,0c0,0-0.1,0.1-0.1,0.1c-0.3,0.1-0.3,0.4-0.4,0.5c-0.1,0.4-0.1,0.7-0.1,0.8c0,0.4,0.3,0.7,0.4,0.8
		C510,228.8,510.1,228.8,510.4,228.9z M521.3,228.1c-0.4,0.4-0.9,0.5-1.3,0.9c-0.2,0.2-0.5,0.4-0.7,0.5c-0.1,0-0.1,0-0.1,0v-0.1
		c0.3,0,0.3-0.1,0.4-0.1c0.1-0.3,0.4-0.3,0.5-0.4c0.1-0.3,0.4-0.3,0.5-0.4c0.1-0.3,0.4-0.3,0.5-0.4
		C521.1,228.1,521.2,228.1,521.3,228.1L521.3,228.1z M517.3,225.2c0.1,0,0.4,0,0.5-0.1l0.1,0.1c-0.3,0.3-0.7,0.5-1.1,0.7
		c-0.3,0-0.5,0.1-0.7,0.1c-0.4,0.1-0.5,0.1-0.5,0.1V226c0.4-0.3,0.8-0.6,1.2-0.8C516.9,225.2,517.1,225.2,517.3,225.2z M520.3,236.3
		c-0.3-0.3-0.3-0.3-0.4-0.4s-0.1-0.4,0-0.5c0-0.1,0-0.3,0.1-0.4c0.2,0,0.4,0,0.7,0h0.1c0,0,0,0,0,0.1c-0.1,0.4-0.1,0.9-0.1,1.3
		C520.7,236.4,520.4,236.3,520.3,236.3z M539,253.2c-0.2,0-0.4,0-0.5,0c0.1-0.1,0.3-0.2,0.4-0.2c0.4-0.3,0.8-0.7,1.2-0.8L539,253.2z
		 M529.2,234.6c0.1,0.1,0.1,0.4,0.1,0.5s0,0.4-0.1,0.5c-0.1,0.1-0.1,0.4-0.4,0.8c-0.1,0.1-0.4,0.4-0.5,0.8c-0.1,0.5-0.5,0.7-0.9,1.1
		c-0.4,0.1-0.8,0.4-1.3,0.5c-0.5,0.1-0.8,0.1-1.2,0.1c-0.1,0-0.2,0-0.3,0c0,0-0.1-0.1-0.1-0.1c-0.3-0.4-0.4-0.7-0.4-0.8
		c0-0.4,0-0.7,0-0.8c0-0.4,0.3-0.7,0.4-0.8c0.1-0.1,0.4-0.4,0.5-0.5c0.4-0.3,0.8-0.4,1.2-0.8s0.9-0.4,1.3-0.5
		c0.4-0.1,0.8-0.1,1.2-0.1C528.9,234.5,529,234.5,529.2,234.6c-0.1-0.1-0.3-0.2-0.4-0.3c-0.1,0-0.3-0.1-0.4-0.1
		C528.8,234.2,529.1,234.4,529.2,234.6z"/>
	<path display="inline" fill="#FFD385" d="M538.6,255.8c-0.1,0-0.1,0-0.2-0.1c0.2,0.4,0.3,1,0.3,2l2-2c-0.7,0-1.1,0-1.6,0
		C539,255.8,538.8,255.8,538.6,255.8z"/>
	<path display="inline" fill="#FFD385" d="M510.2,289.7l1.4-0.4l0.6-0.2l2.4-0.8l0.1,0l28.8-9.7v-0.1c15-6.4,25.5-21.4,25.5-38.5
		c0-11.6-4.7-22.2-12.4-29.8c-7.6-7.5-18-12.2-29.5-12.2c-8.8,0-16.9,2.5-23.5,7.3l-26.9,15.5l-23.5,13.4l-36.9,21.1l-13.3,7.6
		l-0.2-0.5l-1.8-5.1l-0.2-0.4l-0.1-0.4L387,219.6l-0.1-0.3l-3.1-8c3.2-8.1,3.6-17.4,0.1-26.3c-0.5-1.7-1.3-3.3-2.4-4.9
		c2.8-2.1,4.5-5.7,4.5-9.4c0-6.8-5.6-12.2-12.2-12.2c-4.4,0-8.1,2.1-10.2,5.6c-8.4-3.6-17.9-4-27.1-0.5
		c-19.1,7.2-28.8,28.4-21.8,47.4c2.7,7.1,7.3,12.9,12.9,17c0.2,0.1,0.3,0.3,0.5,0.4c3.9,2.8,8.4,4.7,13.3,5.9c0,0,0.1,0,0.1,0
		l19.9,53.3l17.8,47.8l0.8-0.3l0.8-0.3l16.9-6.2l0.1-0.1l0.6-0.2l11.3-4.8l34-11.4l0,0l0,0l65.5-22.2L510.2,289.7z M511.6,215.2
		c6.2-5.6,15.9-5,21.5,1.3c3.3,4,4.2,8.9,3.3,13.4c4.8-0.4,9.6,1.5,12.9,5.2c5.6,6.1,5,15.8-1.5,21.4c-8.5,7.7-39.9-1.3-39.9-1.3
		S502.5,223.2,511.6,215.2z"/>
	<path display="inline" fill="#EF8781" d="M547.8,256.5c6.5-5.6,7-15.3,1.5-21.4c-3.3-3.7-8.1-5.6-12.9-5.2c0.9-4.5,0-9.4-3.3-13.4
		c-5.6-6.4-15.3-6.9-21.5-1.3c-9,8-3.7,39.9-3.7,39.9S539.3,264.2,547.8,256.5z M538.8,257.8c-0.1-1.1-0.2-1.7-0.3-2
		c0.1,0,0.2,0.1,0.2,0.1c0.1,0,0.4,0,0.5,0c0.5,0,0.9,0,1.6,0L538.8,257.8z M509.6,226.9c0.1-0.1,0.1-0.4,0.4-0.5
		c0,0,0.1-0.1,0.1-0.1c0,0,0,0,0,0c-0.3-0.4-0.4-0.7-0.4-0.8c0-0.4,0-0.7,0.1-0.8c0-0.1,0.3-0.4,0.4-0.5c0.1-0.1,0.4-0.4,0.5-0.5
		c0.3-0.4,0.4-0.7,0.8-0.8c0.4-0.3,0.8-0.7,1.2-0.8c0.4-0.3,0.8-0.7,1.2-0.8c0.4-0.4,0.8-0.7,1.2-0.8s0.8-0.4,1.2-0.5
		c0.3-0.3,0.7-0.3,0.8-0.4c0.1,0,0.4-0.1,0.5-0.1c0.3,0,0.1,0,0.4,0c0.3,0,0.3,0.1,0.4,0.1c0.3,0.3,0.3,0.3,0.4,0.4
		c0.3,0.1,0.4,0.4,0.4,0.5c0.1,0.3,0.1,0.3,0.1,0.4c0,0.3-0.1,0.1-0.1,0.4c0,0.3-0.3,0.3-0.4,0.4c-0.3,0-0.3,0-0.4,0.1
		c0,0.1,0,0.1-0.1,0.2c0,0.1,0.1,0.1,0.2,0.2c0.1,0.1,0.4,0.4,0.4,0.5s0.1,0.1,0.1,0.4c0,0.3,0,0.2-0.1,0.4c0.5-0.1,0.8-0.1,1.2-0.1
		c0.4,0,0.5,0,0.9,0c0.3,0,0.7,0.3,0.8,0.4c0.3,0.3,0.4,0.4,0.4,0.8s-0.3,0.7-0.4,0.8c-0.1,0.1-0.3,0.3-0.5,0.5
		c0.1,0.1,0.1,0.1,0.2,0.2c0.1,0.1,0.4,0.5,0.4,0.8c0,0.1,0,0.2-0.1,0.3c0.2,0,0.3,0,0.5,0c0.5-0.1,0.9-0.1,1.3-0.1
		c0.4,0,0.5,0,0.9,0c0.4,0,0.7,0.3,0.8,0.4c0.3,0.3,0.4,0.4,0.4,0.8c0,0.3-0.3,0.7-0.4,0.8c-0.2,0.2-0.3,0.3-0.5,0.5
		c0.1,0.1,0.1,0.1,0.2,0.2c0.1,0.1,0.4,0.5,0.4,0.8c0,0.4,0,0.5-0.4,0.8c-0.4,0.4-0.8,0.5-1.2,0.9c-0.4,0.1-0.8,0.5-1.2,0.8
		c-0.4,0.3-0.8,0.5-1.2,0.8c-0.2,0.2-0.5,0.3-0.7,0.5c0.1,0,0.1,0,0.2,0c0.1,0.1,0.4,0.1,0.5,0.1c0.3,0,0.3,0,0.4,0
		c0.3-0.4,0.4-0.8,0.8-0.9c0.7-0.5,1.2-1.2,2-1.3c0.8-0.3,1.3-0.4,2.1-0.4c0.8,0,1.6,0,2.1,0.4c0.8,0.1,1.3,0.8,2,1.3
		c0.7,0.5,1.1,1.2,1.2,1.7c0.4,0.7,0.5,1.3,0.5,2s0,1.5,0,2c0,0.3,0,0.3,0,0.4c0.4-0.3,0.7-0.3,0.8-0.4c0.3-0.3,0.7-0.3,0.8-0.4
		c0.1,0,0.4-0.1,0.5-0.1c0.3,0,0.3,0,0.4,0c0.3,0,0.1-0.1,0.4,0.1c0.3,0.3,0.1,0.3,0.4,0.4c0.3,0.1,0.4,0.4,0.4,0.5
		c0.1,0.3,0.1,0.1,0.1,0.4c0,0.3-0.1,0.3-0.1,0.4c0,0.3-0.3,0.3-0.4,0.4c-0.3,0-0.3,0-0.4,0.1c0,0.1,0,0.1-0.1,0.2
		c0,0,0.1,0.1,0.2,0.2c0.1,0.1,0.4,0.4,0.4,0.5s0.1,0.1,0.1,0.4c0,0.1,0,0.1-0.1,0.4c0.5-0.1,0.8-0.1,1.2-0.1c0.4,0,0.7,0,0.9,0
		c0.3,0,0.7,0.3,0.8,0.4c0.3,0.3,0.4,0.4,0.4,0.8c0,0.4-0.3,0.7-0.4,0.8c-0.1,0.1-0.3,0.3-0.5,0.5c0.1,0.1,0.2,0.1,0.2,0.2
		c0.3,0.3,0.4,0.5,0.4,0.8c0,0.1,0,0.2-0.1,0.3c0.1,0,0.3,0,0.5-0.1c0.5-0.1,0.9-0.1,1.3-0.1s0.5,0,0.9,0c0.4,0,0.7,0.3,0.8,0.4
		c0.3,0.3,0.4,0.7,0.4,0.8c0,0.3-0.3,0.7-0.4,0.8c-0.2,0.2-0.3,0.3-0.5,0.5c0.1,0.1,0.1,0.1,0.2,0.2c0.1,0.1,0.4,0.5,0.4,0.8
		c0,0.1,0,0.5-0.4,0.8c-0.4,0.4-0.8,0.5-1.2,0.9c-0.1,0-0.2,0.1-0.4,0.2c-0.6,2-0.9,2.1-1.5,2.1c-0.1,0-0.4,0-0.5,0
		c-0.1,0-0.4,0-0.5-0.1c0,0-0.1,0-0.2,0c-0.2,0.1-0.3,0.3-0.5,0.4c-0.4,0.1-0.5,0.5-0.5,0.8c-0.1,0.1-0.1,0.4,0,0.5c0,0,0,0,0.1,0.1
		c-0.2,0-0.5-0.1-0.7-0.1c-0.5,0-0.8-0.4-1.2-0.5c-0.4-0.1-0.8-0.5-1.2-0.9c-0.1-0.1-0.1-0.4-0.1-0.8c0-0.4,0.1-0.5,0.1-0.8
		c0-0.1,0.1-0.2,0.2-0.3c-0.1-0.1-0.2-0.2-0.3-0.3c-0.1-0.3-0.1-0.5-0.1-0.8c0-0.3,0-0.4,0.1-0.8c0-0.1,0.1-0.1,0.1-0.2l-2,0.7
		c-0.4,0-0.5,0-0.9,0c-0.1-0.1-0.4-0.1-0.8-0.5c-0.1-0.1-0.1-0.4-0.1-0.5c0-0.1,0-0.4,0.1-0.5c0.1-0.1,0.1-0.4,0.4-0.5
		c0,0,0.1-0.1,0.2-0.2c-0.3-0.1-0.6-0.4-0.7-0.5c-0.1-0.1-0.1-0.4-0.1-0.5c0-0.1,0-0.4,0.1-0.5c0,0,0-0.1,0-0.1
		c-0.5,0.1-1.1,0.3-1.8,0.5c-0.4,0-0.5,0.1-0.8,0c-0.1,0-0.4-0.1-0.5-0.4c-0.1-0.1-0.4-0.4-0.4-0.8c0-0.1,0-0.4,0.1-0.8
		c0.1-0.1,0.1-0.3,0.3-0.5c-0.1-0.1-0.1-0.1-0.2-0.2c-0.3-0.4-0.4-0.7-0.4-0.8c0-0.4,0-0.7,0.1-0.8c0-0.1,0.3-0.4,0.4-0.5
		c0.1-0.1,0.4-0.4,0.5-0.5c0.3-0.4,0.4-0.7,0.8-0.8c0.4-0.3,0.8-0.7,1.2-0.8c0.4-0.3,0.8-0.7,1.2-0.8h0.1c-0.1-0.4,0-0.8-0.1-1.2
		h-0.1c-0.1,0.4-0.4,0.9-0.8,1.3c-0.4,0.4-0.5,0.8-0.9,0.9c-0.4,0.1-0.8,0.5-1.2,0.8c-0.4,0.1-0.8,0.4-1.3,0.5
		c-0.4,0.1-0.9,0.1-1.3,0.1c-0.4,0-0.9,0-1.3,0s-0.8-0.1-1.2-0.4c-0.4-0.1-0.8-0.4-0.9-0.8c-0.4-0.5-0.8-0.9-0.8-1.6s0-1.2,0-1.6
		c0,0,0,0,0-0.1c0,0,0,0,0,0h-0.5c-0.4,0-0.8-0.1-1.3-0.1c-0.4-0.1-0.8-0.4-1.2-0.5s-0.8-0.5-1.2-0.9c-0.1-0.1-0.1-0.4-0.1-0.8
		c0-0.4,0.1-0.5,0.1-0.8c0.1-0.2,0.2-0.4,0.4-0.5c0,0-0.1-0.1-0.1-0.1c-0.1-0.3-0.1-0.7-0.1-0.8c0-0.3,0-0.4,0.1-0.8
		c0.1-0.1,0.2-0.2,0.2-0.3l-2.5,0.9c-0.4,0-0.5,0-0.9,0c-0.1-0.1-0.4-0.1-0.8-0.5c-0.1-0.1-0.1-0.4-0.1-0.5c0-0.1,0-0.4,0.1-0.5
		c0.1-0.1,0.1-0.4,0.4-0.5c0.1-0.1,0.2-0.2,0.3-0.3c-0.2-0.1-0.4-0.3-0.5-0.3c-0.1-0.1-0.1-0.4-0.1-0.5c0-0.1,0-0.4,0.1-0.5
		c0-0.1,0.1-0.2,0.2-0.3c-0.6,0.1-1.4,0.4-2.3,0.7c-0.4,0-0.5,0.1-0.8,0c-0.3-0.1-0.4-0.1-0.5-0.4c-0.1-0.1-0.4-0.4-0.4-0.8
		C509.4,227.6,509.4,227.3,509.6,226.9z"/>
	<path display="inline" fill="#EF8781" d="M528.8,234.3c0.1,0.1,0.3,0.2,0.4,0.3c-0.2-0.1-0.3-0.1-0.5-0.1c-0.4,0-0.8,0-1.2,0.1
		c-0.4,0.1-0.9,0.1-1.3,0.5s-0.8,0.5-1.2,0.8c-0.1,0.1-0.4,0.4-0.5,0.5c-0.1,0.1-0.4,0.4-0.4,0.8c0,0.1,0,0.4,0,0.8
		c0,0.1,0.1,0.4,0.4,0.8c0,0,0.1,0.1,0.1,0.1c0.1,0,0.2,0,0.3,0c0.4,0,0.7,0,1.2-0.1c0.5-0.1,0.9-0.4,1.3-0.5
		c0.4-0.4,0.8-0.5,0.9-1.1c0.1-0.4,0.4-0.7,0.5-0.8c0.3-0.4,0.3-0.7,0.4-0.8c0.1-0.1,0.1-0.4,0.1-0.5s0-0.4-0.1-0.5
		c-0.1-0.2-0.4-0.4-0.8-0.4C528.6,234.3,528.7,234.3,528.8,234.3z"/>
	<path display="inline" fill="#EF8781" d="M520.6,228.5c-0.1,0.1-0.4,0.1-0.5,0.4c-0.1,0.1-0.4,0.1-0.5,0.4c-0.1,0-0.1,0.1-0.4,0.1
		v0.1c0,0,0,0,0.1,0c0.2-0.2,0.5-0.3,0.7-0.5c0.4-0.4,0.9-0.5,1.3-0.9l-0.1-0.1c0,0,0,0-0.1,0.1C521,228.2,520.7,228.2,520.6,228.5z
		"/>
	<path display="inline" fill="#EF8781" d="M520.9,235.1c0-0.1,0-0.1,0-0.1h-0.1c-0.3,0-0.5,0-0.7,0c-0.1,0.1-0.1,0.3-0.1,0.4
		c-0.1,0.1-0.1,0.4,0,0.5s0.1,0.1,0.4,0.4c0.1,0,0.3,0.1,0.5,0.1C520.7,236.1,520.7,235.6,520.9,235.1z"/>
	<path display="inline" fill="#EF8781" d="M538.9,252.9c-0.1,0-0.3,0.1-0.4,0.2c0.2,0,0.3,0,0.5,0l1.1-1.1
		C539.7,252.2,539.3,252.6,538.9,252.9z"/>
	<path display="inline" fill="#EF8781" d="M515.5,226.1c0,0,0.1,0,0.5-0.1c0.3,0,0.4-0.1,0.7-0.1c0.4-0.2,0.8-0.4,1.1-0.7l-0.1-0.1
		c-0.1,0.1-0.4,0.1-0.5,0.1c-0.2,0-0.4,0-0.6,0c-0.4,0.1-0.8,0.5-1.2,0.8V226.1z"/>
</g>
<g>
	<path fill="none" d="M251.1,435.1c0.1-0.1,0.2-0.2,0.3-0.4c0.8-1.5,1.1-3.9,0.8-6.5c-0.5,1.6-1.2,3.2-1.9,4.8c0.1,0,0.2,0,0.3,0
		C251,433.7,251.1,434.4,251.1,435.1z"/>
	<rect x="230.4" y="255" fill="#564339" width="7.2" height="6.9"/>
	<polygon fill="#564339" points="187.1,255 176.6,255 175.4,255 175.4,262 175.5,262 187.1,262 	"/>
	<rect x="189.5" y="255" fill="#564339" width="7.7" height="6.9"/>
	<polygon fill="#564339" points="240,262 249.2,262 249.3,262 249.3,255 248.1,255 240,255 	"/>
	<rect x="199.7" y="255" fill="#564339" width="28.3" height="6.9"/>
	<path fill="#937A65" d="M189.5,264.4h7.7h2.4h28.3h2.4h7.2h2.4h9.3c0-0.8,0-1.6-0.1-2.4H240V255h8.1c-1.6-6.2-4.8-11.7-9-16.2
		l23.8-75.4l0,0l-5.8-67.8c-0.4,0.2-0.8,0.3-1.2,0.3L232,99.3c-0.2,0-0.4,0-0.6,0l5.2,61.3l-21.1,66.9c-1-0.1-2.1-0.1-3.1-0.1
		c-3.5,0-6.9,0.5-10.1,1.4l-38.4-54.5l3.8-32.1l-17.1-3c-2.7,0.9-5.6,1.5-8.8,1.5l-4.8,40.4l0.1,0l44.3,63
		c-2.1,3.3-3.8,6.9-4.8,10.8h10.5v6.9h-11.7c-0.1,0.8-0.1,1.6-0.1,2.4h11.7H189.5z M237.6,262h-7.2V255h7.2V262z M227.9,255v6.9
		h-28.3V255H227.9z M189.5,255h7.7v6.9h-7.7V255z"/>
	<path fill="#937A65" d="M170.6,116.9l0.1-0.6c-0.1,0.2-0.2,0.4-0.3,0.6L170.6,116.9z"/>
	<path fill="#BFA694" d="M160.4,132.6c-2.5,3-5.9,5.3-9.9,6.7l17.1,3l4.2,0.7c2.5,0.4,5.2-1.3,5.6-4l2.8-15.5c0.4-2.7-1.5-5.2-4-5.6
		l-5.6-1l-0.2,0C167.3,123.6,160.4,132.6,160.4,132.6z"/>
	<path fill="#FFFFFF" d="M246,58.4c-0.6,0.2-1.3,0.4-1.9,0.5l-12.7,2c-1.2,0.2-2.4,0.1-3.5-0.2l2.3,13.3l18.1-2.5L246,58.4z"/>
	<path fill="#BFA694" d="M255.8,96c0.4,0,0.8-0.2,1.2-0.3c1.9-0.8,3.2-2.9,2.9-5.1l-2.1-15.5c-0.1-2.8-2.8-4.5-5.3-4.1l-4.2,0.6
		L230.2,74l-1.6,0.2c-2.8,0.1-4.5,2.8-4.1,5.3l2.1,15.6c0.1,2.6,2.4,4.3,4.8,4.2c0.2,0,0.4,0,0.6,0L255.8,96z"/>
	<path fill="#30353A" d="M150.5,139.3c4-1.4,7.5-3.7,9.9-6.7c0,0,6.8-9,10-15.7c0.1-0.2,0.2-0.4,0.3-0.6c0.9-2,1.4-3.8,1.2-5
		c0.1-0.5-1.3-1.5-3.7-2.5l-0.1,0.1c0,0,0,0,0.1,0l-11.9,17.3c-4,5.2-12.1,7.9-20.3,5.7c-7.9-2.1-13.5-8.5-13.5-15.5c0,0,0,0,0-0.1
		c0,0,0,0,0-0.1c0-6.5,4.8-11.7,11.3-14.3c-10.3,1.6-18,8.8-18,18c0,8.8,7.6,16.9,17.9,19.6c2.7,0.7,5.4,1,8,1
		C144.9,140.7,147.8,140.2,150.5,139.3z"/>
	<path fill="#A0A0A0" d="M136,132c8.1,2.1,16.3-0.5,20.3-5.7l11.9-17.3c0,0,0,0-0.1,0c-8-3.3-25.5-6.8-25.5-6.8
		c-2.9-0.4-6-0.4-8.8,0.1c-6.4,2.5-11.2,7.6-11.2,14.2c0,0,0,0,0,0.1C122.6,123.5,128.2,129.9,136,132z"/>
	<path fill="#FFF0D7" d="M131.2,369.1l0.1,0.1l-23.2,59.6c-5.3,1.7-9.1,6.8-9.1,12.7c0,7.3,6,13.5,13.5,13.5c4.5,0,8.8-2.4,11.1-6
		c0.8,0.5,2,0.9,3.2,0.9c3.2,0,5.6-2.5,5.6-5.6c-0.1-2.5-2.8-5.6-5.9-5.6c-0.4,0-0.8,0-1.2,0.1c-0.1-0.9-0.5-2.1-0.9-2.9l21.6-55.8
		l17.4-13.2l-7.6-16.5L131.2,369.1z"/>
	<path fill="#FFF0D7" d="M315.3,428.9l-23.2-59.6l0.1-0.1l-20.9-15.8l-10.7,14.1l16.8,12.8l21.6,55.8c-0.4,0.8-0.8,2-0.9,2.9
		c-0.4-0.1-0.8-0.1-1.2-0.1c-3.2,0-5.7,3.1-5.9,5.6c0,3.1,2.4,5.6,5.6,5.6c1.2,0,2.4-0.4,3.2-0.9c2.3,3.6,6.5,6,11.1,6
		c7.5,0,13.5-6.1,13.5-13.5C324.4,435.7,320.7,430.6,315.3,428.9z"/>
	<path fill="#30353A" d="M231.4,60.9l12.7-2c0.7-0.1,1.3-0.3,1.9-0.5c3.1-1.2,5.3-4.3,5.3-7.9l-0.1-20.7c0.1-2,0.1-4.1,0-6.4
		c-1.6-11.9-11.5-20-22-18.3c-10.5,1.7-17.9,12.9-16.3,25.1c0.1,2,0.8,3.7,1.3,5.3c0.1,0.4,0.4,0.8,0.4,1.2l7.7,18.8
		c1,2.7,3.1,4.5,5.5,5.2C229,61,230.2,61.1,231.4,60.9z"/>
	<path fill="#D4F1FF" d="M274.9,348.5l-9.5-7.3l0.1-0.1c-4.7-3.6-11.1-4-16.3-1.2v-75.5h0H240h-2.4h-7.2h-2.4h-28.3h-2.4h-7.7h-2.4
		h-11.7v74.9c-2.7-0.8-5.7-0.9-8.5,0l-0.1-0.1l-13.3,6l2.5,5.4l7.6,16.5l2.2,4.8l10.9-4.9v0.1c2.3-1,4.3-2.4,5.8-4.3h7.2
		c0-0.3-0.1-0.6-0.1-0.9c0-4.7,3.8-8.5,8.5-8.5c3.4,0,6.3,2,7.7,4.8c0.7-0.7,1.5-1.2,2.5-1.5v-10.1c-0.2-0.4-0.3-0.8-0.3-1.2
		s0.1-0.8,0.3-1.2v-6.5c-0.2-0.4-0.3-0.8-0.3-1.2s0.1-0.8,0.3-1.2v-6.5c-0.2-0.4-0.3-0.8-0.3-1.2c0-1.6,1.3-2.9,2.9-2.9
		c1.3,0,2.5,0.9,2.8,2.1h0.1v0.8v8.9v8.9v11.4c1.2,0.5,2.3,1.4,3.1,2.4c0.8-3.9,4.2-6.9,8.4-6.9c4.7,0,8.5,3.8,8.5,8.5
		c0,0.3,0,0.7-0.1,1c-0.5-4.2-4.1-7.5-8.5-7.5c-4.4,0-8,3.3-8.5,7.5c0,0.3-0.1,0.7-0.1,1c0,2.3,0.9,4.4,2.4,5.9
		c2.8,0.5,5.5,1.3,8.1,2.4c3.7-0.9,6.5-4.3,6.5-8.3h11.6c0.1,0.1,0.2,0.3,0.4,0.4l-0.1,0.1l11.5,8.8l3.5-4.6l10.7-14.1L274.9,348.5z
		"/>
	<path fill="#80D7F9" d="M213.8,326.5h-0.1c0.1,0.3,0.1,0.5,0.1,0.8V326.5z"/>
	<path fill="#80D7F9" d="M210.9,333.3c1.6,0,2.9,1.3,2.9,2.9v-8.9c0,1.6-1.3,2.9-2.9,2.9c-1.2,0-2.2-0.7-2.7-1.7v6.5
		C208.7,334.1,209.7,333.3,210.9,333.3z"/>
	<path fill="#80D7F9" d="M210.9,342.3c1.6,0,2.9,1.3,2.9,2.9v-8.9c0,1.6-1.3,2.9-2.9,2.9c-1.2,0-2.2-0.7-2.7-1.7v6.5
		C208.7,343,209.7,342.3,210.9,342.3z"/>
	<path fill="#80D7F9" d="M213.8,356.6v-11.4c0,1.6-1.3,2.9-2.9,2.9c-1.2,0-2.2-0.7-2.7-1.7v10.1c0.8-0.3,1.7-0.5,2.7-0.5
		C211.9,356,212.9,356.2,213.8,356.6z"/>
	<path fill="#FAFEFF" d="M210.9,330.3c1.6,0,2.9-1.3,2.9-2.9c0-0.3-0.1-0.5-0.1-0.8c-0.4-1.2-1.5-2.1-2.8-2.1
		c-1.6,0-2.9,1.3-2.9,2.9c0,0.4,0.1,0.8,0.3,1.2C208.7,329.6,209.7,330.3,210.9,330.3z"/>
	<path fill="#FFF0D7" d="M206.6,362.7c0,0.3,0.1,0.6,0.1,0.9c0,1.7-0.5,3.4-1.4,4.7c2-0.3,4-0.4,6.1-0.4c2.7,0,5.3,0.3,7.9,0.7
		c-1.5-1.5-2.4-3.6-2.4-5.9c0-0.3,0-0.7,0.1-1c0-0.3-0.1-0.7-0.1-1c0-0.6,0.1-1.1,0.2-1.7c-0.8-1-1.9-1.9-3.1-2.4
		c-0.9-0.4-1.9-0.6-2.9-0.6c-0.9,0-1.8,0.2-2.7,0.5c-0.9,0.3-1.8,0.9-2.5,1.5c0.5,1.1,0.9,2.4,0.9,3.7
		C206.6,362.1,206.6,362.4,206.6,362.7z"/>
	<path fill="#FAFEFF" d="M210.9,339.2c1.6,0,2.9-1.3,2.9-2.9s-1.3-2.9-2.9-2.9c-1.2,0-2.2,0.7-2.7,1.7c-0.2,0.4-0.3,0.8-0.3,1.2
		s0.1,0.8,0.3,1.2C208.7,338.5,209.7,339.2,210.9,339.2z"/>
	<path fill="#FAFEFF" d="M210.9,348.1c1.6,0,2.9-1.3,2.9-2.9s-1.3-2.9-2.9-2.9c-1.2,0-2.2,0.7-2.7,1.7c-0.2,0.4-0.3,0.8-0.3,1.2
		s0.1,0.8,0.3,1.2C208.7,347.4,209.7,348.1,210.9,348.1z"/>
	<path fill="#80D7F9" d="M198.1,355.1c4.4,0,8,3.3,8.5,7.6c0-0.3,0.1-0.6,0.1-0.9c0-1.3-0.3-2.6-0.9-3.7c-1.4-2.8-4.3-4.8-7.7-4.8
		c-4.7,0-8.5,3.8-8.5,8.5c0,0.3,0,0.6,0.1,0.9C190,358.4,193.7,355.1,198.1,355.1z"/>
	<path fill="#80D7F9" d="M216.8,361.7c0.5-4.2,4.1-7.5,8.5-7.5c4.4,0,8,3.3,8.5,7.5c0-0.3,0.1-0.7,0.1-1c0-4.7-3.8-8.5-8.5-8.5
		c-4.1,0-7.6,2.9-8.4,6.9c-0.1,0.5-0.2,1.1-0.2,1.7C216.7,361,216.8,361.4,216.8,361.7z"/>
	<path fill="#D4F1FF" d="M205.2,368.3c0.9-1.3,1.4-3,1.4-4.7c0-0.3,0-0.6-0.1-0.9c-0.5-4.3-4.1-7.6-8.5-7.6s-8,3.3-8.5,7.6
		c0,0.3-0.1,0.6-0.1,0.9c0,3.4,2,6.3,4.9,7.7C197.8,369.9,201.4,368.9,205.2,368.3z"/>
	<path fill="#E5D2B7" d="M219.1,368.6c-2.6-0.5-5.2-0.7-7.9-0.7c-2.1,0-4.1,0.2-6.1,0.4c-3.8,0.5-7.4,1.6-10.8,3
		c-12.6,5.4-22.1,16.6-25.2,30.2c0.3,0.1,0.7,0.1,1,0.2c5.6-17.3,21.8-29.9,41-29.9c23.1,0,42,18.2,43,41.1c0-0.7,0.1-1.3,0.1-2
		c0-18.1-11.2-33.6-27.1-40C224.7,369.9,222,369.1,219.1,368.6z"/>
	<path fill="#6B4C3B" d="M250.6,435.3c0.1,0,0.3,0,0.5-0.2c0-0.7-0.1-1.4-0.4-2.1c-0.1,0-0.2,0-0.3,0c-0.3,0.6-0.6,1.2-0.9,1.8
		l0.5,0.4C250.2,435.3,250.4,435.3,250.6,435.3z"/>
	<path fill="#6B4C3B" d="M247.8,438.6l-0.4-0.2c-7.7,11.9-21,19.7-36.2,19.7c-20.5,0-37.6-14.3-42-33.4l-0.2,0.1
		c-0.9,0.3-1.9,0.6-2.8,0.7c-2.6,9.3-3.8,25.8-6.2,32.2c-0.4,1.3-0.9,2.8-0.8,4.4c0.1,1.6,1.2,2.9,2.5,3.2c2.5,0.5,4.7-4.1,7.9-3.7
		c2.1,0.1,3.3,2.9,3.6,5.2c0.5,8-3.7,15.7-2.4,23.6c0.4,2,1.2,4.1,2.9,5.2c1.7,1.2,4.4,0.9,6.1-0.1c1.7-1.2,3.2-2.9,4.1-4.9
		c0.4-0.8,0.8-1.7,1.6-2c1.7-0.8,3.3,1.3,4.1,2.9c2.4,4.8,6,8.8,10.3,11.7c0.9,0.5,2,1.2,3.2,0.8c0.8-0.1,1.2-0.9,1.6-1.7
		c1.6-3.6,0.4-8.8,3.6-11.1c1.6-1.2,4-1.2,5.7-0.4c1.7,0.8,3.3,2.1,4.8,3.7c2.1,2.4,4.1,4.9,6.1,7.6c3.3-3.2,4.1-8.1,4.4-12.7
		c0-1.2,0-2.4,0.5-3.2c1.2-2,4.1-2,6.1-0.9c2,0.9,3.7,2.5,6,3.2c0.5,0.1,1.3,0.1,2,0c0.5-0.4,0.9-0.9,1.2-1.6
		c2.4-6.1,0.9-13.5-3.2-18.7c-0.5-0.5-1.2-1.6-0.5-2.1c0.1-0.4,0.8-0.4,1.2-0.4c2.1-0.1,4.4-0.1,6.5-0.4c0.8,0,1.3-0.1,2-0.5
		c0.4-0.4,0.8-0.8,0.9-1.3c2.9-7.2-2.4-15.3-1.7-23.1c0-0.3,0-0.5,0.1-0.8c-0.1,0-0.2,0-0.2,0C249.6,439.5,248.8,439.1,247.8,438.6z
		"/>
	<path fill="#6B4C3B" d="M168.5,420.1c-0.1,0.2-0.2,0.4-0.3,0.5l0.3-0.2C168.5,420.3,168.5,420.2,168.5,420.1z"/>
	<path fill="#FFF0D7" d="M201.4,411.4l-9.3-2c-0.4-0.1-0.5-0.1-0.9-0.1c-3.3-0.4-6.5,1.7-7.3,4.9l-1.3,5.3c-0.1,0.8,0.4,1.6,1.2,1.7
		l8.9,2.2c-0.1-0.2-0.1-0.5-0.1-0.8c0-1.6,1.3-2.9,2.9-2.9s2.9,1.3,2.9,2.9c0,0.8-0.3,1.5-0.8,2l5.8,1.4c0.8,0.1,1.6-0.4,1.7-1.2
		l1.3-5.3C207.4,416.2,205.1,412.3,201.4,411.4z"/>
	<path fill="#FFF0D7" d="M218.1,422c0,0.1-0.1,0.1-0.1,0.2l-1.7,5.3c-0.3,0.8,0.1,1.9,0.9,2l19.1,6.4c0.8,0.3,1.9-0.1,2-0.9l1.7-5.5
		c0.5-1.9,0.4-3.6-0.4-5.2c-0.8-1.6-2.3-2.8-4-3.3l-9.1-2.9c-0.4-0.3-0.9-0.4-1.3-0.4c-0.3,0-0.5,0-0.8,0
		C223.4,420.1,221,421.8,218.1,422z M229,422.1c1.6,0,2.9,1.3,2.9,2.9s-1.3,2.9-2.9,2.9s-2.9-1.3-2.9-2.9S227.4,422.1,229,422.1z"/>
	<path fill="#FFF0D7" d="M211.3,371.9c-19.2,0-35.4,12.5-41,29.9c-0.3-0.1-0.7-0.2-1-0.2c-0.5-0.1-1-0.2-1.6-0.2
		c-4.9,0-8.8,3.9-8.8,8.8c0,4.9,3.9,8.8,8.8,8.8c0.2,0,0.5,0,0.7,0c0,0.4,0.1,0.7,0.1,1.1c0,0.1,0,0.3,0,0.4l12.2-5.6l0.4-1.6
		c1.3-4.9,6.5-8.3,11.9-6.9l9.3,2.4c5.2,1.3,8.3,6.7,6.9,11.9l-0.5,2.5c1.9,0.9,4,1.5,6,1.3l0.9-2.7c-3.3-0.9-5.8-3.9-5.8-7.5
		c0-0.4,0-0.7,0.1-1.1c0.5,3.8,3.7,6.7,7.7,6.7c3.9,0,7.1-2.9,7.7-6.7c0,0.3,0.1,0.7,0.1,1.1c0,0.3,0,0.5,0,0.8c0.2,0,0.5,0,0.7,0
		c0.7,0,1.5,0.3,2,0.4l9.1,2.9c2.4,0.9,4.4,2.5,5.6,4.9c0.9,2.1,1.1,4.5,0.5,6.9l6.4,4.4c0.3-0.6,0.6-1.2,0.9-1.8
		c0.7-1.5,1.3-3.1,1.9-4.8c0-0.1,0-0.3,0-0.4v-0.4l0.3,0c1.2-3.9,1.8-8.1,1.8-12.4c0-0.7,0-1.3-0.1-2
		C253.3,390.1,234.4,371.9,211.3,371.9z M216.7,406.8c-5.6,0-10.1-4.5-10.1-10.1c0-3.5,1.8-6.7,4.6-8.5c1.5-1.3,3.4-2.1,5.6-2.1
		c2.1,0,4.1,0.8,5.6,2.1c2.8,1.8,4.6,4.9,4.6,8.5C226.9,402.3,222.3,406.8,216.7,406.8z"/>
	<path fill="#FFF0D7" d="M211.3,458.1c15.2,0,28.5-7.9,36.2-19.7l-5.6-3.9l-0.5,1.7c-0.7,2-2.7,3.1-4.8,2.9c-0.4,0-0.5,0-0.9-0.1
		l-19.1-6.4c-2.1-0.8-3.3-3.1-2.9-5.2c-0.4,0-0.8,0-1.2,0c-1.6-0.1-3.2-0.5-4.5-1.3c-0.7,2-2.7,3.3-4.8,3.2
		c-0.1-0.1-0.4-0.1-0.5-0.1l-19.5-4.9c-2-0.7-3.3-2.4-3.3-4.4l-10.4,4.9C173.7,443.8,190.8,458.1,211.3,458.1z"/>
	<path fill="#474747" d="M195.4,419.8c-1.6,0-2.9,1.3-2.9,2.9c0,0.3,0,0.5,0.1,0.8l4.9,1.2c0.5-0.5,0.8-1.2,0.8-2
		C198.3,421.1,197,419.8,195.4,419.8z"/>
	<circle fill="#474747" cx="229" cy="425" r="2.9"/>
	<path fill="#565656" d="M252.2,427.8c0,0.2,0,0.3,0,0.4c0.3,2.6-0.1,5-0.8,6.5c-0.1,0.2-0.2,0.3-0.3,0.4c-0.2,0.1-0.4,0.2-0.5,0.2
		c-0.3,0-0.4,0-0.5-0.1l-0.5-0.4l-6.4-4.4c0.5-2.4,0.4-4.8-0.5-6.9c-1.2-2.4-3.2-4-5.6-4.9l-9.1-2.9c-0.5-0.1-1.3-0.4-2-0.4
		c-0.2,0-0.5,0-0.7,0c-0.1,0.9-0.3,1.7-0.7,2.5c0.2,0,0.5,0,0.8,0c0.4,0,0.9,0.1,1.3,0.4l9.1,2.9c1.7,0.5,3.2,1.7,4,3.3
		c0.8,1.6,0.9,3.3,0.4,5.2l-1.7,5.5c-0.1,0.8-1.2,1.2-2,0.9l-19.1-6.4c-0.8-0.1-1.2-1.2-0.9-2l1.7-5.3c0-0.1,0-0.1,0.1-0.2
		c-0.2,0-0.4,0-0.6,0c-0.7,0-1.3-0.1-1.9-0.2l-0.9,2.7c-2,0.1-4.1-0.4-6-1.3l0.5-2.5c1.3-5.2-1.7-10.5-6.9-11.9l-9.3-2.4
		c-5.3-1.3-10.5,2-11.9,6.9l-0.4,1.6l-12.2,5.6l-0.3,0.2l-0.8,0.4c-2.1,0.9-4.8,0.8-6.8-0.4c-2.1-1.3-3.6-3.7-3.6-6.1v-0.5h-4v0.4
		c0,4,2.1,7.7,5.6,9.7c1.7,0.9,3.7,1.6,5.7,1.6c0.7,0,1.3-0.1,2-0.2c0.9-0.2,1.9-0.4,2.8-0.7l0.2-0.1l10.4-4.9c0,2,1.3,3.7,3.3,4.4
		l19.5,4.9c0.1,0,0.4,0,0.5,0.1c2.1,0.1,4.1-1.2,4.8-3.2c1.3,0.8,2.9,1.2,4.5,1.3c0.4,0,0.8,0,1.2,0c-0.4,2.1,0.8,4.4,2.9,5.2
		l19.1,6.4c0.4,0.1,0.5,0.1,0.9,0.1c2.1,0.1,4.1-0.9,4.8-2.9l0.5-1.7l5.6,3.9l0.4,0.2c0.9,0.5,1.7,0.9,2.8,0.9c0,0,0.1,0,0.2,0
		c0.2,0,0.4,0,0.6,0c0.9-0.1,2.1-0.8,3.2-2.4c1.6-2.5,2.1-6.1,1.6-9.9v-0.4l-3.7,0.5l-0.3,0V427.8z M206.3,419.7L205,425
		c-0.1,0.8-0.9,1.3-1.7,1.2l-5.8-1.4l-4.9-1.2l-8.9-2.2c-0.8-0.1-1.3-0.9-1.2-1.7l1.3-5.3c0.8-3.2,4-5.3,7.3-4.9
		c0.4,0,0.5,0,0.9,0.1l9.3,2C205.1,412.3,207.4,416.2,206.3,419.7z"/>
	<path fill="#E5D2B7" d="M218.1,422c2.8-0.2,5.2-2,6.4-4.4c0.4-0.8,0.6-1.6,0.7-2.5c0-0.3,0-0.5,0-0.8c0-0.4,0-0.7-0.1-1.1
		c-0.5,3.8-3.7,6.7-7.7,6.7c-3.9,0-7.1-2.9-7.7-6.7c0,0.3-0.1,0.7-0.1,1.1c0,3.6,2.5,6.6,5.8,7.5c0.6,0.2,1.3,0.2,1.9,0.2
		C217.7,422.1,217.9,422,218.1,422z"/>
	<path fill="#E5D2B7" d="M222.3,388.2c1.8,1.6,3,3.9,3,6.5c0,4.7-3.8,8.5-8.5,8.5c-4.7,0-8.5-3.8-8.5-8.5c0-2.6,1.2-4.9,3-6.5
		c-2.8,1.8-4.6,4.9-4.6,8.5c0,5.6,4.5,10.1,10.1,10.1c5.6,0,10.1-4.5,10.1-10.1C226.9,393.2,225.1,390,222.3,388.2z"/>
	<path fill="#474747" d="M208.2,394.7c0,4.7,3.8,8.5,8.5,8.5c4.7,0,8.5-3.8,8.5-8.5c0-2.6-1.2-4.9-3-6.5c-1.5-1.3-3.4-2.1-5.6-2.1
		c-2.1,0-4.1,0.8-5.6,2.1C209.4,389.8,208.2,392.1,208.2,394.7z"/>
</g>
</svg>
