<?xml version="1.0" encoding="utf-8"?>
<!-- Generator: Adobe Illustrator 18.1.1, SVG Export Plug-In . SVG Version: 6.00 Build 0)  -->
<svg version="1.1" id="Layer_1" xmlns="http://www.w3.org/2000/svg" xmlns:xlink="http://www.w3.org/1999/xlink" x="0px" y="0px"
	 viewBox="0 0 600 600" enable-background="new 0 0 600 600" xml:space="preserve">
<g>
	<path fill="none" d="M245,340.9c0.1-0.1,0.2-0.2,0.2-0.3c0.6-1.1,0.9-2.9,0.6-4.9c-0.4,1.2-0.9,2.4-1.4,3.6c0.1,0,0.2,0,0.3,0
		C244.9,339.8,244.9,340.4,245,340.9z"/>
	<rect x="229.4" y="205.9" fill="#564339" width="5.4" height="5.2"/>
	<polygon fill="#564339" points="197,205.9 189.1,205.9 188.2,205.9 188.2,211.1 188.3,211.1 197,211.1 	"/>
	<rect x="198.8" y="205.9" fill="#564339" width="5.8" height="5.2"/>
	<polygon fill="#564339" points="236.6,211.1 243.5,211.1 243.6,211.1 243.6,205.9 242.7,205.9 236.6,205.9 	"/>
	<rect x="206.4" y="205.9" fill="#564339" width="21.2" height="5.2"/>
	<path fill="#937A65" d="M198.8,212.9h5.8h1.8h21.2h1.8h5.4h1.8h7c0-0.6,0-1.2-0.1-1.8h-6.9v-5.2h6.1c-1.2-4.6-3.6-8.8-6.8-12.1
		l17.8-56.5l0,0l-4.3-50.8c-0.3,0.1-0.6,0.2-0.9,0.3l-17.9,2.5c-0.1,0-0.3,0-0.4,0l3.9,45.9l-15.8,50.1c-0.8-0.1-1.6-0.1-2.4-0.1
		c-2.6,0-5.2,0.4-7.6,1.1l-28.8-40.9l2.8-24l-12.8-2.2c-2,0.7-4.2,1.1-6.6,1.1l-3.6,30.3l0.1,0l33.2,47.2c-1.6,2.5-2.8,5.2-3.6,8.1
		h7.9v5.2h-8.7c0,0.6-0.1,1.2-0.1,1.8h8.8H198.8z M234.8,211.1h-5.4v-5.2h5.4V211.1z M227.6,205.9v5.2h-21.2v-5.2H227.6z
		 M198.8,205.9h5.8v5.2h-5.8V205.9z"/>
	<path fill="#937A65" d="M184.6,102.4l0.1-0.4c-0.1,0.1-0.1,0.3-0.2,0.4L184.6,102.4z"/>
	<path fill="#BFA694" d="M177,114.1c-1.8,2.3-4.4,4-7.5,5l12.8,2.2l3.1,0.5c1.9,0.3,3.9-1,4.2-3l2.1-11.6c0.3-2-1.1-3.9-3-4.2
		l-4.2-0.7l-0.1,0C182.1,107.4,177,114.1,177,114.1z"/>
	<path fill="#FFFFFF" d="M241.1,58.5c-0.5,0.2-0.9,0.3-1.4,0.4l-9.5,1.5c-0.9,0.2-1.8,0.1-2.7-0.1l1.7,10l13.6-1.9L241.1,58.5z"/>
	<path fill="#BFA694" d="M248.5,86.7c0.3,0,0.6-0.1,0.9-0.3c1.4-0.6,2.4-2.2,2.2-3.8L250,71c-0.1-2.1-2.1-3.4-4-3.1l-3.1,0.4
		l-13.6,1.9l-1.2,0.2c-2.1,0.1-3.4,2.1-3.1,4l1.6,11.7c0.1,1.9,1.8,3.2,3.6,3.1c0.1,0,0.3,0,0.4,0L248.5,86.7z"/>
	<path fill="#30353A" d="M169.5,119.1c3-1,5.6-2.8,7.5-5c0,0,5.1-6.7,7.5-11.7c0.1-0.1,0.1-0.3,0.2-0.4c0.7-1.5,1-2.8,0.9-3.7
		c0.1-0.4-1-1.1-2.8-1.9l-0.1,0.1c0,0,0,0,0.1,0l-8.9,13c-3,3.9-9.1,5.9-15.2,4.3c-5.9-1.6-10.1-6.4-10.1-11.6c0,0,0,0,0-0.1
		c0,0,0,0,0,0c0-4.9,3.6-8.8,8.5-10.7c-7.7,1.2-13.5,6.6-13.5,13.5c0,6.6,5.7,12.7,13.4,14.7c2,0.5,4,0.8,6,0.7
		C165.3,120.2,167.5,119.8,169.5,119.1z"/>
	<path fill="#A0A0A0" d="M158.7,113.7c6.1,1.6,12.2-0.4,15.2-4.3l8.9-13c0,0,0,0-0.1,0c-6-2.5-19.1-5.1-19.1-5.1
		c-2.2-0.3-4.5-0.3-6.6,0.1c-4.8,1.9-8.4,5.7-8.4,10.6c0,0,0,0,0,0.1C148.6,107.3,152.8,112.1,158.7,113.7z"/>
	<path fill="#FFF0D7" d="M155.1,291.4l0.1,0.1l-17.4,44.7c-4,1.3-6.8,5.1-6.8,9.5c0,5.5,4.5,10.1,10.1,10.1c3.4,0,6.6-1.8,8.3-4.5
		c0.6,0.4,1.5,0.7,2.4,0.7c2.4,0,4.2-1.9,4.2-4.2c-0.1-1.9-2.1-4.2-4.4-4.2c-0.3,0-0.6,0-0.9,0.1c-0.1-0.7-0.4-1.6-0.7-2.2
		l16.2-41.8l13-9.9l-5.7-12.4L155.1,291.4z"/>
	<path fill="#FFF0D7" d="M293.1,336.2l-17.4-44.7l0.1-0.1l-15.7-11.9l-8,10.6l12.6,9.6l16.2,41.8c-0.3,0.6-0.6,1.5-0.7,2.2
		c-0.3-0.1-0.6-0.1-0.9-0.1c-2.4,0-4.3,2.3-4.4,4.2c0,2.3,1.8,4.2,4.2,4.2c0.9,0,1.8-0.3,2.4-0.7c1.7,2.7,4.9,4.5,8.3,4.5
		c5.6,0,10.1-4.6,10.1-10.1C299.9,341.3,297.1,337.5,293.1,336.2z"/>
	<path fill="#30353A" d="M230.2,60.4l9.5-1.5c0.5-0.1,1-0.2,1.4-0.4c2.3-0.9,4-3.2,4-5.9L245,37.1c0.1-1.5,0.1-3.1,0-4.8
		c-1.2-8.9-8.6-15-16.5-13.7c-7.9,1.3-13.4,9.7-12.2,18.8c0.1,1.5,0.6,2.8,1,4c0.1,0.3,0.3,0.6,0.3,0.9l5.8,14.1
		c0.8,2,2.3,3.4,4.1,3.9C228.4,60.5,229.3,60.6,230.2,60.4z"/>
	<path fill="#D4F1FF" d="M262.8,276l-7.1-5.5l0.1-0.1c-3.5-2.7-8.4-3-12.2-0.9v-56.6h0h-7h-1.8h-5.4h-1.8h-21.2h-1.8h-5.8H197h-8.8
		V269c-2-0.6-4.2-0.7-6.4,0l-0.1-0.1l-10,4.5l1.9,4l5.7,12.4l1.7,3.6l8.2-3.7v0.1c1.7-0.7,3.2-1.8,4.3-3.2h5.4c0-0.2,0-0.5,0-0.7
		c0-3.5,2.9-6.4,6.4-6.4c2.5,0,4.7,1.5,5.8,3.6c0.5-0.5,1.2-0.9,1.8-1.1v-7.6c-0.1-0.3-0.2-0.6-0.2-0.9s0.1-0.6,0.2-0.9v-4.9
		c-0.1-0.3-0.2-0.6-0.2-0.9s0.1-0.6,0.2-0.9V261c-0.1-0.3-0.2-0.6-0.2-0.9c0-1.2,1-2.2,2.2-2.2c1,0,1.8,0.7,2.1,1.6h0.1v0.6v6.7v6.7
		v8.5c0.9,0.4,1.7,1,2.3,1.8c0.6-2.9,3.2-5.1,6.3-5.1c3.5,0,6.4,2.9,6.4,6.4c0,0.3,0,0.5,0,0.8c-0.4-3.2-3.1-5.6-6.4-5.6
		c-3.3,0-6,2.5-6.4,5.6c0,0.2,0,0.5,0,0.8c0,1.7,0.7,3.3,1.8,4.4c2.1,0.4,4.2,1,6.1,1.8c2.8-0.7,4.9-3.2,4.9-6.2h8.7
		c0.1,0.1,0.2,0.2,0.3,0.3l-0.1,0.1l8.6,6.6l2.6-3.5l8-10.6L262.8,276z"/>
	<path fill="#80D7F9" d="M217,259.5L217,259.5c0,0.2,0,0.4,0,0.6V259.5z"/>
	<path fill="#80D7F9" d="M214.8,264.6c1.2,0,2.2,1,2.2,2.2v-6.7c0,1.2-1,2.2-2.2,2.2c-0.9,0-1.7-0.5-2-1.3v4.9
		C213.1,265.1,213.9,264.6,214.8,264.6z"/>
	<path fill="#80D7F9" d="M214.8,271.3c1.2,0,2.2,1,2.2,2.2v-6.7c0,1.2-1,2.2-2.2,2.2c-0.9,0-1.7-0.5-2-1.3v4.9
		C213.1,271.8,213.9,271.3,214.8,271.3z"/>
	<path fill="#80D7F9" d="M217,282v-8.5c0,1.2-1,2.2-2.2,2.2c-0.9,0-1.7-0.5-2-1.3v7.6c0.6-0.2,1.3-0.4,2-0.4
		C215.6,281.6,216.3,281.8,217,282z"/>
	<path fill="#FAFEFF" d="M214.8,262.3c1.2,0,2.2-1,2.2-2.2c0-0.2,0-0.4-0.1-0.6c-0.3-0.9-1.1-1.6-2.1-1.6c-1.2,0-2.2,1-2.2,2.2
		c0,0.3,0.1,0.6,0.2,0.9C213.1,261.8,213.9,262.3,214.8,262.3z"/>
	<path fill="#FFF0D7" d="M211.6,286.6c0,0.2,0,0.5,0,0.7c0,1.3-0.4,2.5-1.1,3.5c1.5-0.2,3-0.3,4.6-0.3c2,0,4,0.2,5.9,0.5
		c-1.1-1.2-1.8-2.7-1.8-4.4c0-0.3,0-0.5,0-0.8c0-0.2,0-0.5,0-0.8c0-0.4,0-0.9,0.1-1.3c-0.6-0.8-1.4-1.4-2.3-1.8
		c-0.7-0.3-1.4-0.4-2.2-0.4c-0.7,0-1.4,0.1-2,0.4c-0.7,0.3-1.3,0.6-1.8,1.1c0.4,0.8,0.6,1.8,0.6,2.8
		C211.6,286.1,211.6,286.4,211.6,286.6z"/>
	<path fill="#FAFEFF" d="M214.8,269c1.2,0,2.2-1,2.2-2.2s-1-2.2-2.2-2.2c-0.9,0-1.7,0.5-2,1.3c-0.1,0.3-0.2,0.6-0.2,0.9
		s0.1,0.6,0.2,0.9C213.1,268.5,213.9,269,214.8,269z"/>
	<path fill="#FAFEFF" d="M214.8,275.7c1.2,0,2.2-1,2.2-2.2s-1-2.2-2.2-2.2c-0.9,0-1.7,0.5-2,1.3c-0.1,0.3-0.2,0.6-0.2,0.9
		s0.1,0.6,0.2,0.9C213.1,275.2,213.9,275.7,214.8,275.7z"/>
	<path fill="#80D7F9" d="M205.2,280.9c3.3,0,6,2.5,6.4,5.7c0-0.2,0-0.5,0-0.7c0-1-0.2-1.9-0.6-2.8c-1-2.1-3.2-3.6-5.8-3.6
		c-3.5,0-6.4,2.9-6.4,6.4c0,0.2,0,0.5,0,0.7C199.2,283.4,201.9,280.9,205.2,280.9z"/>
	<path fill="#80D7F9" d="M219.2,285.8c0.4-3.2,3.1-5.6,6.4-5.6c3.3,0,6,2.5,6.4,5.6c0-0.2,0-0.5,0-0.8c0-3.5-2.9-6.4-6.4-6.4
		c-3.1,0-5.7,2.2-6.3,5.1c-0.1,0.4-0.1,0.8-0.1,1.3C219.2,285.4,219.2,285.6,219.2,285.8z"/>
	<path fill="#D4F1FF" d="M210.5,290.8c0.7-1,1.1-2.2,1.1-3.5c0-0.2,0-0.5,0-0.7c-0.3-3.2-3.1-5.7-6.4-5.7s-6,2.5-6.4,5.7
		c0,0.2,0,0.5,0,0.7c0,2.5,1.5,4.7,3.7,5.8C205,292,207.7,291.2,210.5,290.8z"/>
	<path fill="#E5D2B7" d="M221,291c-1.9-0.4-3.9-0.5-5.9-0.5c-1.5,0-3.1,0.1-4.6,0.3c-2.8,0.4-5.5,1.2-8.1,2.2
		c-9.4,4-16.6,12.4-18.9,22.6c0.3,0,0.5,0.1,0.8,0.2c4.2-13,16.4-22.4,30.7-22.4c17.3,0,31.5,13.7,32.3,30.8c0-0.5,0-1,0-1.5
		c0-13.6-8.4-25.2-20.3-30C225.2,292,223.1,291.4,221,291z"/>
	<path fill="#6B4C3B" d="M244.6,341c0.1,0,0.3,0,0.4-0.1c0-0.5-0.1-1.1-0.3-1.6c-0.1,0-0.2,0-0.3,0c-0.2,0.4-0.4,0.9-0.6,1.3
		l0.4,0.3C244.3,341,244.4,341,244.6,341z"/>
	<path fill="#6B4C3B" d="M242.5,343.5l-0.3-0.2c-5.8,8.9-15.8,14.8-27.1,14.8c-15.3,0-28.2-10.7-31.5-25.1l-0.1,0.1
		c-0.7,0.2-1.4,0.4-2.1,0.5c-1.9,7-2.8,19.3-4.6,24.2c-0.3,1-0.7,2.1-0.6,3.3c0.1,1.2,0.9,2.2,1.9,2.4c1.9,0.4,3.5-3.1,5.9-2.8
		c1.6,0.1,2.5,2.2,2.7,3.9c0.4,6-2.8,11.8-1.8,17.7c0.3,1.5,0.9,3.1,2.2,3.9c1.3,0.9,3.3,0.7,4.6-0.1c1.3-0.9,2.4-2.2,3.1-3.7
		c0.3-0.6,0.6-1.3,1.2-1.5c1.3-0.6,2.5,1,3.1,2.2c1.8,3.6,4.5,6.6,7.7,8.8c0.7,0.4,1.5,0.9,2.4,0.6c0.6-0.1,0.9-0.7,1.2-1.3
		c1.2-2.7,0.3-6.6,2.7-8.3c1.2-0.9,3-0.9,4.3-0.3c1.3,0.6,2.5,1.6,3.6,2.8c1.6,1.8,3.1,3.7,4.6,5.7c2.5-2.4,3.1-6.1,3.3-9.5
		c0-0.9,0-1.8,0.4-2.4c0.9-1.5,3.1-1.5,4.6-0.7c1.5,0.7,2.8,1.9,4.5,2.4c0.4,0.1,1,0.1,1.5,0c0.4-0.3,0.7-0.7,0.9-1.2
		c1.8-4.6,0.7-10.1-2.4-14c-0.4-0.4-0.9-1.2-0.4-1.6c0.1-0.3,0.6-0.3,0.9-0.3c1.6-0.1,3.3-0.1,4.9-0.3c0.6,0,1-0.1,1.5-0.4
		c0.3-0.3,0.6-0.6,0.7-1c2.2-5.4-1.8-11.5-1.3-17.3c0-0.2,0-0.4,0-0.6c-0.1,0-0.1,0-0.1,0C243.8,344.2,243.2,343.9,242.5,343.5z"/>
	<path fill="#6B4C3B" d="M183,329.6c-0.1,0.1-0.2,0.3-0.2,0.4l0.3-0.1C183.1,329.8,183,329.7,183,329.6z"/>
	<path fill="#FFF0D7" d="M207.7,323.1l-7-1.5c-0.3-0.1-0.4-0.1-0.7-0.1c-2.5-0.3-4.9,1.3-5.5,3.7l-1,4c-0.1,0.6,0.3,1.2,0.9,1.3
		l6.7,1.7c-0.1-0.2-0.1-0.4-0.1-0.6c0-1.2,1-2.2,2.2-2.2s2.2,1,2.2,2.2c0,0.6-0.2,1.1-0.6,1.5l4.3,1.1c0.6,0.1,1.2-0.3,1.3-0.9l1-4
		C212.2,326.7,210.5,323.8,207.7,323.1z"/>
	<path fill="#FFF0D7" d="M220.3,331.1c0,0,0,0.1-0.1,0.1l-1.3,4c-0.2,0.6,0.1,1.4,0.7,1.5l14.3,4.8c0.6,0.2,1.4-0.1,1.5-0.7l1.3-4.1
		c0.4-1.4,0.3-2.7-0.3-3.9c-0.6-1.2-1.7-2.1-3-2.5l-6.8-2.2c-0.3-0.2-0.7-0.3-1-0.3c-0.2,0-0.4,0-0.6,0
		C224.2,329.6,222.4,330.9,220.3,331.1z M228.4,331.1c1.2,0,2.2,1,2.2,2.2s-1,2.2-2.2,2.2s-2.2-1-2.2-2.2S227.2,331.1,228.4,331.1z"
		/>
	<path fill="#FFF0D7" d="M215.1,293.5c-14.4,0-26.6,9.4-30.7,22.4c-0.2-0.1-0.5-0.1-0.8-0.2c-0.4-0.1-0.8-0.1-1.2-0.1
		c-3.6,0-6.6,3-6.6,6.6s3,6.6,6.6,6.6c0.2,0,0.4,0,0.5,0c0,0.3,0.1,0.6,0.1,0.8c0,0.1,0,0.2,0,0.3l9.1-4.2l0.3-1.2
		c1-3.7,4.9-6.2,8.9-5.2l7,1.8c3.9,1,6.2,5,5.2,8.9l-0.4,1.9c1.4,0.7,3,1.1,4.5,1l0.7-2c-2.5-0.6-4.4-2.9-4.4-5.6
		c0-0.3,0-0.5,0.1-0.8c0.4,2.8,2.8,5,5.7,5s5.3-2.2,5.7-5c0,0.3,0.1,0.5,0.1,0.8c0,0.2,0,0.4,0,0.6c0.2,0,0.4,0,0.5,0
		c0.5,0,1.1,0.2,1.5,0.3l6.8,2.2c1.8,0.7,3.3,1.9,4.2,3.7c0.7,1.6,0.8,3.4,0.4,5.2l4.8,3.3c0.2-0.4,0.4-0.9,0.6-1.3
		c0.5-1.2,1-2.3,1.4-3.6c0-0.1,0-0.2,0-0.3v-0.3l0.2,0c0.9-2.9,1.4-6,1.4-9.3c0-0.5,0-1,0-1.5C246.6,307.2,232.4,293.5,215.1,293.5z
		 M219.2,319.7c-4.2,0-7.6-3.4-7.6-7.6c0-2.7,1.4-5,3.4-6.4c1.1-1,2.6-1.5,4.2-1.5c1.6,0,3,0.6,4.2,1.5c2.1,1.4,3.4,3.7,3.4,6.4
		C226.8,316.3,223.4,319.7,219.2,319.7z"/>
	<path fill="#FFF0D7" d="M215.1,358.1c11.4,0,21.4-5.9,27.1-14.8l-4.2-2.9l-0.4,1.3c-0.5,1.5-2,2.3-3.6,2.2c-0.3,0-0.4,0-0.7-0.1
		L219,339c-1.6-0.6-2.5-2.3-2.2-3.9c-0.3,0-0.6,0-0.9,0c-1.2-0.1-2.4-0.4-3.4-1c-0.5,1.5-2,2.5-3.6,2.4c-0.1-0.1-0.3-0.1-0.4-0.1
		l-14.6-3.7c-1.5-0.5-2.5-1.8-2.5-3.3l-7.8,3.6C186.9,347.4,199.8,358.1,215.1,358.1z"/>
	<path fill="#474747" d="M203.2,329.4c-1.2,0-2.2,1-2.2,2.2c0,0.2,0,0.4,0.1,0.6l3.7,0.9c0.4-0.4,0.6-0.9,0.6-1.5
		C205.4,330.4,204.4,329.4,203.2,329.4z"/>
	<circle fill="#474747" cx="228.4" cy="333.3" r="2.2"/>
	<path fill="#565656" d="M245.8,335.4c0,0.1,0,0.2,0,0.3c0.2,2-0.1,3.7-0.6,4.9c0,0.1-0.1,0.2-0.2,0.3c-0.1,0.1-0.3,0.1-0.4,0.1
		c-0.2,0-0.3,0-0.4-0.1l-0.4-0.3l-4.8-3.3c0.4-1.8,0.3-3.6-0.4-5.2c-0.9-1.8-2.4-3-4.2-3.7l-6.8-2.2c-0.4-0.1-1-0.3-1.5-0.3
		c-0.2,0-0.4,0-0.5,0c-0.1,0.7-0.3,1.3-0.5,1.9c0.2,0,0.4,0,0.6,0c0.3,0,0.7,0.1,1,0.3l6.8,2.2c1.3,0.4,2.4,1.3,3,2.5
		c0.6,1.2,0.7,2.5,0.3,3.9l-1.3,4.1c-0.1,0.6-0.9,0.9-1.5,0.7l-14.3-4.8c-0.6-0.1-0.9-0.9-0.7-1.5l1.3-4c0,0,0-0.1,0.1-0.1
		c-0.1,0-0.3,0-0.5,0c-0.5,0-1-0.1-1.4-0.2l-0.7,2c-1.5,0.1-3.1-0.3-4.5-1l0.4-1.9c1-3.9-1.3-7.9-5.2-8.9l-7-1.8
		c-4-1-7.9,1.5-8.9,5.2l-0.3,1.2l-9.1,4.2l-0.3,0.1l-0.6,0.3c-1.6,0.7-3.6,0.6-5.1-0.3c-1.6-1-2.7-2.8-2.7-4.6V325h-3v0.3
		c0,3,1.6,5.8,4.2,7.3c1.3,0.7,2.8,1.2,4.3,1.2c0.5,0,1-0.1,1.5-0.2c0.7-0.1,1.4-0.3,2.1-0.5l0.1-0.1l7.8-3.6c0,1.5,1,2.8,2.5,3.3
		l14.6,3.7c0.1,0,0.3,0,0.4,0.1c1.6,0.1,3.1-0.9,3.6-2.4c1,0.6,2.2,0.9,3.4,1c0.3,0,0.6,0,0.9,0c-0.3,1.6,0.6,3.3,2.2,3.9l14.3,4.8
		c0.3,0.1,0.4,0.1,0.7,0.1c1.6,0.1,3.1-0.7,3.6-2.2l0.4-1.3l4.2,2.9l0.3,0.2c0.7,0.4,1.3,0.7,2.1,0.7c0,0,0.1,0,0.1,0
		c0.1,0,0.3,0,0.5,0c0.7-0.1,1.6-0.6,2.4-1.8c1.2-1.9,1.6-4.6,1.2-7.4v-0.3l-2.8,0.4l-0.2,0V335.4z M211.4,329.3l-1,4
		c-0.1,0.6-0.7,1-1.3,0.9l-4.3-1.1l-3.7-0.9l-6.7-1.7c-0.6-0.1-1-0.7-0.9-1.3l1-4c0.6-2.4,3-4,5.5-3.7c0.3,0,0.4,0,0.7,0.1l7,1.5
		C210.5,323.8,212.2,326.7,211.4,329.3z"/>
	<path fill="#E5D2B7" d="M220.3,331.1c2.1-0.2,3.9-1.5,4.8-3.3c0.3-0.6,0.5-1.2,0.5-1.9c0-0.2,0-0.4,0-0.6c0-0.3,0-0.5-0.1-0.8
		c-0.4,2.8-2.8,5-5.7,5s-5.3-2.2-5.7-5c0,0.3-0.1,0.5-0.1,0.8c0,2.7,1.9,5,4.4,5.6c0.5,0.1,0.9,0.2,1.4,0.2
		C220,331.1,220.1,331.1,220.3,331.1z"/>
	<path fill="#E5D2B7" d="M223.4,305.7c1.4,1.2,2.2,2.9,2.2,4.9c0,3.5-2.9,6.4-6.4,6.4s-6.4-2.9-6.4-6.4c0-1.9,0.9-3.7,2.2-4.9
		c-2.1,1.4-3.4,3.7-3.4,6.4c0,4.2,3.4,7.6,7.6,7.6c4.2,0,7.6-3.4,7.6-7.6C226.8,309.4,225.4,307.1,223.4,305.7z"/>
	<path fill="#474747" d="M212.8,310.6c0,3.5,2.9,6.4,6.4,6.4s6.4-2.9,6.4-6.4c0-1.9-0.9-3.7-2.2-4.9c-1.1-1-2.6-1.5-4.2-1.5
		c-1.6,0-3,0.6-4.2,1.5C213.7,306.9,212.8,308.7,212.8,310.6z"/>
</g>
</svg>
